<svg xmlns="http://www.w3.org/2000/svg" xmlns:xlink="http://www.w3.org/1999/xlink" width="82" height="83" viewBox="0 0 82 83">
  <defs>
    <filter id="_3D" x="19" y="0" width="59" height="82" filterUnits="userSpaceOnUse">
      <feOffset dx="4" dy="3" input="SourceAlpha"/>
      <feGaussianBlur stdDeviation="3" result="blur"/>
      <feFlood flood-opacity="0.161"/>
      <feComposite operator="in" in2="blur"/>
      <feComposite in="SourceGraphic"/>
    </filter>
    <filter id="_3D-2" x="19" y="0" width="59" height="82" filterUnits="userSpaceOnUse">
      <feOffset dy="3" input="SourceAlpha"/>
      <feGaussianBlur stdDeviation="3" result="blur-2"/>
      <feFlood flood-opacity="0.161" result="color"/>
      <feComposite operator="out" in="SourceGraphic" in2="blur-2"/>
      <feComposite operator="in" in="color"/>
      <feComposite operator="in" in2="SourceGraphic"/>
    </filter>
  </defs>
  <g id="_3d-icon" data-name="3d-icon" transform="translate(-4336 -4647)">
    <rect id="Rectangle_4" data-name="Rectangle 4" width="82" height="82" rx="28" transform="translate(4336 4648)" fill="#c93333"/>
    <g id="Continuous-Integration-Filled" transform="translate(4349.893 4660.979)" style="isolation: isolate">
      <path id="Path_50" data-name="Path 50" d="M53.124,15.882v28.33L29.492,56.04V27.71ZM27.107,23.561,50.668,11.78,27.107,0,3.546,11.78ZM24.722,27.71,1.09,15.882v28.33L24.722,56.04Z" fill="#fbfbfb"/>
    </g>
    <g data-type="innerShadowGroup">
      <g transform="matrix(1, 0, 0, 1, 4336, 4647)" filter="url(#_3D)" style="mix-blend-mode: hard-light;isolation: isolate">
        <text id="_3D-3" data-name="3D" transform="translate(24 41)" fill="#7b5858" font-size="35" font-family="KhmerMN, Khmer MN"><tspan x="0" y="0">3D</tspan></text>
      </g>
      <g transform="matrix(1, 0, 0, 1, 4336, 4647)" filter="url(#_3D-2)" style="mix-blend-mode: hard-light;isolation: isolate">
        <text id="_3D-4" data-name="3D" transform="translate(24 41)" fill="#fff" font-size="35" font-family="KhmerMN, Khmer MN"><tspan x="0" y="0">3D</tspan></text>
      </g>
    </g>
  </g>
</svg>
