<svg xmlns="http://www.w3.org/2000/svg" width="82" height="82" viewBox="0 0 82 82">
  <g id="mobile" transform="translate(-4514 -4428)">
    <g id="ux" transform="translate(-7 -119)">
      <g id="musinc-note" transform="translate(77 -101)">
        <g id="music-icon" transform="translate(108)">
          <rect id="Rectangle_4" data-name="Rectangle 4" width="82" height="82" rx="28" transform="translate(4336 4648)" fill="#9d3f3f"/>
        </g>
      </g>
    </g>
    <g id="mobile-2" data-name="mobile" transform="translate(4526 4441.78)">
      <path id="Path_87" data-name="Path 87" d="M31.794,6.088A1.294,1.294,0,1,0,30.5,4.794,1.294,1.294,0,0,0,31.794,6.088Zm0-1.726a.431.431,0,1,1-.431.431A.431.431,0,0,1,31.794,4.363Z" transform="translate(-2.264 -0.48)" fill="#fafafa"/>
      <path id="Path_88" data-name="Path 88" d="M31.794,28.088A1.294,1.294,0,1,0,30.5,26.794,1.294,1.294,0,0,0,31.794,28.088Zm0-1.726a.431.431,0,1,1-.431.431A.431.431,0,0,1,31.794,26.363Z" transform="translate(-2.264 -3.498)" fill="#fafafa"/>
      <circle id="Ellipse_7" data-name="Ellipse 7" cx="1" cy="1" r="1" transform="translate(32 3.22)" fill="#fafafa"/>
      <circle id="Ellipse_8" data-name="Ellipse 8" cx="1" cy="1" r="1" transform="translate(25 3.22)" fill="#fafafa"/>
      <path id="Path_89" data-name="Path 89" d="M19.177,55.22H39.884A4.314,4.314,0,0,0,44.2,50.906V4.314A4.314,4.314,0,0,0,39.884,0H19.177a4.314,4.314,0,0,0-4.314,4.314V7.765A.863.863,0,0,0,14,8.628v3.451a.863.863,0,0,0,.863.863v1.726a.863.863,0,0,0-.863.863v3.451a.863.863,0,0,0,.863.863V50.906a4.314,4.314,0,0,0,4.314,4.314Zm0-53.495H39.884a2.588,2.588,0,0,1,2.588,2.157H39.884a3.745,3.745,0,0,0-2.89,1.424,2.977,2.977,0,0,1-2.286,1.165H24.354a2.977,2.977,0,0,1-2.286-1.165,3.745,3.745,0,0,0-2.89-1.424H16.632a2.588,2.588,0,0,1,2.545-2.157ZM39.884,53.495H19.177a2.588,2.588,0,0,1-2.588-2.588V4.745h2.588A2.977,2.977,0,0,1,21.463,5.91a3.745,3.745,0,0,0,2.89,1.424H34.708A3.745,3.745,0,0,0,37.6,5.91a2.977,2.977,0,0,1,2.286-1.165h2.588V50.906a2.588,2.588,0,0,1-2.588,2.588Z" fill="#fafafa"/>
      <path id="Path_90" data-name="Path 90" d="M37.064,53.719a6.264,6.264,0,0,1-2.433.388c-1.544,0-2.588-.716-2.588-1.726a.431.431,0,1,0-.863,0c0,1.536,1.432,2.588,3.451,2.588a6.782,6.782,0,0,0,2.813-.483.431.431,0,0,0-.38-.768Z" transform="translate(-2.357 -7.127)" fill="#fafafa"/>
      <path id="Path_91" data-name="Path 91" d="M36.171,55.934a7.746,7.746,0,0,1-4.953-.362.431.431,0,0,0-.587.173.44.44,0,0,0,.173.587,6.445,6.445,0,0,0,3.132.682,13.606,13.606,0,0,0,2.39-.216.438.438,0,1,0-.155-.863Z" transform="translate(-2.275 -7.616)" fill="#fafafa"/>
      <path id="Path_92" data-name="Path 92" d="M37.485,51.183a.44.44,0,0,0-.578.181,1.5,1.5,0,0,1-1.363.647c-1.6,0-1.881-.561-2.192-1.217a2.088,2.088,0,0,0-2.174-1.406,2.5,2.5,0,0,0-2.588,2.588,4.426,4.426,0,0,0,.1.966.431.431,0,0,0,.423.336H29.2a.431.431,0,0,0,.336-.509,3.84,3.84,0,0,1-.086-.785,1.648,1.648,0,0,1,1.726-1.726,1.26,1.26,0,0,1,1.4.923c.345.716.863,1.726,2.968,1.726A2.33,2.33,0,0,0,37.675,51.8a.44.44,0,0,0-.19-.613Z" transform="translate(-2.001 -6.774)" fill="#fafafa"/>
      <path id="Path_93" data-name="Path 93" d="M33.078,56.466c-3.926,0-5.686-2.416-5.686-4.806a3.736,3.736,0,0,1,3.5-3.934,4.021,4.021,0,0,1,3.952,2.7.431.431,0,0,0,.535.293.44.44,0,0,0,.293-.535A4.944,4.944,0,0,0,30.9,46.82a4.59,4.59,0,0,0-4.366,4.8c0,3.339,2.692,5.669,6.549,5.669a.431.431,0,0,0,.431-.431.44.44,0,0,0-.431-.388Z" transform="translate(-1.718 -6.423)" fill="#fafafa"/>
      <path id="Path_94" data-name="Path 94" d="M26.452,44.521a.466.466,0,0,0,.216-.052,8.231,8.231,0,0,1,5.807-.751.431.431,0,0,0,.518-.336.423.423,0,0,0-.328-.509,9.206,9.206,0,0,0-6.419.863.431.431,0,0,0-.164.587A.423.423,0,0,0,26.452,44.521Z" transform="translate(-1.65 -5.849)" fill="#fafafa"/>
      <path id="Path_95" data-name="Path 95" d="M35.692,44.022a.423.423,0,0,0,.19.578,4.746,4.746,0,0,1,1.6,1.217.414.414,0,0,0,.345.173.423.423,0,0,0,.259-.086.44.44,0,0,0,.086-.6,5.47,5.47,0,0,0-1.9-1.467.423.423,0,0,0-.578.19Z" transform="translate(-2.969 -6.006)" fill="#fafafa"/>
      <path id="Path_96" data-name="Path 96" d="M28.944,40.756a.441.441,0,0,0,.181.863,8.628,8.628,0,0,1,6.221.811.423.423,0,0,0,.242.078.414.414,0,0,0,.354-.2.423.423,0,0,0-.121-.6A9.275,9.275,0,0,0,28.944,40.756Z" transform="translate(-2.002 -5.553)" fill="#fafafa"/>
      <path id="Path_97" data-name="Path 97" d="M26.573,46.984a.44.44,0,0,0-.613.052,7.049,7.049,0,0,0-1.1,1.855.44.44,0,0,0,.242.561.543.543,0,0,0,.164,0,.431.431,0,0,0,.4-.267,6.04,6.04,0,0,1,.958-1.6A.431.431,0,0,0,26.573,46.984Z" transform="translate(-1.485 -6.432)" fill="#fafafa"/>
      <path id="Path_98" data-name="Path 98" d="M30.8,44.829a6.161,6.161,0,0,0-1.406.155.442.442,0,1,0,.19.863,5.591,5.591,0,0,1,1.217-.138,6.54,6.54,0,0,1,5.738,2.847.44.44,0,0,0,.38.216.509.509,0,0,0,.216-.06.431.431,0,0,0,.155-.587,7.4,7.4,0,0,0-6.488-3.3Z" transform="translate(-2.064 -6.149)" fill="#fafafa"/>
      <path id="Path_99" data-name="Path 99" d="M28.794,29.168h5.177a1.294,1.294,0,0,0,1.294-1.294V22.7A1.3,1.3,0,0,0,34.4,21.48V17.52a3.02,3.02,0,0,0-6.04,0v1.726a.431.431,0,1,0,.863,0V17.52a2.157,2.157,0,0,1,4.314,0V21.4H28.794A1.294,1.294,0,0,0,27.5,22.7v5.177A1.294,1.294,0,0,0,28.794,29.168ZM28.363,22.7a.431.431,0,0,1,.431-.431h5.177a.431.431,0,0,1,.431.431v5.177a.431.431,0,0,1-.431.431H28.794a.431.431,0,0,1-.431-.431Z" transform="translate(-1.852 -1.989)" fill="#fafafa"/>
    </g>
  </g>
</svg>
