<svg xmlns="http://www.w3.org/2000/svg" width="82" height="82" viewBox="0 0 82 82">
  <g id="musinc-note" transform="translate(-4444 -4648)">
    <g id="music-icon" transform="translate(108)">
      <rect id="Rectangle_4" data-name="Rectangle 4" width="82" height="82" rx="28" transform="translate(4336 4648)" fill="#2d6f98"/>
    </g>
    <g id="music-note" transform="translate(4465.786 4668.886)">
      <path id="Path_54" data-name="Path 54" d="M6.75,6.016A2.2,2.2,0,0,1,8.74,3.831L28.5,1.974a2.2,2.2,0,0,1,2.4,2.186V8.948a2.2,2.2,0,0,1-1.979,2.185L9.162,13.092A2.2,2.2,0,0,1,6.75,10.908Z" transform="translate(4.781 0)" fill="#fbfbfb" fill-rule="evenodd"/>
      <ellipse id="Ellipse_5" data-name="Ellipse 5" cx="6.586" cy="5.488" rx="6.586" ry="5.488" transform="translate(22.507 25.093)" fill="#fbfbfb"/>
      <ellipse id="Ellipse_6" data-name="Ellipse 6" cx="6.586" cy="5.488" rx="6.586" ry="5.488" transform="translate(2.75 27.289)" fill="#fbfbfb"/>
      <path id="Path_55" data-name="Path 55" d="M15.75,5h4.39V26.952H15.75Z" transform="translate(15.538 3.629)" fill="#fbfbfb" fill-rule="evenodd"/>
      <path id="Path_56" data-name="Path 56" d="M6.75,6h4.39V27.952H6.75Z" transform="translate(4.781 4.824)" fill="#fbfbfb" fill-rule="evenodd"/>
    </g>
  </g>
</svg>
