<svg xmlns="http://www.w3.org/2000/svg" xmlns:xlink="http://www.w3.org/1999/xlink" width="82" height="82" viewBox="0 0 82 82">
  <defs>
    <filter id="Path_78" x="19.857" y="12.078" width="23.997" height="49.143" filterUnits="userSpaceOnUse">
      <feOffset dy="3" input="SourceAlpha"/>
      <feGaussianBlur stdDeviation="3" result="blur"/>
      <feFlood flood-opacity="0.161"/>
      <feComposite operator="in" in2="blur"/>
      <feComposite in="SourceGraphic"/>
    </filter>
    <filter id="Path_85">
      <feOffset dy="3" input="SourceAlpha"/>
      <feGaussianBlur stdDeviation="3" result="blur-2"/>
      <feFlood flood-opacity="0.161" result="color"/>
      <feComposite operator="out" in="SourceGraphic" in2="blur-2"/>
      <feComposite operator="in" in="color"/>
      <feComposite operator="in" in2="SourceGraphic"/>
    </filter>
  </defs>
  <g id="ux" transform="translate(-4521 -4547)">
    <g id="musinc-note" transform="translate(77 -101)">
      <g id="music-icon" transform="translate(108)">
        <rect id="Rectangle_4" data-name="Rectangle 4" width="82" height="82" rx="28" transform="translate(4336 4648)" fill="#2d9890"/>
      </g>
    </g>
    <g id="ux-2" data-name="ux" transform="translate(4534.425 4521.876)">
      <path id="Path_77" data-name="Path 77" d="M48.469,139.139v21.008H3.828A3.826,3.826,0,0,1,0,156.32c0-2.114,7.654-28.448,7.654-28.448H48.469v11.267Z" transform="translate(0 -75.55)" fill="#ccc"/>
      <g transform="matrix(1, 0, 0, 1, -13.42, 25.12)" filter="url(#Path_78)">
        <path id="Path_78-2" data-name="Path 78" d="M143.274,51.868V43.2h6V74.345h-6V51.868Z" transform="translate(-114.42 -25.12)" fill="#fbfbfb"/>
      </g>
      <g id="Group_24" data-name="Group 24" transform="translate(15.433 46.298)">
        <rect id="Rectangle_5" data-name="Rectangle 5" width="2.321" height="1.934" transform="translate(0 0)" fill="#898988"/>
        <rect id="Rectangle_6" data-name="Rectangle 6" width="2.321" height="1.934" transform="translate(0 13.811)" fill="#898988"/>
        <rect id="Rectangle_7" data-name="Rectangle 7" width="2.321" height="1.934" transform="translate(0 9.205)" fill="#898988"/>
        <rect id="Rectangle_8" data-name="Rectangle 8" width="2.321" height="1.934" transform="translate(0 4.603)" fill="#898988"/>
        <rect id="Rectangle_9" data-name="Rectangle 9" width="2.321" height="1.934" transform="translate(0 23.017)" fill="#898988"/>
        <rect id="Rectangle_10" data-name="Rectangle 10" width="2.321" height="1.934" transform="translate(0 18.413)" fill="#898988"/>
      </g>
      <g id="Group_25" data-name="Group 25" transform="translate(35.815 56.472)">
        <path id="Path_79" data-name="Path 79" d="M348.083,199.43h.045a8.025,8.025,0,0,1-.832,3.559H332.956c.49-1.135-.458-2.346-.458-3.558Z" transform="translate(-332.498 -195.872)" fill="#c93333"/>
        <path id="Path_80" data-name="Path 80" d="M332.5,169.956c0-1.211.948-2.422.458-3.557H347.3a8.024,8.024,0,0,1,.832,3.558H332.5Z" transform="translate(-332.498 -166.398)" fill="#c93333"/>
      </g>
      <path id="Path_86" data-name="Path 86" d="M0,0H16.779V1.29H0Z" transform="translate(35.815 59.385)" fill="#fbfbfb"/>
      <path id="Path_81" data-name="Path 81" d="M470.382,166.4a8.029,8.029,0,0,1,0,7.117H466.29a8.029,8.029,0,0,0,0-7.117Z" transform="translate(-416.063 -109.927)" fill="#2d6f98"/>
      <path id="Path_82" data-name="Path 82" d="M290.287,181.9c.364.539,2.032,1.189,2.032,1.888s-1.667,1.349-2.032,1.889l-2.818-1.889Z" transform="translate(-256.504 -123.761)" fill="#707070"/>
      <path id="Path_83" data-name="Path 83" d="M316.119,166.4a8.962,8.962,0,0,1,0,7.115h0l-2.49-1.67a3.388,3.388,0,0,0,0-3.777l2.49-1.67Z" transform="translate(-279.846 -109.926)" fill="#f2f2f2"/>
      <path id="Path_84" data-name="Path 84" d="M7.654,64.458v24.62H3.828A3.828,3.828,0,0,0,0,92.906V60.631A3.826,3.826,0,0,1,3.828,56.8H7.654Z" transform="translate(0 -12.136)" fill="#e6e6e6"/>
      <g data-type="innerShadowGroup">
        <path id="Path_85-2" data-name="Path 85" d="M260.748,287.2H238.826V265.279l17.34,17.34Zm-18.2-3.72h9.22l-9.22-9.22Z" transform="translate(-213.101 -198.156)" fill="#2d6f98"/>
        <g transform="matrix(1, 0, 0, 1, -13.42, 25.12)" filter="url(#Path_85)">
          <path id="Path_85-3" data-name="Path 85" d="M260.748,287.2H238.826V265.279l17.34,17.34Zm-18.2-3.72h9.22l-9.22-9.22Z" transform="translate(-199.68 -223.28)" fill="#fff"/>
        </g>
      </g>
    </g>
  </g>
</svg>
