<svg xmlns="http://www.w3.org/2000/svg" width="82" height="82" viewBox="0 0 82 82">
  <g id="web" transform="translate(-4304 -4323)">
    <g id="mobile" transform="translate(-210 -105)">
      <g id="ux" transform="translate(-7 -119)">
        <g id="musinc-note" transform="translate(77 -101)">
          <g id="music-icon" transform="translate(108)">
            <rect id="Rectangle_4" data-name="Rectangle 4" width="82" height="82" rx="28" transform="translate(4336 4648)" fill="#6e90b2"/>
          </g>
        </g>
      </g>
    </g>
    <g id="web-2" data-name="web" transform="translate(4315.252 4334.255)">
      <path id="Path_100" data-name="Path 100" d="M29.726,0A29.724,29.724,0,1,0,40.268,57.525a.927.927,0,0,0-.65-1.737,27.866,27.866,0,0,1-35.9-15.977c4.914,6.771,14.054,11.063,25.21,11.276a3.715,3.715,0,0,0,3.585,2.787H34.37a3.715,3.715,0,0,0,0-7.431H32.512a3.715,3.715,0,0,0-3.576,2.787c-13.209-.251-23.361-6.5-26.306-15.744A22.116,22.116,0,0,0,10.4,37.155a39.8,39.8,0,0,0,1.17,4.83.474.474,0,0,0,.446.325h.139a.474.474,0,0,0,.307-.585,36.225,36.225,0,0,1-1.068-4.291,62.931,62.931,0,0,0,9.047,1.579h0c.214,1.988.492,3.9.845,5.7a.474.474,0,0,0,.455.372h.093a.455.455,0,0,0,.362-.548,78.026,78.026,0,0,1-1.31-14.3h3.27a.464.464,0,1,0,0-.929H20.9a77.124,77.124,0,0,1,.418-7.942c2.527-.26,5.192-.4,7.942-.418v6.92a.464.464,0,1,0,.929,0V20.9a77.308,77.308,0,0,1,7.951.418c.149,1.523.269,3.093.334,4.709a.464.464,0,0,0,.483.446.474.474,0,0,0,.446-.483c-.065-1.579-.176-3.1-.316-4.57a60.637,60.637,0,0,1,9.149,1.691,41.279,41.279,0,0,1,.52,6.149H47.374a.464.464,0,1,0,0,.929H57.592A27.866,27.866,0,0,1,55.8,39.616a.927.927,0,1,0,1.737.65A29.724,29.724,0,0,0,29.726,0Zm2.787,48.3H34.37a1.858,1.858,0,1,1,0,3.715H32.512a1.858,1.858,0,1,1,0-3.715ZM56.329,21.429a24.522,24.522,0,0,0-10.115-8.193A24.522,24.522,0,0,0,38.021,3.121,28,28,0,0,1,56.329,21.429ZM57.4,26.5c-1.663-1.635-4.561-3.056-8.36-4.152a37.443,37.443,0,0,0-2.266-7.812c5.062,2.573,8.806,6.27,10.4,10.524A14.526,14.526,0,0,1,57.4,26.5ZM1.86,29.259a9.863,9.863,0,0,1,.046-1.17c1.133-1.811,4.133-3.446,8.36-4.7a41.615,41.615,0,0,0-.464,5.87Zm.186-2.787c.056-.483.121-.929.2-1.44,1.6-4.254,5.341-7.951,10.4-10.524a37.443,37.443,0,0,0-2.266,7.812c-3.771,1.124-6.669,2.545-8.332,4.18Zm11.89-12.54a35.827,35.827,0,0,1,8.146-2.527,61.824,61.824,0,0,0-1.644,9.029,61.824,61.824,0,0,0-9.056,1.616,35.827,35.827,0,0,1,2.554-8.118Zm.613-1.263C17.112,7.6,20.809,3.855,25.081,2.257c.474-.084.929-.149,1.44-.2-1.635,1.663-3.056,4.561-4.152,8.36a37.443,37.443,0,0,0-7.83,2.248ZM28.091,1.913a9.863,9.863,0,0,0,1.17-.046v7.9a41.614,41.614,0,0,0-5.87.464C24.645,6.047,26.28,3.047,28.091,1.913Zm2.1-.056a9.631,9.631,0,0,1,1.161.046c1.858,1.143,3.455,4.124,4.709,8.36A41.614,41.614,0,0,0,30.19,9.8Zm2.787.186c.483.056.929.121,1.44.2,4.254,1.6,7.951,5.341,10.524,10.4a38.018,38.018,0,0,0-7.812-2.266C36,6.595,34.574,3.715,32.949,2.053ZM21.431,3.121a24.522,24.522,0,0,0-8.193,10.115A24.522,24.522,0,0,0,3.123,21.429,28,28,0,0,1,21.431,3.121ZM2.166,31.7c-.1-.5-.186-1-.242-1.514h7.84a42.07,42.07,0,0,0,.455,5.87C6.29,34.87,3.439,33.356,2.166,31.7Zm18.206,6.381a59.633,59.633,0,0,1-9.159-1.7,40.6,40.6,0,0,1-.52-6.158h9.289C19.991,32.863,20.121,35.5,20.372,38.084Zm-.4-8.824H10.684a41.278,41.278,0,0,1,.52-6.149,60.638,60.638,0,0,1,9.149-1.691C20.121,23.9,19.991,26.529,19.973,29.259Zm1.449-8.9a60.637,60.637,0,0,1,1.691-9.149,41.278,41.278,0,0,1,6.149-.52V19.98C26.53,19.989,23.9,20.119,21.422,20.361Zm8.769-.39V10.682a41.5,41.5,0,0,1,6.158.52,61.6,61.6,0,0,1,1.737,9.159Q34.282,20,30.19,19.971Zm8.824.464A61.157,61.157,0,0,0,37.4,11.379a35.827,35.827,0,0,1,8.118,2.554,35.827,35.827,0,0,1,2.527,8.146,61.823,61.823,0,0,0-9.029-1.644ZM49.232,23.37c4.18,1.254,7.18,2.889,8.313,4.7a9.864,9.864,0,0,0,.046,1.17H49.7a41.613,41.613,0,0,0-.464-5.852Z" transform="translate(0 0)" fill="#fbfbfb"/>
      <path id="Path_101" data-name="Path 101" d="M32.07,42.06A10.3,10.3,0,1,1,46.644,56.625a.926.926,0,1,0,1.319,1.3A12.159,12.159,0,0,0,30.769,40.75a.923.923,0,1,0,1.3,1.31Z" transform="translate(-2.167 -2.667)" fill="#dd6464"/>
      <path id="Path_102" data-name="Path 102" d="M50.167,37.773a15.93,15.93,0,0,1,.084,22.367.933.933,0,1,0,1.319,1.319A17.741,17.741,0,0,0,26.49,36.38a.953.953,0,1,0,1.384,1.31,15.93,15.93,0,0,1,22.293.084Z" transform="translate(-1.864 -2.244)" fill="#eb5f5f"/>
      <path id="Path_103" data-name="Path 103" d="M43.018,54.436a.929.929,0,0,0,1.319,0,6.586,6.586,0,0,0-9.289-9.289.933.933,0,0,0,1.291,1.347,4.728,4.728,0,0,1,6.679,6.679A.929.929,0,0,0,43.018,54.436Z" transform="translate(-2.471 -3.097)" fill="#dd6464"/>
    </g>
  </g>
</svg>
