<svg xmlns="http://www.w3.org/2000/svg" xmlns:xlink="http://www.w3.org/1999/xlink" width="707.203" height="705.17" viewBox="0 0 707.203 705.17">
  <defs>
    <filter id="Path_125" x="317.833" y="167.788" width="294.146" height="241.309" filterUnits="userSpaceOnUse">
      <feOffset dy="3" input="SourceAlpha"/>
      <feGaussianBlur stdDeviation="3" result="blur"/>
      <feFlood flood-color="#e2d3d3" flood-opacity="0.161"/>
      <feComposite operator="in" in2="blur"/>
      <feComposite in="SourceGraphic"/>
    </filter>
    <filter id="Path_178" x="500.592" y="53.793" width="132.008" height="116.898" filterUnits="userSpaceOnUse">
      <feOffset dy="3" input="SourceAlpha"/>
      <feGaussianBlur stdDeviation="3" result="blur-2"/>
      <feFlood flood-opacity="0.161"/>
      <feComposite operator="in" in2="blur-2"/>
      <feComposite in="SourceGraphic"/>
    </filter>
    <filter id="Path_6" x="326.006" y="60.257" width="331.133" height="464.4" filterUnits="userSpaceOnUse">
      <feOffset dx="12" dy="12" input="SourceAlpha"/>
      <feGaussianBlur stdDeviation="6" result="blur-3"/>
      <feFlood flood-opacity="0.161"/>
      <feComposite operator="in" in2="blur-3"/>
      <feComposite in="SourceGraphic"/>
    </filter>
    <filter id="Path_8" x="326.291" y="62.687" width="287.036" height="462.731" filterUnits="userSpaceOnUse">
      <feOffset dx="12" dy="12" input="SourceAlpha"/>
      <feGaussianBlur stdDeviation="6" result="blur-4"/>
      <feFlood flood-opacity="0.161"/>
      <feComposite operator="in" in2="blur-4"/>
      <feComposite in="SourceGraphic"/>
    </filter>
    <filter id="Path_10" x="36.476" y="65.894" width="309.657" height="457.265" filterUnits="userSpaceOnUse">
      <feOffset dx="12" dy="12" input="SourceAlpha"/>
      <feGaussianBlur stdDeviation="6" result="blur-5"/>
      <feFlood flood-opacity="0.161"/>
      <feComposite operator="in" in2="blur-5"/>
      <feComposite in="SourceGraphic"/>
    </filter>
    <filter id="Path_11" x="66.393" y="67.042" width="279.727" height="459.289" filterUnits="userSpaceOnUse">
      <feOffset dx="12" dy="12" input="SourceAlpha"/>
      <feGaussianBlur stdDeviation="6" result="blur-6"/>
      <feFlood flood-opacity="0.161"/>
      <feComposite operator="in" in2="blur-6"/>
      <feComposite in="SourceGraphic"/>
    </filter>
    <filter id="Create" x="104.756" y="255.114" width="66.497" height="86.908" filterUnits="userSpaceOnUse">
      <feOffset dy="3" input="SourceAlpha"/>
      <feGaussianBlur stdDeviation="3" result="blur-7"/>
      <feFlood flood-opacity="0.161"/>
      <feComposite operator="in" in2="blur-7"/>
      <feComposite in="SourceGraphic"/>
    </filter>
    <filter id="Innovate" x="168.556" y="240.249" width="67.613" height="102.87" filterUnits="userSpaceOnUse">
      <feOffset dy="3" input="SourceAlpha"/>
      <feGaussianBlur stdDeviation="3" result="blur-8"/>
      <feFlood flood-opacity="0.161"/>
      <feComposite operator="in" in2="blur-8"/>
      <feComposite in="SourceGraphic"/>
    </filter>
    <filter id="Execute_" x="525.417" y="231.111" width="125.959" height="113.898" filterUnits="userSpaceOnUse">
      <feOffset dy="3" input="SourceAlpha"/>
      <feGaussianBlur stdDeviation="3" result="blur-9"/>
      <feFlood flood-opacity="0.161"/>
      <feComposite operator="in" in2="blur-9"/>
      <feComposite in="SourceGraphic"/>
    </filter>
    <filter id="Path_116" x="434.805" y="279.279" width="162.651" height="238.795" filterUnits="userSpaceOnUse">
      <feOffset dy="3" input="SourceAlpha"/>
      <feGaussianBlur stdDeviation="3" result="blur-10"/>
      <feFlood flood-opacity="0.161"/>
      <feComposite operator="in" in2="blur-10"/>
      <feComposite in="SourceGraphic"/>
    </filter>
    <filter id="Path_117" x="410.697" y="293.199" width="162.651" height="238.795" filterUnits="userSpaceOnUse">
      <feOffset dy="3" input="SourceAlpha"/>
      <feGaussianBlur stdDeviation="3" result="blur-11"/>
      <feFlood flood-opacity="0.161"/>
      <feComposite operator="in" in2="blur-11"/>
      <feComposite in="SourceGraphic"/>
    </filter>
    <filter id="Path_190" x="200.667" y="230.833" width="231.441" height="263.241" filterUnits="userSpaceOnUse">
      <feOffset dy="3" input="SourceAlpha"/>
      <feGaussianBlur stdDeviation="3" result="blur-12"/>
      <feFlood flood-opacity="0.161"/>
      <feComposite operator="in" in2="blur-12"/>
      <feComposite in="SourceGraphic"/>
    </filter>
    <filter id="Path_227" x="333.784" y="286.509" width="80.539" height="50.457" filterUnits="userSpaceOnUse">
      <feOffset dy="6" input="SourceAlpha"/>
      <feGaussianBlur stdDeviation="3" result="blur-13"/>
      <feFlood flood-opacity="0.161"/>
      <feComposite operator="in" in2="blur-13"/>
      <feComposite in="SourceGraphic"/>
    </filter>
    <linearGradient id="linear-gradient" x1="0.5" x2="0.5" y2="1" gradientUnits="objectBoundingBox">
      <stop offset="0" stop-color="#fff"/>
      <stop offset="1" stop-color="gray" stop-opacity="0.133"/>
    </linearGradient>
  </defs>
  <g id="Group_30" data-name="Group 30" transform="translate(-4877.664 -6982.83)">
    <g id="Group_29" data-name="Group 29" transform="translate(4895.646 6981.424)">
      <g id="main-graphic">
        <g id="techstack">
          <path id="hive" d="M227.623,209.607h8.722v8.568h-8.722Zm-16.335-31.136-4.361,6.994,20.7,11.064v9.246h8.722V191.867Zm-79.995,31.136h8.722v8.568h-8.722Zm-16.334-31.136-4.361,6.994,20.7,11.064v9.246h8.722V191.867ZM227.623,55.1h8.722v8.568h-8.722ZM211.287,23.966l-4.361,6.994,20.7,11.064V51.27h8.722V37.361ZM131.293,55.1h8.722v8.568h-8.722ZM114.959,23.966,110.6,30.96l20.7,11.064V51.27h8.722V37.361ZM275.785,132.347h8.722v8.568h-8.722Zm-16.334-31.138L255.09,108.2l20.7,11.064v9.246h8.722V114.6Zm-8.909-20.441V29.275L198.017,1.193l-48.164,25.75L101.689,1.193,49.164,29.275V80.768L1,106.518v56.163l48.164,25.75v51.512l52.525,28.082,48.164-25.75,48.164,25.75,52.525-28.082V188.431l48.164-25.75V106.518Zm-96.328-46.83,43.8-23.419,43.8,23.419v46.83l-43.8,23.419-43.8-23.419V33.937Zm-96.328,0,43.8-23.419,43.8,23.419v46.83l-43.8,23.419-43.8-23.419V33.937ZM9.722,158.018V111.181l43.8-23.415,43.809,23.422v46.831l-43.8,23.418-43.8-23.418Zm135.77,77.262-43.8,23.419-43.8-23.419V188.443l43.8-23.419,43.8,23.419ZM106.05,158.017V111.187l43.8-23.418,43.8,23.419v46.831l-43.8,23.418ZM198.017,258.7l-43.8-23.419V188.443l43.8-23.419,43.8,23.419V235.28h0l-43.8,23.419Zm91.967-100.68-43.8,23.419-43.8-23.419V111.187l43.809-23.422,43.8,23.415ZM179.455,132.347h8.722v8.568h-8.722Zm-16.331-31.138-4.361,6.994,20.695,11.064v9.246h8.722V114.6ZM83.131,132.347h8.722v8.568H83.131ZM66.8,101.209,62.434,108.2l20.7,11.064v9.246h8.722V114.6Z" transform="translate(-1 67.427)" fill="#5885a2" stroke="#707070" stroke-width="0.1"/>
          <path id="nodejs" d="M30.044,62.66a4.934,4.934,0,0,1-2.345-.613l-7.407-4.4c-1.109-.617-.553-.841-.219-.954a13.559,13.559,0,0,0,3.344-1.5.516.516,0,0,1,.562.052l5.679,3.4a.725.725,0,0,0,.671,0L52.557,45.784a.635.635,0,0,0,.334-.613V19.484a.633.633,0,0,0-.334-.61L30.329,6.06a.708.708,0,0,0-.671,0L7.424,18.87a.7.7,0,0,0-.334.61V45.164a.7.7,0,0,0,.334.613L13.5,49.292c3.286,1.664,5.351-.289,5.351-2.232V21.713a.678.678,0,0,1,.668-.671H22.36a.682.682,0,0,1,.668.671v25.35c0,4.4-2.393,6.967-6.572,6.967-1.282,0-2.284,0-5.126-1.4L5.484,49.295a4.707,4.707,0,0,1-2.342-4.07V19.538a4.7,4.7,0,0,1,2.342-4.067L27.7,2.6a4.972,4.972,0,0,1,4.689,0L54.613,15.472a4.687,4.687,0,0,1,2.342,4.067V45.225a4.713,4.713,0,0,1-2.342,4.07L32.391,62.159a5.765,5.765,0,0,1-2.348.5ZM36.9,45c-9.749,0-11.753-4.458-11.753-8.242a.68.68,0,0,1,.668-.671h2.9a.57.57,0,0,1,.61.559c.446,2.949,1.725,4.4,7.635,4.4,4.677,0,6.687-1.063,6.687-3.568,0-1.449-.562-2.506-7.857-3.228-6.071-.607-9.858-1.953-9.858-6.8,0-4.51,3.787-7.186,10.14-7.186,7.128,0,10.639,2.457,11.082,7.8a.9.9,0,0,1-.17.5.693.693,0,0,1-.443.222H43.64a.644.644,0,0,1-.613-.5c-.671-3.073-2.4-4.07-6.961-4.07-5.129,0-5.743,1.783-5.743,3.119,0,1.613.72,2.114,7.635,3.007,6.851.89,10.083,2.171,10.083,6.967C47.98,42.216,43.974,45,36.9,45Z" transform="translate(22.681 171.618)" fill="#fff" opacity="0.356"/>
          <path id="js-logo" d="M50.675,5H5V50.675H50.675ZM27.915,38.974c0,3.842-2.287,6.079-6.231,6.079-3.766,0-6.053-2.237-6.155-5.662v-.1h3.7v.076a2.292,2.292,0,0,0,2.4,2.388c1.618,0,2.465-.973,2.465-2.806v-12.6h3.817Zm17.551.177c0,3.614-2.806,5.9-7.355,5.9-4.36,0-7.115-2.085-7.33-5.321l-.013-.2h3.678l.012.126c.139,1.365,1.618,2.288,3.754,2.288,2.035,0,3.438-.973,3.438-2.376v-.013c0-1.2-.9-1.87-3.159-2.338l-1.921-.392c-3.791-.771-5.422-2.54-5.422-5.308V31.5c0-3.387,2.907-5.624,6.951-5.624,4.259,0,6.761,2.25,7,5.3l.013.164H41.523l-.025-.152c-.215-1.3-1.479-2.212-3.4-2.212-1.883.012-3.134.872-3.134,2.237v.012c0,1.188.885,1.9,3.033,2.338l1.934.392c3.855.8,5.536,2.338,5.536,5.182Z" transform="translate(238.314 172.651)" fill="#426980" fill-rule="evenodd"/>
          <g id="react" transform="translate(62.55 100.755)" opacity="0.362">
            <path id="Path_237" data-name="Path 237" d="M67.664,32.873c0-4.572-5.293-8.421-13.715-10.827,2.165-8.421,1.444-14.918-2.406-17.324A6.66,6.66,0,0,0,48.415,4c-3.609,0-8.421,2.647-13.233,7.218C30.37,6.647,25.8,4,21.948,4a6.66,6.66,0,0,0-3.128.722c-3.609,2.406-4.331,8.9-2.406,17.324C8.234,24.452,2.7,28.542,2.7,32.873c0,4.572,5.293,8.421,13.715,10.827-1.925,8.421-1.2,15.158,2.647,17.324a6.66,6.66,0,0,0,3.128.722c3.609,0,8.421-2.647,13.233-7.218,4.812,4.572,9.384,7.218,13.233,7.218a6.66,6.66,0,0,0,3.128-.722c3.85-2.165,4.572-8.9,2.647-17.324C62.37,41.294,67.664,37.2,67.664,32.873ZM48.415,7.128c.722,0,1.2,0,1.444.481,1.925.962,2.647,4.812,1.925,9.865-.241,1.2-.481,2.647-.722,3.85a76.361,76.361,0,0,0-8.421-1.444,47.8,47.8,0,0,0-5.293-6.5C41.678,9.293,45.768,7.128,48.415,7.128Zm-4.331,30.8a33.047,33.047,0,0,1-3.128,4.812,46.362,46.362,0,0,1-5.775.241,46.362,46.362,0,0,1-5.775-.241c-.962-1.444-1.925-3.128-3.128-4.812a50.912,50.912,0,0,1-2.647-5.053,50.911,50.911,0,0,1,2.647-5.053c.962-1.684,2.165-3.368,3.128-5.053a46.362,46.362,0,0,1,5.775-.241,46.362,46.362,0,0,1,5.775.241,46.4,46.4,0,0,1,3.128,5.053,50.912,50.912,0,0,1,2.647,5.053A50.91,50.91,0,0,1,44.084,37.925Zm4.331-1.444c.722,1.684,1.2,3.368,1.684,4.812a37.353,37.353,0,0,1-5.053.962c.481-.962,1.2-1.925,1.684-2.887a11.376,11.376,0,0,0,1.684-2.887ZM35.182,50.2a27.7,27.7,0,0,1-3.368-4.09H38.55A27.7,27.7,0,0,1,35.182,50.2Zm-9.865-7.7a37.356,37.356,0,0,1-5.053-.962c.481-1.684,1.2-3.368,1.684-4.812a17.946,17.946,0,0,0,1.684,2.887A17.946,17.946,0,0,1,25.317,42.5ZM21.948,29.264c-.722-1.684-1.2-3.368-1.925-5.053a34.515,34.515,0,0,1,5.293-.962c-.722.962-1.2,1.925-1.925,2.887A7.457,7.457,0,0,1,21.948,29.264ZM35.182,15.549c1.2,1.2,2.165,2.647,3.368,3.85H31.813A48.178,48.178,0,0,0,35.182,15.549ZM46.731,26.136c-.722-.962-1.2-1.925-1.925-2.887a34.516,34.516,0,0,1,5.293.962,43.377,43.377,0,0,1-1.925,5.053A11.736,11.736,0,0,0,46.731,26.136Zm-27.91-8.9c-.722-5.053,0-8.662,1.925-9.865a3.42,3.42,0,0,1,1.444-.481c2.647,0,6.5,2.165,10.827,6.256a76.976,76.976,0,0,0-5.293,6.5A47.343,47.343,0,0,0,19.3,21.083,21.058,21.058,0,0,1,18.821,17.233ZM13.527,39.369c-4.572-1.925-7.7-4.572-7.7-6.5,0-2.165,2.887-4.572,7.459-6.5a18.031,18.031,0,0,1,3.85-1.2,36.253,36.253,0,0,0,3.128,7.94,61.556,61.556,0,0,0-2.887,7.7c-1.444-.481-2.647-.962-3.85-1.444ZM20.5,58.377c-1.925-.962-2.647-4.812-1.925-9.865.241-1.2.481-2.647.722-4.09,2.647.481,5.293.962,8.181,1.2a76.977,76.977,0,0,0,5.293,6.5c-4.331,4.09-8.181,6.256-10.827,6.256-.481.241-.962,0-1.444,0Zm31.279-9.865c.722,5.053,0,8.662-1.925,9.865a3.42,3.42,0,0,1-1.444.481c-2.647,0-6.5-2.165-10.827-6.256a47.8,47.8,0,0,0,5.293-6.5,73.919,73.919,0,0,0,8.181-1.2q.361,1.444.722,3.609Zm5.293-9.143a18.031,18.031,0,0,1-3.85,1.2,61.555,61.555,0,0,0-2.887-7.7c1.2-2.647,2.165-5.293,3.128-7.94,1.2.481,2.647.722,3.85,1.2,4.572,1.925,7.459,4.331,7.459,6.5-.241,2.165-3.128,4.812-7.7,6.737Z" transform="translate(-2.7 -4)" fill="#fff"/>
            <path id="Path_238" data-name="Path 238" d="M19.815,25.53A6.015,6.015,0,1,0,13.8,19.515,5.957,5.957,0,0,0,19.815,25.53Z" transform="translate(12.907 9.358)" fill="#fff"/>
          </g>
          <path id="python" d="M42.268,13.26a39.622,39.622,0,0,0-6.632.566C29.764,14.864,28.7,17.035,28.7,21.04v5.289H42.575v1.763H23.489a8.665,8.665,0,0,0-8.67,7.036,25.941,25.941,0,0,0,0,14.1c.986,4.109,3.342,7.036,7.376,7.036h4.772V49.928a8.819,8.819,0,0,1,8.67-8.621H49.5a6.992,6.992,0,0,0,6.939-7.052V21.04c0-3.761-3.173-6.586-6.939-7.214a43.286,43.286,0,0,0-7.23-.566Zm-7.505,4.254a2.645,2.645,0,1,1-2.6,2.653A2.633,2.633,0,0,1,34.763,17.514Zm23.4,10.578v6.163a8.9,8.9,0,0,1-8.67,8.8H35.636A7.08,7.08,0,0,0,28.7,50.106V63.321c0,3.761,3.27,5.973,6.939,7.052a23.219,23.219,0,0,0,13.862,0c3.494-1.012,6.939-3.047,6.939-7.052V58.032H42.575V56.269h20.8c4.033,0,5.536-2.813,6.939-7.036,1.449-4.347,1.387-8.528,0-14.1-1-4.015-2.9-7.036-6.939-7.036Zm-7.8,33.466a2.645,2.645,0,1,1-2.6,2.636,2.619,2.619,0,0,1,2.6-2.636Z" transform="translate(143.394 77.74)" fill="#fbfbfb" opacity="0.3"/>
          <g id="iphone" transform="translate(328.046 0) rotate(27)">
            <path id="Path_239" data-name="Path 239" d="M77.075,50.513c0-5.59-3.454-12.094-7.708-14.515L7.708.91C3.453-1.51,0,1.063,0,6.653v136.78c0,5.59,3.453,12.094,7.708,14.515l61.659,35.087c4.254,2.421,7.708-.152,7.708-5.742Z" transform="translate(7.969 0)" fill="#2d6f98"/>
            <path id="Path_240" data-name="Path 240" d="M8.615,0,0,4.908,11.5,8.659,17.8,3.042ZM71.5,197.888l8.612-4.862-5.472-3.091Z" transform="translate(2.358 0.375)" fill="#2d6f98"/>
            <path id="Path_241" data-name="Path 241" d="M77.075,50.513c0-5.59-3.454-12.094-7.708-14.515L7.708.91C3.453-1.51,0,1.063,0,6.653V143.432c0,5.591,3.453,12.1,7.708,14.515l61.659,35.088c4.254,2.421,7.708-.152,7.708-5.743Z" transform="translate(0 4.601)" fill="#295e80"/>
            <path id="Path_242" data-name="Path 242" d="M70.715,46.285c0-5.121-3.168-11.081-7.071-13.3L7.071.834C3.168-1.384,0,.974,0,6.1V137.084c0,5.121,3.168,11.081,7.071,13.3l56.574,32.151c3.9,2.218,7.071-.14,7.071-5.263Z" transform="translate(3.264 9.691)" fill="#fff"/>
            <path id="Path_243" data-name="Path 243" d="M2.335,2.371A2.8,2.8,0,0,0,1.167.14C.523-.232,0,.164,0,1.023v29.3a2.8,2.8,0,0,0,1.167,2.231c.644.373,1.167-.023,1.167-.882Zm0,36.554a2.8,2.8,0,0,0-1.167-2.231C.523,36.323,0,36.719,0,37.578v9.515a2.8,2.8,0,0,0,1.167,2.231c.644.371,1.167-.023,1.167-.882Z" transform="translate(79.687 67.161)" fill="#295e80"/>
            <path id="Path_244" data-name="Path 244" d="M2.335,1.347,0,0V2.243L2.335,3.591Z" transform="translate(79.687 82.835)" fill="#2a546f"/>
            <path id="Path_245" data-name="Path 245" d="M21.7,14.848a6.351,6.351,0,0,0-2.651-5.065L2.653.318C1.189-.527,0,.371,0,2.322A6.352,6.352,0,0,0,2.653,7.388l16.393,9.465C20.509,17.7,21.7,16.8,21.7,14.848Z" transform="translate(27.569 25.957)" fill="#838181"/>
            <path id="Path_246" data-name="Path 246" d="M8.322,5.08a.747.747,0,0,0-.312-.6L.312.038C.14-.062,0,.044,0,.275V3.611a.749.749,0,0,0,.312.6l7.7,4.443c.173.1.312-.005.312-.236ZM51.846,30.207a.749.749,0,0,0-.312-.6L38.782,22.248c-.173-.1-.312.005-.312.236V25.82a.752.752,0,0,0,.312.6L51.534,33.78c.173.1.312-.007.312-.237V30.207Z" transform="translate(6.013 66.23)" fill="#f2f2f2"/>
            <path id="Path_247" data-name="Path 247" d="M5.115,3.226a.749.749,0,0,0-.312-.6L.312.038C.14-.062,0,.043,0,.273V3.61a.747.747,0,0,0,.312.6L4.8,6.8c.173.1.312-.007.312-.237Z" transform="translate(37.549 84.137)" fill="#c93333"/>
            <path id="Path_248" data-name="Path 248" d="M18.128,10.74a.749.749,0,0,0-.312-.6L.314.037C.141-.062,0,.044,0,.274V3.61a.748.748,0,0,0,.314.6l17.5,10.106c.173.1.312-.007.312-.237Z" transform="translate(16.547 72.154)" fill="#f2f2f2"/>
            <path id="Path_249" data-name="Path 249" d="M1.806.246A3.992,3.992,0,0,1,3.612,3.374c0,1.151-.808,1.618-1.806,1.043A4,4,0,0,1,0,1.289C0,.138.81-.329,1.806.246Z" transform="translate(10.205 86.085)" fill="#c93333"/>
            <path id="Path_250" data-name="Path 250" d="M8.323,5.08a.753.753,0,0,0-.314-.6L.312.038C.14-.062,0,.043,0,.273V3.611a.749.749,0,0,0,.312.6l7.7,4.443c.173.1.314-.005.314-.236ZM43.153,25.189a.747.747,0,0,0-.312-.6l-4.356-2.516c-.173-.1-.312.007-.312.237v3.336a.747.747,0,0,0,.312.6l4.356,2.514c.173.1.312-.005.312-.236ZM54.6,31.8a.747.747,0,0,0-.312-.6L46,26.416c-.173-.1-.312.005-.312.236v3.336a.752.752,0,0,0,.312.6l8.282,4.782c.173.1.312-.007.312-.237Z" transform="translate(16.112 88.504)" fill="#f2f2f2"/>
            <path id="Path_251" data-name="Path 251" d="M5.115,3.227a.749.749,0,0,0-.312-.6L.314.037C.141-.062,0,.044,0,.274V3.61a.75.75,0,0,0,.314.6L4.8,6.8c.173.1.312-.007.312-.237Z" transform="translate(46.581 106.061)" fill="#c93333"/>
            <path id="Path_252" data-name="Path 252" d="M18.128,10.741a.747.747,0,0,0-.312-.6L.312.038C.14-.062,0,.044,0,.275V3.611a.749.749,0,0,0,.312.6l17.5,10.1c.173.1.312-.005.312-.236Z" transform="translate(25.764 94.168)" fill="#f2f2f2"/>
            <path id="Path_253" data-name="Path 253" d="M1.806.246A3.992,3.992,0,0,1,3.612,3.373c0,1.151-.808,1.618-1.806,1.043A3.993,3.993,0,0,1,0,1.289C0,.138.81-.329,1.806.246Z" transform="translate(10.205 93.429)" fill="#c93333"/>
            <path id="Path_254" data-name="Path 254" d="M8.323,5.08a.753.753,0,0,0-.314-.6L.312.038C.14-.062,0,.043,0,.273V3.61a.752.752,0,0,0,.312.6l7.7,4.443c.173.1.314-.005.314-.236ZM43.153,25.189a.747.747,0,0,0-.312-.6l-4.356-2.516c-.173-.1-.312.007-.312.237v3.336a.749.749,0,0,0,.312.6l4.356,2.514c.173.1.312-.006.312-.236ZM54.6,31.8a.747.747,0,0,0-.312-.6L46,26.416c-.173-.1-.312.005-.312.236v3.336a.747.747,0,0,0,.312.6l8.282,4.782c.173.1.312-.005.312-.236Z" transform="translate(16.112 95.848)" fill="#f2f2f2"/>
            <path id="Path_255" data-name="Path 255" d="M5.115,3.227a.747.747,0,0,0-.312-.6L.314.038C.141-.062,0,.044,0,.275V3.611a.75.75,0,0,0,.314.6L4.8,6.8c.173.1.312-.007.312-.237Z" transform="translate(46.581 113.404)" fill="#c93333"/>
            <path id="Path_256" data-name="Path 256" d="M18.128,10.741a.752.752,0,0,0-.312-.6L.312.038C.14-.062,0,.044,0,.275V3.611a.749.749,0,0,0,.312.6l17.5,10.1c.173.1.312-.006.312-.236Z" transform="translate(25.764 101.512)" fill="#f2f2f2"/>
            <path id="Path_257" data-name="Path 257" d="M8.322,5.078a.749.749,0,0,0-.312-.6L.312.038C.14-.062,0,.043,0,.273V3.61a.752.752,0,0,0,.312.6l7.7,4.443c.173.1.312-.007.312-.237ZM51.846,30.207a.749.749,0,0,0-.312-.6L38.782,22.247c-.173-.1-.312.007-.312.237V25.82a.747.747,0,0,0,.312.6l12.752,7.363c.173.1.312-.007.312-.237Z" transform="translate(6.013 74.057)" fill="#f2f2f2"/>
            <path id="Path_258" data-name="Path 258" d="M5.115,3.227a.749.749,0,0,0-.312-.6L.312.037C.14-.062,0,.044,0,.274V3.61a.749.749,0,0,0,.312.6L4.8,6.8c.173.1.312-.007.312-.237Z" transform="translate(37.549 91.964)" fill="#c93333"/>
            <path id="Path_259" data-name="Path 259" d="M18.128,10.741a.747.747,0,0,0-.312-.6L.314.038C.141-.062,0,.044,0,.275V3.611a.75.75,0,0,0,.314.6l17.5,10.1c.173.1.312-.005.312-.236Z" transform="translate(16.547 79.981)" fill="#f2f2f2"/>
            <path id="Path_260" data-name="Path 260" d="M7.888,4.828a.749.749,0,0,0-.312-.6L.312.038C.14-.062,0,.043,0,.273V3.61a.747.747,0,0,0,.312.6L7.575,8.4c.173.1.312-.007.312-.237Z" transform="translate(6.013 115.382)" fill="#c93333"/>
            <path id="Path_261" data-name="Path 261" d="M7.888,4.829a.752.752,0,0,0-.312-.6L.312.038C.14-.062,0,.043,0,.273V3.611a.751.751,0,0,0,.312.6L7.575,8.4c.173.1.312-.005.312-.236ZM30.662,17.976a.749.749,0,0,0-.312-.6l-17.5-10.1c-.173-.1-.312.005-.312.236v3.336a.747.747,0,0,0,.312.6l17.5,10.106c.173.1.312-.007.312-.237Z" transform="translate(16.812 121.419)" fill="#f2f2f2"/>
            <path id="Path_262" data-name="Path 262" d="M8.88,5.4a.752.752,0,0,0-.312-.6L.312.038C.14-.062,0,.043,0,.273V3.61a.752.752,0,0,0,.312.6L8.567,8.974c.173.1.312-.005.312-.236Zm11.128,6.424a.747.747,0,0,0-.312-.6L11.44,6.462c-.173-.1-.312.007-.312.237v3.336a.749.749,0,0,0,.312.6L19.7,15.4c.173.1.312-.007.312-.237Z" transform="translate(26.649 111.882)" fill="#c93333"/>
            <path id="Path_263" data-name="Path 263" d="M18.128,10.74a.749.749,0,0,0-.312-.6L.312.038C.14-.062,0,.043,0,.273V3.61a.747.747,0,0,0,.312.6l17.5,10.106c.173.1.312-.007.312-.237V10.74ZM57.385,33.405a.749.749,0,0,0-.312-.6L43.1,24.738c-.173-.1-.312.006-.312.236v3.338a.749.749,0,0,0,.312.6l13.978,8.07c.173.1.312-.007.312-.237Z" transform="translate(6.013 100.231)" fill="#f2f2f2"/>
            <path id="Path_264" data-name="Path 264" d="M8.88,5.4a.749.749,0,0,0-.312-.6L.312.038C.14-.062,0,.043,0,.273V3.61a.752.752,0,0,0,.312.6L8.567,8.974c.173.1.312-.005.312-.236Zm11.128,6.426a.747.747,0,0,0-.312-.6L11.44,6.462c-.173-.1-.312.007-.312.237v3.336a.749.749,0,0,0,.312.6L19.7,15.4c.173.1.312-.005.312-.236Z" transform="translate(26.649 119.818)" fill="#c93333"/>
            <path id="Path_265" data-name="Path 265" d="M18.128,10.74a.749.749,0,0,0-.312-.6L.312.037C.14-.062,0,.044,0,.274V3.61a.747.747,0,0,0,.312.6l17.5,10.106c.173.1.312-.007.312-.237V10.74ZM57.385,33.406a.747.747,0,0,0-.312-.6L43.1,24.739c-.173-.1-.312.005-.312.236V28.31a.752.752,0,0,0,.312.6l13.978,8.07c.173.1.312-.007.312-.237Z" transform="translate(6.013 108.166)" fill="#f2f2f2"/>
          </g>
          <g id="cloud-server" transform="translate(464.953 0.477) rotate(30)">
            <path id="Path_124" data-name="Path 124" d="M86.34,0,0,49.848v83.8L86.34,83.8Z" transform="translate(92.966 144.193)" fill="#4fc1f4"/>
            <g transform="matrix(0.87, -0.5, 0.5, 0.87, -417.77, 242.27)" filter="url(#Path_125)">
              <path id="Path_125-2" data-name="Path 125" d="M125.436,72.491,2.962,1.78C1.327.836,0,1.84,0,4.019V36.807A4.973,4.973,0,0,0,2.074,40.77l120.4,69.512c1.635.944,2.964-.059,2.964-2.239ZM254.989,2.014c0-1.693-1.029-2.471-2.3-1.739L125.436,73.747v33.739c0,2.54,1.546,3.708,3.45,2.609L252.977,38.451a4.822,4.822,0,0,0,2.012-3.846Z" transform="translate(382.15 173.79) rotate(30)" fill="#c4cadd"/>
            </g>
            <path id="Path_126" data-name="Path 126" d="M99.542,0,0,57.47l98.364,56.792L197.908,56.79Z" transform="translate(28.746 162.235)" fill="#255b7d"/>
            <path id="Path_127" data-name="Path 127" d="M0,1.029,13.324,0,15.8,24.853,7.115,29.866s-.994,1.035-3.437-.388S0,1.029,0,1.029Z" transform="translate(119.78 274.018)" fill="#c4cadd"/>
            <path id="Path_128" data-name="Path 128" d="M3.287,1.9,0,0V16.946l3.287,1.9Zm9.14,5.277L9.14,5.277V22.222l3.287,1.9Zm9.14,5.277-3.287-1.9V27.5l3.287,1.9ZM30.7,17.728l-3.287-1.9V32.774l3.287,1.9Z" transform="translate(8.844 220.036)" fill="#848ba6"/>
            <path id="Path_129" data-name="Path 129" d="M3.558.485a7.869,7.869,0,0,1,3.556,6.16c0,2.267-1.594,3.186-3.556,2.055A7.867,7.867,0,0,1,0,2.538C0,.272,1.594-.648,3.558.485Z" transform="translate(102.704 280.712)" fill="#255b7c"/>
            <path id="Path_130" data-name="Path 130" d="M0,13.066a6.953,6.953,0,0,0,8.532-.034C12.88,9.634,8.731,0,8.731,0L.1.028,0,13.066Z" transform="translate(121.276 298.18)" fill="#c4cadd"/>
            <path id="Path_131" data-name="Path 131" d="M0,5.171A5.942,5.942,0,0,0,2.566,4.9a5.98,5.98,0,0,0,1.986-.923L11.4,0V16.2L5.327,19.749v10.08L11.4,26.362v8.982l-7.466,4.4a13.661,13.661,0,0,1-1.529.79,5.113,5.113,0,0,1-1.3.353c-.221.024-.437.056-.621.067C.2,40.972,0,40.967,0,40.967Z" transform="translate(125.512 271.764)" fill="#a3abc1"/>
            <path id="Path_132" data-name="Path 132" d="M.262,2.774c.448-.741,2.5-.245,2.5-.245L122.9,71.892s1.717,1.7,4.775.253c2.782-1.314,105.792-61.026,124.5-71.87,1.869-1.085,2.889,1.392,2.889,1.392L255.06,4.6,130.18,76.7s-3.6,3.136-9.952-.355S.076,6.971.076,6.971-.186,3.515.262,2.774Z" transform="translate(0 200.794)" fill="#f3f5fb"/>
            <path id="Path_133" data-name="Path 133" d="M0,1.312,3.216,0,127.1,68.813l-.243,1.358-8.341,4.515L0,6.226Z" transform="translate(125.624 131.04)" fill="#f3f5fb"/>
            <path id="Path_134" data-name="Path 134" d="M249.042,68.349s2.52.78,2.341,2.754l-1.472.58-1.644-1.267L248,68.947ZM.063,71.909,0,68.182,118.095,0l3.846.847V5.463L3.664,73.75Z" transform="translate(3.683 131.505)" fill="#f3f5fb"/>
            <path id="Path_135" data-name="Path 135" d="M0,1.267A7.164,7.164,0,0,1,7.23.706L6.706,2.281,3.9,4.959,2.349,4.537,1.137,3.047Z" transform="translate(121.61 130.334)" fill="#f3f5fb"/>
            <path id="Path_136" data-name="Path 136" d="M.076.44.589,0,122.74,66.736c.362.2.463.37.474.565a.648.648,0,0,1-.411.611L95.9,83.245,0,27.877.076.44Z" transform="translate(125.434 135.743)" fill="#c4cadd"/>
            <path id="Path_137" data-name="Path 137" d="M0,.221A1.452,1.452,0,0,1,1.245.074L1.234.367.73.784.093.5Z" transform="translate(124.778 135.669)" fill="#c4cadd"/>
            <path id="Path_138" data-name="Path 138" d="M3.56.486C5.524-.649,7.118.272,7.118,2.541A7.869,7.869,0,0,1,3.56,8.7C1.594,9.84,0,8.918,0,6.649A7.867,7.867,0,0,1,3.56.486Z" transform="translate(235.985 225.743)" fill="#255b7d"/>
            <path id="Path_139" data-name="Path 139" d="M67.816,3.233c0-2.716-1.656-3.967-3.692-2.791L3.692,35.331C1.654,36.509,0,39.67,0,42.386s1.654,3.967,3.692,2.791L64.124,10.288C66.16,9.11,67.816,5.949,67.816,3.233Z" transform="translate(156.378 235.155)" fill="#255b7d"/>
            <path id="Path_140" data-name="Path 140" d="M.062,7.042S-.931,2.56,5.054,0L3.811,1.754C10.35,8.765,8.871,9.777.868,5.9Z" transform="translate(0.015 198.887)" fill="#f3f5fb"/>
            <path id="Path_141" data-name="Path 141" d="M23.783,83.164,119.35,27.989V.51s-.275-.738-.8-.439C109.166,5.465,19.524,56.984.873,67.887c-.416.245-.987.758-.853,1.347.113.5.871,1.076,1.21,1.3C5.048,73.082,23.783,83.164,23.783,83.164Z" transform="translate(6.162 135.85)" fill="#c4cadd"/>
            <path id="Path_142" data-name="Path 142" d="M0,9.405,95.1,0l-.329,34.835a2,2,0,0,1-.1.823c-.111.214-.139.212-.565.457L53.066,59.809a4.482,4.482,0,0,1-2.044.717,3.938,3.938,0,0,1-1.955-.632L1.083,33.018c-.7-.392-.721-.37-.9-.732A3.565,3.565,0,0,1,0,30.842Z" transform="translate(76.677 192.003)" fill="#747474"/>
            <path id="Path_143" data-name="Path 143" d="M125.436,74.794,0,2.373V26.864a3.311,3.311,0,0,0,1.382,2.642L123.461,99.988c1.089.63,1.975-.039,1.975-1.492ZM254.982,0,125.436,74.794V99.286c0,1.016.619,1.485,1.382,1.044L253.6,27.133a3.314,3.314,0,0,0,1.382-2.642Z" transform="translate(2.14 135.13)" fill="#bbc6e6"/>
            <path id="Path_144" data-name="Path 144" d="M0,72.819.63,84.657,130.176,9.863,130.226,0Z" transform="translate(126.947 125.267)" fill="#c93333"/>
            <path id="Path_145" data-name="Path 145" d="M.253,0,0,12.382,125.436,84.8V73.336Z" transform="translate(2.14 125.12)" fill="#c93333"/>
            <path id="Path_146" data-name="Path 146" d="M136.046,2.07c-4.335-2.5-10.9-2.774-14.655-.608L2.533,70.085c-3.753,2.168-3.281,5.959,1.052,8.462l115.187,66.5c4.333,2.5,10.9,2.776,14.655.608L252.285,77.034c3.753-2.167,3.281-5.959-1.053-8.462Z" transform="translate(2.355 51.862)" fill="#2d6f98"/>
            <path id="Path_147" data-name="Path 147" d="M0,1.029,13.324,0,15.8,24.852,7.115,29.865S6.12,30.9,3.677,29.478,0,1.029,0,1.029Z" transform="translate(121.844 205.595)" fill="#bbc6e6"/>
            <path id="Path_148" data-name="Path 148" d="M0,2.432,122.98,72.99a6.22,6.22,0,0,0,5.455-.093C131.5,71.452,255.06,0,255.06,0l-.015,2.843-124.879,72.1s-3.6,3.137-9.952-.355S.063,5.216.063,5.216L0,2.432Z" transform="translate(2.077 132.287)" fill="#f3f5fb"/>
            <path id="Path_149" data-name="Path 149" d="M3.287,1.9,0,0V16.945l3.287,1.9Zm9.14,5.277L9.14,5.277V22.222l3.287,1.9Zm9.14,5.277-3.287-1.9V27.5l3.287,1.9ZM30.7,17.728l-3.287-1.9V32.774l3.287,1.9ZM97.416,60.61a7.863,7.863,0,0,1,3.558,6.16c0,2.267-1.594,3.187-3.558,2.053a7.866,7.866,0,0,1-3.556-6.159C93.86,60.4,95.454,59.477,97.416,60.61ZM230.7,5.238c1.964-1.135,3.558-.214,3.558,2.055a7.87,7.87,0,0,1-3.558,6.163c-1.966,1.135-3.56.214-3.56-2.055A7.867,7.867,0,0,1,230.7,5.238Z" transform="translate(10.909 147.261)" fill="#255b7d"/>
            <path id="Path_150" data-name="Path 150" d="M0,5.173a9.766,9.766,0,0,0,2.668-.3,7.86,7.86,0,0,0,2-.985L11.4,0V12.152L5.327,15.658v7.992l6.011-3.471v6.314L1.165,32.273a1.985,1.985,0,0,1-.243.108,2.339,2.339,0,0,1-.327.078A4.13,4.13,0,0,1,0,32.473Z" transform="translate(127.576 203.339)" fill="#255b7d"/>
            <path id="Path_151" data-name="Path 151" d="M67.816,3.234c0-2.718-1.656-3.969-3.692-2.791L3.692,35.332C1.654,36.508,0,39.669,0,42.387s1.654,3.967,3.692,2.791L64.124,10.287C66.16,9.111,67.816,5.951,67.816,3.234Z" transform="translate(158.443 162.238)" fill="#255b7d"/>
            <path id="Path_152" data-name="Path 152" d="M5.388,0V6.481L.9,8.553,0,2.657Z" transform="translate(198.541 118.545)" fill="#98aada"/>
            <path id="Path_153" data-name="Path 153" d="M82.816,1.683C79.292-.351,73.952-.572,70.9,1.189L2.059,40.935c-3.051,1.761-2.668,4.844.857,6.879L69.968,86.526c3.523,2.035,8.863,2.256,11.916.494l68.839-39.744c3.051-1.763,2.668-4.846-.857-6.88Z" transform="translate(51.146 80.373)" fill="#98a9d9"/>
            <path id="Path_154" data-name="Path 154" d="M0,0V6.427L2.705,8.805,5.323,3.6,0,0Z" transform="translate(51.147 117.631)" fill="#98aada"/>
            <path id="Path_155" data-name="Path 155" d="M82.816,1.683C79.292-.351,73.952-.572,70.9,1.189L2.059,40.933c-3.051,1.763-2.668,4.846.857,6.88L69.968,86.526c3.523,2.035,8.863,2.256,11.916.494l68.839-39.746c3.051-1.761,2.668-4.844-.857-6.879Z" transform="translate(51.146 73.745)" fill="#4463b9"/>
            <path id="Path_156" data-name="Path 156" d="M49.174,0,64.633,8.926V11.9l11.433,6.6h4.79L98.57,28.731,84.428,36.9h-4.9L68,43.553v3.564L50.378,57.29,34.305,48.01V45.125L22.854,38.514H17.462L0,28.389l15.017-8.67,5.314-.046,11.3-6.527-.015-3.012Z" transform="translate(78.252 88.966)" fill="#3e5aa9"/>
            <path id="Path_157" data-name="Path 157" d="M49.174,0,64.633,8.924V11.9l11.433,6.6h4.79L98.57,28.729,84.428,36.9h-4.9L68,43.553v3.564L50.378,57.29,34.305,48.009V45.125L22.854,38.514H17.462L0,28.389l15.017-8.67,5.314-.048,11.3-6.525-.015-3.012Z" transform="translate(78.252 86.309)" fill="#637dc6"/>
            <path id="Path_158" data-name="Path 158" d="M1.891,1.091a10.1,10.1,0,0,1,9.132,0c2.52,1.455,2.52,3.816,0,5.271a10.088,10.088,0,0,1-9.132,0C-.63,4.908-.63,2.546,1.891,1.091Z" transform="translate(108.489 107.97)" fill="#d9dff1"/>
            <path id="Path_159" data-name="Path 159" d="M1.348.778a7.207,7.207,0,0,1,6.513,0c1.8,1.037,1.8,2.722,0,3.759a7.206,7.206,0,0,1-6.513,0C-.449,3.5-.449,1.814,1.348.778Z" transform="translate(118.014 106.374)" fill="#d9dff1"/>
            <path id="Path_160" data-name="Path 160" d="M2.777,1.6a14.835,14.835,0,0,1,13.413,0c3.7,2.139,3.7,5.608,0,7.746a14.835,14.835,0,0,1-13.413,0C-.926,7.21-.926,3.741,2.777,1.6Z" transform="translate(121.029 106.741)" fill="#d9dff1"/>
            <path id="Path_161" data-name="Path 161" d="M2.543,1.469a13.591,13.591,0,0,1,12.291,0c3.391,1.958,3.391,5.138,0,7.1a13.59,13.59,0,0,1-12.291,0c-3.391-1.958-3.391-5.137,0-7.1Z" transform="translate(124.979 115.666)" fill="#d9dff1"/>
            <path id="Path_162" data-name="Path 162" d="M9.132,0,0,5.271l17.143,9.9L26.275,9.9Z" transform="translate(110.38 109.061)" fill="#d9dff1"/>
            <path id="Path_163" data-name="Path 163" d="M.137,5.87S-1.2,11.083,4.446,14.342l90.5,52.252s3.5,2.919,10.582-2.395L201.3,8.911S207.059,5.936,204.853,0L97.413,55.772Z" transform="translate(30.164 122.365)" fill="#5088a2"/>
            <path id="Path_164" data-name="Path 164" d="M125.436,74.794,0,2.375V26.866a3.31,3.31,0,0,0,1.382,2.64L123.461,99.988c1.089.63,1.975-.039,1.975-1.492ZM254.982,0,125.436,74.794V99.286c0,1.018.619,1.486,1.382,1.046L253.6,27.133a3.311,3.311,0,0,0,1.382-2.642Z" transform="translate(2.14 83.268)" fill="#bbc6e6"/>
            <path id="Path_165" data-name="Path 165" d="M0,72.819.63,84.657,130.176,9.863,130.226,0Z" transform="translate(126.947 73.405)" fill="#255b7d"/>
            <path id="Path_166" data-name="Path 166" d="M.253,0,0,12.384,125.436,84.8V73.336Z" transform="translate(2.14 73.258)" fill="#255b7d"/>
            <path id="Path_167" data-name="Path 167" d="M136.046,2.07c-4.335-2.5-10.9-2.774-14.655-.608L2.533,70.087c-3.753,2.166-3.281,5.959,1.052,8.46l115.187,66.5c4.333,2.5,10.9,2.774,14.655.608L252.285,77.034c3.753-2.167,3.281-5.959-1.053-8.46Z" transform="translate(2.355 0)" fill="#32749d"/>
            <path id="Path_168" data-name="Path 168" d="M0,1.029,13.324,0,15.8,24.852,7.115,29.866S6.12,30.9,3.677,29.478,0,1.029,0,1.029Z" transform="translate(121.844 153.733)" fill="#bbc6e6"/>
            <path id="Path_169" data-name="Path 169" d="M0,2.43,122.98,72.99a6.217,6.217,0,0,0,5.455-.095C131.5,71.452,255.06,0,255.06,0l-.015,2.841-124.879,72.1s-3.6,3.136-9.952-.355S.063,5.216.063,5.216Z" transform="translate(2.077 80.427)" fill="#f3f5fb"/>
            <path id="Path_170" data-name="Path 170" d="M3.287,1.9,0,0V16.946l3.287,1.9Zm9.14,5.277L9.14,5.277V22.222l3.287,1.9Zm9.14,5.277-3.287-1.9V27.5l3.287,1.9ZM30.7,17.728l-3.287-1.9V32.774l3.287,1.9ZM97.416,60.61a7.863,7.863,0,0,1,3.558,6.159c0,2.267-1.594,3.187-3.558,2.053a7.866,7.866,0,0,1-3.556-6.159C93.86,60.4,95.454,59.477,97.416,60.61ZM230.7,5.238c1.964-1.134,3.558-.214,3.558,2.055a7.873,7.873,0,0,1-3.558,6.165c-1.966,1.133-3.56.212-3.56-2.055A7.867,7.867,0,0,1,230.7,5.238Z" transform="translate(10.909 95.399)" fill="#255b7d"/>
            <path id="Path_171" data-name="Path 171" d="M0,5.171a9.675,9.675,0,0,0,2.668-.3,7.792,7.792,0,0,0,2-.985L11.4,0V12.15L5.327,15.658v7.99l6.011-3.469v6.314L1.165,32.273a1.834,1.834,0,0,1-.243.106,2.1,2.1,0,0,1-.327.078A3.942,3.942,0,0,1,0,32.473Z" transform="translate(127.576 151.479)" fill="#255b7d"/>
            <path id="Path_172" data-name="Path 172" d="M67.816,3.233c0-2.717-1.656-3.967-3.692-2.791L3.692,35.331C1.654,36.509,0,39.67,0,42.386s1.654,3.967,3.692,2.791L64.124,10.286C66.16,9.11,67.816,5.95,67.816,3.233Z" transform="translate(158.443 110.377)" fill="#255b7d"/>
            <path id="Path_173" data-name="Path 173" d="M82.816,1.685C79.292-.352,73.952-.573,70.9,1.19L2.059,40.934c-3.051,1.761-2.668,4.844.857,6.88L69.968,86.526c3.523,2.035,8.863,2.258,11.916.494l68.839-39.744c3.051-1.761,2.668-4.846-.857-6.88Z" transform="translate(51.146 38.95)" fill="#323654"/>
            <path id="Path_174" data-name="Path 174" d="M5.388,0V6.481L.9,8.553,0,2.655Z" transform="translate(198.541 54.514)" fill="#255b7d"/>
            <path id="Path_175" data-name="Path 175" d="M82.816,1.683C79.292-.351,73.952-.572,70.9,1.189L2.059,40.933c-3.051,1.763-2.668,4.846.857,6.88L69.968,86.526c3.523,2.035,8.863,2.256,11.916.492l68.839-39.744c3.051-1.761,2.668-4.844-.857-6.879Z" transform="translate(51.146 16.342)" fill="#255b7d"/>
            <path id="Path_176" data-name="Path 176" d="M0,0V6.427L2.705,8.805,5.323,3.6Z" transform="translate(51.147 53.6)" fill="#255b7d"/>
            <path id="Path_177" data-name="Path 177" d="M82.816,1.683C79.292-.351,73.952-.572,70.9,1.189L2.059,40.933c-3.051,1.763-2.668,4.846.857,6.88L69.968,86.524c3.523,2.036,8.863,2.258,11.916.494l68.839-39.744c3.051-1.761,2.668-4.844-.857-6.88Z" transform="translate(51.146 9.714)" fill="#2d6f98"/>
            <g transform="matrix(0.87, -0.5, 0.5, 0.87, -417.77, 242.27)" filter="url(#Path_178)">
              <path id="Path_178-2" data-name="Path 178" d="M49.174,0,64.633,8.924V11.9l11.433,6.6h4.79L98.57,28.729,84.428,36.894h-4.9L68,43.553v3.564L50.378,57.288,34.305,48.009V45.125L22.854,38.514H17.462L0,28.389l15.017-8.67,5.314-.048,11.3-6.526-.015-3.012Z" transform="translate(538.24 59.79) rotate(30)" fill="#5088a2"/>
            </g>
            <path id="Path_179" data-name="Path 179" d="M49.174,0,64.633,8.924V11.9l11.433,6.6h4.79L98.57,28.729,84.428,36.894h-4.9L68,43.551v3.566L50.378,57.288,34.305,48.009V45.125L22.854,38.514H17.462L0,28.389l15.017-8.67,5.314-.048,11.3-6.527-.015-3.01L49.174,0Z" transform="translate(78.252 22.279)" fill="#c93333"/>
            <path id="Path_180" data-name="Path 180" d="M1.891,1.091a10.1,10.1,0,0,1,9.132,0c2.52,1.457,2.52,3.818,0,5.273a10.1,10.1,0,0,1-9.132,0C-.63,4.909-.63,2.548,1.891,1.091Z" transform="translate(108.489 43.938)" fill="#d9dff1"/>
            <path id="Path_181" data-name="Path 181" d="M1.348.779a7.2,7.2,0,0,1,6.513,0c1.8,1.037,1.8,2.72,0,3.759a7.207,7.207,0,0,1-6.513,0C-.449,3.5-.449,1.816,1.348.779Z" transform="translate(118.014 42.341)" fill="#d9dff1"/>
            <path id="Path_182" data-name="Path 182" d="M2.777,1.6a14.835,14.835,0,0,1,13.413,0c3.7,2.137,3.7,5.608,0,7.744a14.823,14.823,0,0,1-13.413,0C-.926,7.21-.926,3.739,2.777,1.6Z" transform="translate(121.029 42.711)" fill="#d9dff1"/>
            <path id="Path_183" data-name="Path 183" d="M2.543,1.469a13.591,13.591,0,0,1,12.291,0c3.391,1.958,3.391,5.138,0,7.1a13.591,13.591,0,0,1-12.291,0c-3.391-1.958-3.391-5.138,0-7.1Z" transform="translate(124.979 51.635)" fill="#d9dff1"/>
            <path id="Path_184" data-name="Path 184" d="M9.132,0,0,5.273l17.143,9.9L26.275,9.9Z" transform="translate(110.38 45.029)" fill="#d9dff1"/>
            <path id="Path_185" data-name="Path 185" d="M183.717,92.1l30.53,16.994s10.44,2.808,10.44-11.238V45.762s.08-7.665-8.536-12.64L158.78,0l-5.818,3.359,56.128,32.4s7.638,4.537,9.01,9.667c1.527,5.71.442,51.225.442,51.225s-.076,8.27-5.225,5.3-24.567-12.761-24.567-12.761ZM51.312,143.383l4.669,2.7L9.97,172.642S.031,177.668.031,161.3V42.213S-.931,33.774,7.822,28.72l17.5-10.1,4.837,2.791L10.539,33.937s-3.828,2.631-4.452,9.575c-.665,7.4-1.3,119.284,0,118.453,0,0-.308,8.215,4.933,5.188l38.573-22.271,1.719-1.5Z" transform="translate(52.946 139.903)" fill="#fbfbfb"/>
          </g>
        </g>
        <g id="_512" data-name="512" transform="translate(0 45.091)">
          <rect id="Rectangle_1" data-name="Rectangle 1" width="661" height="661" transform="translate(0.354 0.485)" fill="none"/>
          <g id="_512finalogo" data-name="512finalogo" transform="translate(24.493 22.571)">
            <g id="Group_4" data-name="Group 4" transform="translate(0 0)">
              <g id="logoicon">
                <g id="R" transform="translate(289.531)">
                  <g transform="matrix(1, 0, 0, 1, -332.01, -66.26)" filter="url(#Path_6)">
                    <path id="Path_6-2" data-name="Path 6" d="M222.5,0s-89.381,130.607-89.676,207.347,140.983,101.97,140.983,101.97-27.222,17.978-28.6,44.336,23.085,60.986,23.085,60.986S.439,321.566,0,206.874,222.5,0,222.5,0Z" transform="translate(627.14 480.33) rotate(177)" fill="#32749d"/>
                  </g>
                  <g transform="matrix(1, 0, 0, 1, -332.01, -66.26)" filter="url(#Path_8)" style="mix-blend-mode: luminosity;isolation: isolate">
                    <path id="Path_8-2" data-name="Path 8" d="M222.5,0S111.31,128.488,114.113,205.118s115.5,104.743,115.5,104.743-26.188,16.8-28.18,43.285,22.651,62.138,22.651,62.138S.439,321.523,0,206.845,222.5,0,222.5,0Z" transform="translate(583.33 483.4) rotate(177)" fill="#606060"/>
                  </g>
                </g>
                <g id="L" transform="translate(0 5.637)">
                  <g transform="matrix(1, 0, 0, 1, -42.48, -71.89)" filter="url(#Path_10)">
                    <path id="Path_10-2" data-name="Path 10" d="M38.594,0s88.766,130.859,89.15,207.686S0,307.432,0,307.432s21.248,20.217,24.36,46.3S7.221,412.462,7.221,412.462s251.9-90.273,252.2-205.094S38.594,0,38.594,0Z" transform="translate(301.74 493.16) rotate(-178)" fill="#ed5757"/>
                  </g>
                  <g transform="matrix(1, 0, 0, 1, -42.48, -71.89)" filter="url(#Path_11)" style="mix-blend-mode: luminosity;isolation: isolate">
                    <path id="Path_11-2" data-name="Path 11" d="M8.535,0S97.3,130.915,97.688,207.773,0,310.49,0,310.49s22.672,21.7,24.506,47.957-17.17,57.09-17.17,57.09,221.734-93.21,222.029-208.079S8.535,0,8.535,0Z" transform="translate(301.62 496.33) rotate(-178)" fill="#606060"/>
                  </g>
                  <g transform="matrix(1, 0, 0, 1, -42.48, -71.89)" filter="url(#Create)" style="mix-blend-mode: luminosity;isolation: isolate">
                    <text id="Create-2" data-name="Create" transform="matrix(0.07, -1, 1, 0.07, 137.7, 328.63)" fill="#707070" font-size="24" font-family="KhmerMN, Khmer MN" opacity="0.071"><tspan x="0" y="0">Create</tspan></text>
                  </g>
                  <g transform="matrix(1, 0, 0, 1, -42.48, -71.89)" filter="url(#Innovate)" style="mix-blend-mode: luminosity;isolation: isolate">
                    <text id="Innovate-2" data-name="Innovate" transform="matrix(0.07, -1, 1, 0.07, 201.5, 329.72)" fill="#707070" font-size="24" font-family="KhmerMN, Khmer MN" opacity="0.069"><tspan x="0" y="0">Innovate</tspan></text>
                  </g>
                  <g transform="matrix(1, 0, 0, 1, -42.48, -71.89)" filter="url(#Execute_)" style="mix-blend-mode: luminosity;isolation: isolate">
                    <text id="Execute_2" data-name="Execute
" transform="matrix(0.07, -1, 1, 0.07, 562.35, 327.85)" fill="#707070" font-size="28" font-family="KhmerMN, Khmer MN" opacity="0.069"><tspan x="0" y="0">Execute</tspan><tspan x="0" y="51"></tspan></text>
                  </g>
                </g>
              </g>
            </g>
          </g>
        </g>
      </g>
      <g id="code" transform="translate(341.443 286.684)">
        <path id="Path_105" data-name="Path 105" d="M173.442,457.654c-4.608-2.659-11.592-2.95-15.583-.644L27.671,532.17c-3.991,2.306-3.492,6.336,1.12,9l152.056,87.789c4.608,2.663,11.592,2.95,15.583.648l130.187-75.164c3.991-2.306,3.492-6.336-1.12-9Z" transform="translate(-24.976 -312.182)" fill="#2c6c93"/>
        <path id="Path_106" data-name="Path 106" d="M24.976,690.676v6.631l5.4,3.217,1.611-8.249Zm304.336,14.456v6.631l-6.45,3.347-2.109-7.314Z" transform="translate(-24.976 -473.41)" fill="#2c6c93"/>
        <path id="Path_107" data-name="Path 107" d="M173.442,436.575c-4.608-2.659-11.592-2.95-15.583-.644L27.671,511.094c-3.991,2.3-3.492,6.336,1.12,9l152.056,87.789c4.608,2.663,11.592,2.95,15.583.648l130.187-75.164c3.991-2.306,3.492-6.336-1.12-9Z" transform="translate(-24.976 -297.733)" fill="#f3f5fb"/>
        <path id="Path_108" data-name="Path 108" d="M303.295,534.484a3.9,3.9,0,0,0-3.512-.145l-29.321,16.927c-.9.519-.786,1.426.251,2.027l140.892,81.343a3.9,3.9,0,0,0,3.508.145l29.321-16.927c.9-.522.786-1.43-.251-2.027Z" transform="translate(-192.824 -366.011)" fill="#32749d" opacity="0.996"/>
        <path id="Path_109" data-name="Path 109" d="M627.291,716.367a4.427,4.427,0,0,1-4.011,0,1.224,1.224,0,0,1,0-2.318,4.452,4.452,0,0,1,4.011,0A1.224,1.224,0,0,1,627.291,716.367ZM604.546,729.5a4.46,4.46,0,0,1-4.015,0,1.224,1.224,0,0,1,0-2.318,4.435,4.435,0,0,1,4.015,0A1.225,1.225,0,0,1,604.546,729.5ZM581.8,742.636a4.435,4.435,0,0,1-4.015,0,1.224,1.224,0,0,1,0-2.318,4.436,4.436,0,0,1,4.015,0A1.224,1.224,0,0,1,581.8,742.636Zm-22.749,13.132a4.436,4.436,0,0,1-4.015,0,1.225,1.225,0,0,1,0-2.318,4.46,4.46,0,0,1,4.015,0A1.224,1.224,0,0,1,559.048,755.768ZM536.3,768.9a4.452,4.452,0,0,1-4.011,0,1.224,1.224,0,0,1,0-2.318,4.427,4.427,0,0,1,4.011,0A1.224,1.224,0,0,1,536.3,768.9Zm-22.749,13.132a4.428,4.428,0,0,1-4.011,0,1.224,1.224,0,0,1,0-2.318,4.427,4.427,0,0,1,4.011,0A1.224,1.224,0,0,1,513.551,782.036Z" transform="translate(-356.542 -489.104)" fill="#c4cbdc"/>
        <path id="Path_110" data-name="Path 110" d="M336.255,474.369,505.014,571.8l.53-.3L336.785,474.063l-.53.306Zm-22.611,13.058L482.4,584.86l.53-.306L314.17,487.12Z" transform="translate(-222.838 -324.937)" fill="#dee3f1"/>
        <path id="Path_111" data-name="Path 111" d="M581.674,672.456,437.023,755.971l.53.306L582.2,672.763Z" transform="translate(-307.406 -460.922)" fill="#dee3f1"/>
        <path id="Path_112" data-name="Path 112" d="M213.974,477.738a4.435,4.435,0,0,1-4.015,0,1.224,1.224,0,0,1,0-2.318,4.46,4.46,0,0,1,4.015,0A1.224,1.224,0,0,1,213.974,477.738Zm-22.749,13.136a4.46,4.46,0,0,1-4.015,0,1.224,1.224,0,0,1,0-2.318,4.435,4.435,0,0,1,4.015,0A1.224,1.224,0,0,1,191.225,490.874Zm-22.749,13.132a4.427,4.427,0,0,1-4.011,0,1.224,1.224,0,0,1,0-2.318,4.427,4.427,0,0,1,4.011,0A1.224,1.224,0,0,1,168.476,504.007Zm-22.749,13.132a4.428,4.428,0,0,1-4.011,0,1.224,1.224,0,0,1,0-2.318,4.452,4.452,0,0,1,4.011,0A1.224,1.224,0,0,1,145.728,517.139Zm-22.749,13.132a4.427,4.427,0,0,1-4.011,0,1.221,1.221,0,0,1,0-2.314,4.427,4.427,0,0,1,4.011,0A1.221,1.221,0,0,1,122.979,530.271Zm-22.745,13.136a4.435,4.435,0,0,1-4.015,0,1.224,1.224,0,0,1,0-2.318,4.435,4.435,0,0,1,4.015,0A1.224,1.224,0,0,1,100.234,543.407ZM235.642,490.25a4.435,4.435,0,0,1-4.015,0,1.224,1.224,0,0,1,0-2.318,4.46,4.46,0,0,1,4.015,0A1.224,1.224,0,0,1,235.642,490.25Zm-22.749,13.132a4.427,4.427,0,0,1-4.011,0,1.221,1.221,0,0,1,0-2.314,4.427,4.427,0,0,1,4.011,0A1.221,1.221,0,0,1,212.893,503.382Zm-22.749,13.136a4.452,4.452,0,0,1-4.011,0,1.224,1.224,0,0,1,0-2.318,4.427,4.427,0,0,1,4.011,0A1.224,1.224,0,0,1,190.145,516.518ZM167.4,529.65a4.435,4.435,0,0,1-4.015,0,1.224,1.224,0,0,1,0-2.318,4.435,4.435,0,0,1,4.015,0A1.225,1.225,0,0,1,167.4,529.65Zm-22.749,13.132a4.436,4.436,0,0,1-4.015,0,1.221,1.221,0,0,1,0-2.314,4.435,4.435,0,0,1,4.015,0A1.221,1.221,0,0,1,144.651,542.783ZM121.9,555.919a4.46,4.46,0,0,1-4.015,0,1.225,1.225,0,0,1,0-2.318,4.435,4.435,0,0,1,4.015,0A1.224,1.224,0,0,1,121.9,555.919ZM257.31,502.761a4.427,4.427,0,0,1-4.011,0,1.224,1.224,0,0,1,0-2.318,4.427,4.427,0,0,1,4.011,0A1.224,1.224,0,0,1,257.31,502.761Zm-22.749,13.132a4.427,4.427,0,0,1-4.011,0,1.224,1.224,0,0,1,0-2.318,4.452,4.452,0,0,1,4.011,0A1.224,1.224,0,0,1,234.562,515.893ZM211.817,529.03a4.46,4.46,0,0,1-4.015,0,1.224,1.224,0,0,1,0-2.318,4.435,4.435,0,0,1,4.015,0A1.224,1.224,0,0,1,211.817,529.03Zm-22.749,13.132a4.435,4.435,0,0,1-4.015,0,1.224,1.224,0,0,1,0-2.318,4.435,4.435,0,0,1,4.015,0A1.224,1.224,0,0,1,189.068,542.162ZM166.32,555.294a4.428,4.428,0,0,1-4.011,0,1.224,1.224,0,0,1,0-2.318,4.452,4.452,0,0,1,4.011,0A1.224,1.224,0,0,1,166.32,555.294Zm-22.749,13.132a4.427,4.427,0,0,1-4.011,0,1.221,1.221,0,0,1,0-2.314,4.427,4.427,0,0,1,4.011,0A1.221,1.221,0,0,1,143.571,568.426Zm135.408-53.154a4.428,4.428,0,0,1-4.011,0,1.224,1.224,0,0,1,0-2.318,4.428,4.428,0,0,1,4.011,0A1.224,1.224,0,0,1,278.979,515.273Zm-22.745,13.132a4.435,4.435,0,0,1-4.015,0,1.224,1.224,0,0,1,0-2.318,4.46,4.46,0,0,1,4.015,0A1.224,1.224,0,0,1,256.234,528.405Zm-22.749,13.132a4.435,4.435,0,0,1-4.015,0,1.221,1.221,0,0,1,0-2.314,4.436,4.436,0,0,1,4.015,0A1.221,1.221,0,0,1,233.485,541.537Zm-22.749,13.136a4.451,4.451,0,0,1-4.011,0,1.224,1.224,0,0,1,0-2.318,4.427,4.427,0,0,1,4.011,0A1.224,1.224,0,0,1,210.737,554.673Zm-22.749,13.132a4.427,4.427,0,0,1-4.011,0,1.224,1.224,0,0,1,0-2.318,4.427,4.427,0,0,1,4.011,0A1.224,1.224,0,0,1,187.988,567.806Zm-22.745,13.132a4.436,4.436,0,0,1-4.015,0,1.221,1.221,0,0,1,0-2.314,4.435,4.435,0,0,1,4.015,0A1.222,1.222,0,0,1,165.243,580.938Zm135.408-53.154a4.46,4.46,0,0,1-4.015,0,1.224,1.224,0,0,1,0-2.318,4.436,4.436,0,0,1,4.015,0A1.224,1.224,0,0,1,300.651,527.784ZM277.9,540.917a4.435,4.435,0,0,1-4.015,0,1.225,1.225,0,0,1,0-2.318,4.435,4.435,0,0,1,4.015,0A1.224,1.224,0,0,1,277.9,540.917Zm-22.749,13.132a4.427,4.427,0,0,1-4.011,0,1.224,1.224,0,0,1,0-2.318,4.452,4.452,0,0,1,4.011,0A1.224,1.224,0,0,1,255.154,554.049Zm-22.749,13.136a4.452,4.452,0,0,1-4.011,0,1.224,1.224,0,0,1,0-2.318,4.427,4.427,0,0,1,4.011,0A1.224,1.224,0,0,1,232.405,567.185ZM209.66,580.317a4.435,4.435,0,0,1-4.015,0,1.224,1.224,0,0,1,0-2.318,4.435,4.435,0,0,1,4.015,0A1.224,1.224,0,0,1,209.66,580.317ZM186.912,593.45a4.436,4.436,0,0,1-4.015,0,1.224,1.224,0,0,1,0-2.318,4.46,4.46,0,0,1,4.015,0A1.224,1.224,0,0,1,186.912,593.45ZM322.32,540.292a4.427,4.427,0,0,1-4.011,0,1.221,1.221,0,0,1,0-2.314,4.428,4.428,0,0,1,4.011,0A1.221,1.221,0,0,1,322.32,540.292Zm-22.749,13.136a4.451,4.451,0,0,1-4.011,0,1.224,1.224,0,0,1,0-2.318,4.427,4.427,0,0,1,4.011,0A1.224,1.224,0,0,1,299.571,553.428ZM276.826,566.56a4.435,4.435,0,0,1-4.015,0,1.224,1.224,0,0,1,0-2.318,4.46,4.46,0,0,1,4.015,0A1.225,1.225,0,0,1,276.826,566.56Zm-22.749,13.132a4.435,4.435,0,0,1-4.015,0,1.221,1.221,0,0,1,0-2.314,4.435,4.435,0,0,1,4.015,0A1.221,1.221,0,0,1,254.077,579.693Zm-22.749,13.136a4.46,4.46,0,0,1-4.015,0,1.225,1.225,0,0,1,0-2.318,4.435,4.435,0,0,1,4.015,0A1.224,1.224,0,0,1,231.329,592.829ZM208.58,605.961a4.428,4.428,0,0,1-4.011,0,1.224,1.224,0,0,1,0-2.318,4.428,4.428,0,0,1,4.011,0A1.224,1.224,0,0,1,208.58,605.961Z" transform="translate(-73.239 -325.54)" fill="#c7c7c7"/>
        <path id="Path_113" data-name="Path 113" d="M231.879,470.5,87.228,554.019l.53.3L232.409,470.81Z" transform="translate(-67.645 -322.497)" fill="#dee3f1"/>
        <path id="Path_114" data-name="Path 114" d="M143.206,557.375l168.759,97.433.53-.3L143.736,557.069Zm-22.611,13.058,168.759,97.433.53-.306L121.125,570.127ZM97.98,583.487,266.743,680.92l.526-.306L98.51,583.18l-.53.306Z" transform="translate(-75.015 -381.832)" fill="#dee3f1"/>
        <path id="Path_115" data-name="Path 115" d="M301.836,510.889,157.184,594.4l.53.306L302.366,511.2Zm22.01,12.708L179.195,607.109l.526.306L324.372,523.9Zm22.006,12.7L201.2,619.817l.53.306,144.651-83.515Zm22.006,12.7L223.207,632.521l.53.306,144.651-83.515Z" transform="translate(-115.596 -350.179)" fill="#dee3f1"/>
        <g transform="matrix(1, 0, 0, 1, -359.43, -285.28)" filter="url(#Path_116)">
          <path id="Path_116-2" data-name="Path 116" d="M437.865,85.342a5,5,0,0,0-2.086-3.987L295.3.252c-1.155-.668-2.09.039-2.09,1.575V135.452a5.006,5.006,0,0,0,2.09,3.991l140.475,81.1c1.151.664,2.086-.043,2.086-1.579Z" transform="translate(150.59 285.28)" fill="#c93333"/>
        </g>
        <g transform="matrix(1, 0, 0, 1, -359.43, -285.28)" filter="url(#Path_117)">
          <path id="Path_117-2" data-name="Path 117" d="M361.227,129.6a5.007,5.007,0,0,0-2.086-3.991L218.662,44.5c-1.151-.664-2.086.043-2.086,1.579V179.7a5,5,0,0,0,2.086,3.987l140.479,81.1c1.151.668,2.086-.039,2.086-1.579Z" transform="translate(203.12 254.95)" fill="#32749d"/>
        </g>
        <path id="Path_118" data-name="Path 118" d="M338.989,372.8l-2.243,1,12.7,25.931,2.243-1Z" transform="translate(-238.673 -255.528)" fill="#f2f2f2"/>
        <path id="Path_119" data-name="Path 119" d="M351.949,354.4l-15.2,6.788,1.842,3.759,15.2-6.792-1.838-3.755Z" transform="translate(-238.673 -242.92)" fill="#f2f2f2"/>
        <path id="Path_120" data-name="Path 120" d="M465.154,420.033l2.243-1L454.7,393.1l-2.243,1Z" transform="translate(-317.985 -269.446)" fill="#f2f2f2"/>
        <path id="Path_121" data-name="Path 121" d="M447.616,474.124l15.2-6.792-1.842-3.759-15.2,6.792Z" transform="translate(-313.406 -317.747)" fill="#f2f2f2"/>
        <path id="Path_122" data-name="Path 122" d="M361.227,129.552a5.2,5.2,0,0,0-2.168-4.144L218.517,44.265c-1.072-.617-1.941.039-1.941,1.469V58.364l144.651,83.515V129.552Z" transform="translate(-156.305 -30.182)" fill="#2d6f98"/>
        <path id="Path_123" data-name="Path 123" d="M283.144,184.265A4.1,4.1,0,0,0,281.435,181l-38.949-22.485c-.943-.546-1.709.035-1.709,1.292a4.105,4.105,0,0,0,1.709,3.268l38.949,22.482C282.378,186.1,283.144,185.522,283.144,184.265Zm16.554,9.554a4.1,4.1,0,0,0-1.709-3.264l-10.477-6.05c-.943-.542-1.709.035-1.709,1.292a4.1,4.1,0,0,0,1.709,3.268l10.477,6.046C298.932,195.657,299.7,195.079,299.7,193.818Zm4.934,36.934-1.666-2.734-14.338,26.253L290.3,257Z" transform="translate(-172.893 -108.508)" fill="#f2f2f2"/>
      </g>
      <g id="middleware" transform="matrix(1, 0.017, -0.017, 1, 195.901, 238.239)">
        <path id="Path_186" data-name="Path 186" d="M104.628,60.41,0,0V60.41l104.628,60.405Z" transform="translate(0 120.811)" fill="#2d6f98"/>
        <path id="Path_187" data-name="Path 187" d="M52.312,0,0,30.2,104.628,90.61l52.312-30.2Z" transform="translate(0 90.61)" fill="#3c6883"/>
        <path id="Path_188" data-name="Path 188" d="M52.312,30.2,0,0V56.357l52.312,30.2V30.2Z" transform="translate(0 60.405)" fill="#3e83ad"/>
        <path id="Path_189" data-name="Path 189" d="M104.628,0,0,60.405v56.352L104.628,56.352Z" transform="translate(52.312 30.205)" fill="#2d6f98"/>
        <g transform="matrix(1, -0.02, 0.02, 1, -217.98, -233.06)" filter="url(#Path_190)">
          <path id="Path_190-2" data-name="Path 190" d="M104.628,0,0,60.405l52.312,30.2L156.94,30.2ZM209.256,120.811l-104.628,60.41v60.405l104.628-60.405Z" transform="matrix(1, 0.02, -0.02, 1, 213.88, 236.83)" fill="#2d6f98"/>
        </g>
        <path id="Path_191" data-name="Path 191" d="M52.316,0,0,30.2V151.016l52.316-30.2Z" transform="translate(156.94 60.405)" fill="#2e7099"/>
        <path id="Path_192" data-name="Path 192" d="M0,43.548c0,1.7,1.036,2.476,2.306,1.743L10.774,40.4A5.528,5.528,0,0,0,13.08,36c0-1.692-1.031-2.476-2.306-1.739L2.306,39.145A5.525,5.525,0,0,0,0,43.548ZM0,54.876c0,1.692,1.036,2.476,2.306,1.739l8.469-4.888a5.513,5.513,0,0,0,2.306-4.4c0-1.7-1.031-2.476-2.306-1.743L2.306,50.473A5.525,5.525,0,0,0,0,54.876ZM0,32.224c0,1.7,1.036,2.476,2.306,1.739l8.469-4.889a5.513,5.513,0,0,0,2.306-4.4c0-1.7-1.031-2.476-2.306-1.743L2.306,27.821A5.525,5.525,0,0,0,0,32.224ZM0,20.9c0,1.7,1.036,2.476,2.306,1.743l8.469-4.889a5.526,5.526,0,0,0,2.306-4.4c0-1.7-1.031-2.48-2.306-1.743L2.306,16.493A5.525,5.525,0,0,0,0,20.9ZM0,9.571c0,1.7,1.036,2.476,2.306,1.739l8.469-4.888a5.513,5.513,0,0,0,2.306-4.4c0-1.7-1.031-2.476-2.306-1.743L2.306,5.168A5.525,5.525,0,0,0,0,9.571Z" transform="translate(183.096 129.417)" fill="#c93333"/>
        <path id="Path_193" data-name="Path 193" d="M45.91.8A6.319,6.319,0,0,0,40.22.57c-1.458.84-1.274,2.31.409,3.282L47.61,7.883a6.319,6.319,0,0,0,5.69.234c1.458-.84,1.274-2.31-.409-3.282ZM36.1,6.468a6.325,6.325,0,0,0-5.686-.239c-1.458.844-1.274,2.314.4,3.286L37.8,13.547a6.323,6.323,0,0,0,5.686.234c1.458-.84,1.274-2.31-.409-3.282L36.1,6.468ZM6.674,23.457a6.319,6.319,0,0,0-5.69-.234c-1.458.84-1.274,2.31.409,3.282l6.981,4.032a6.319,6.319,0,0,0,5.69.234c1.458-.84,1.274-2.31-.409-3.282Zm9.807-5.664a6.324,6.324,0,0,0-5.686-.234c-1.458.84-1.274,2.314.409,3.282l6.981,4.032a6.325,6.325,0,0,0,5.686.239c1.458-.844,1.274-2.314-.4-3.286Zm9.811-5.66a6.334,6.334,0,0,0-5.69-.239c-1.458.844-1.274,2.314.409,3.286l6.981,4.032a6.346,6.346,0,0,0,5.69.234c1.458-.84,1.274-2.314-.409-3.286Z" transform="translate(67.046 13.009)" fill="#497a98"/>
        <path id="Path_194" data-name="Path 194" d="M4.5,4.565A5.392,5.392,0,0,0,2.25.269C1.006-.447,0,.316,0,1.97v9.1a5.381,5.381,0,0,0,2.25,4.3c1.24.716,2.25-.043,2.25-1.7ZM43.732,27.218a5.389,5.389,0,0,0-2.246-4.3c-1.245-.716-2.25.047-2.25,1.7v9.1a5.381,5.381,0,0,0,2.25,4.3c1.24.716,2.246-.043,2.246-1.7ZM14.308,10.229a5.381,5.381,0,0,0-2.25-4.3c-1.24-.716-2.25.043-2.25,1.7v9.1a5.392,5.392,0,0,0,2.25,4.3c1.245.716,2.25-.047,2.25-1.7Zm9.807,5.664a5.4,5.4,0,0,0-2.246-4.3c-1.245-.716-2.25.047-2.25,1.7v9.1a5.383,5.383,0,0,0,2.25,4.3c1.24.716,2.246-.047,2.246-1.7Zm9.811,5.664a5.394,5.394,0,0,0-2.25-4.3c-1.24-.716-2.25.047-2.25,1.7v9.1a5.407,5.407,0,0,0,2.25,4.3c1.24.716,2.25-.047,2.25-1.7Z" transform="translate(8.579 156.999)" fill="#c93333"/>
        <path id="Path_195" data-name="Path 195" d="M52.312,0,0,30.2,49,58.492l52.316-30.2L52.312,0Z" transform="translate(107.944 32.118)" fill="#2d6f98"/>
        <path id="Path_196" data-name="Path 196" d="M49,28.291,0,0V60.41L49,88.7Z" transform="translate(107.944 62.319)" fill="#32749d"/>
        <path id="Path_197" data-name="Path 197" d="M31.726,18.314,0,0V36.632L31.726,54.95Z" transform="translate(72.902 102.497)" fill="#e57575"/>
        <path id="Path_198" data-name="Path 198" d="M31.722,0,0,18.314V54.95L31.722,36.632Z" transform="translate(104.628 102.497)" fill="#c93333"/>
        <path id="Path_199" data-name="Path 199" d="M31.726,0,0,18.318,31.726,36.632,63.449,18.318Z" transform="translate(72.902 84.179)" fill="#c93333"/>
      </g>
      <g id="cloud" transform="translate(52.794 241.203)">
        <path id="Path_200" data-name="Path 200" d="M223.5,140.209c14.089,8.134,25.528,27.947,25.528,44.216S237.592,207.3,223.5,199.164s-25.528-27.947-25.528-44.217,11.439-22.873,25.528-14.738Zm96.8,40.25c17.929,10.351,32.485,35.563,32.485,56.266s-14.556,29.107-32.485,18.756-32.485-35.563-32.485-56.266S302.376,170.107,320.305,180.459Z" transform="translate(-177.318 -107.5)" fill="#c93333"/>
        <path id="Path_201" data-name="Path 201" d="M336.981,63.645c10.808,6.24,19.583,21.439,19.583,33.919s-8.775,17.547-19.583,11.307S317.4,87.431,317.4,74.951,326.173,57.4,336.981,63.645Z" transform="translate(-271.214 -47.94)" fill="#c93333"/>
        <path id="Path_202" data-name="Path 202" d="M477.382,5.226c21.143,12.207,38.308,41.938,38.308,66.351S498.525,105.9,477.382,93.694s-38.308-41.938-38.308-66.351S456.24-6.981,477.382,5.226Z" transform="translate(-366.881 0)" fill="#c93333"/>
        <path id="Path_203" data-name="Path 203" d="M420.024,212.268,317.4,153.018v58.955l102.626,59.251Z" transform="translate(-271.214 -120.308)" fill="#c93333"/>
        <path id="Path_204" data-name="Path 204" d="M299.288,147.678,278.633,159.6v9.836l20.656-11.925v-9.836ZM215.949,10.384l-21.78,12.574v5.748l21.78-12.574ZM184.6,22.127,163.222,34.469v13.42L184.6,35.547Zm-24.725,17.2-19.6,11.313V59.82l19.6-11.313Z" transform="translate(-131.955 -8.164)" fill="#c93333"/>
        <path id="Path_205" data-name="Path 205" d="M126.873,196c14.089,8.135,25.529,27.947,25.529,44.217s-11.439,22.873-25.529,14.738-25.528-27.947-25.528-44.216S112.783,187.863,126.873,196Zm96.8,40.249c17.929,10.352,32.485,35.563,32.485,56.266S241.6,321.62,223.676,311.268,191.19,275.705,191.19,255,205.747,225.9,223.676,236.247Z" transform="translate(-101.345 -151.363)" fill="#2d6f98"/>
        <path id="Path_206" data-name="Path 206" d="M240.352,119.434c10.809,6.24,19.583,21.439,19.583,33.92S251.16,170.9,240.352,164.66s-19.583-21.439-19.583-33.919S229.543,113.194,240.352,119.434Z" transform="translate(-195.24 -91.803)" fill="#2d6f98"/>
        <path id="Path_207" data-name="Path 207" d="M380.753,61.015c21.143,12.206,38.308,41.938,38.308,66.351s-17.165,34.324-38.308,22.117-38.308-41.938-38.308-66.351S359.61,48.808,380.753,61.015Z" transform="translate(-290.907 -43.864)" fill="#2d6f98"/>
        <path id="Path_208" data-name="Path 208" d="M323.394,268.057,220.768,208.806v58.955l102.626,59.251Z" transform="translate(-195.24 -164.171)" fill="#32749d"/>
        <path id="Path_215" data-name="Path 215" d="M346.475,430.134a4.977,4.977,0,0,0-4.475-.185l-8.307,4.8,21.156,12.214,10.384-5.995Zm11.991-39.886a7.745,7.745,0,0,0-3.232-6.176c-1.784-1.03-3.232.065-3.232,2.443v32.809a7.746,7.746,0,0,0,3.232,6.176c1.784,1.03,3.232-.065,3.232-2.444Z" transform="translate(-284.026 -301.667)" fill="#c93333"/>
        <path id="Path_216" data-name="Path 216" d="M412.642,387.355a4.913,4.913,0,0,1,4.4-.225c1.108.64.932,1.779-.39,2.542a4.912,4.912,0,0,1-4.4.226C411.144,389.258,411.319,388.119,412.642,387.355Z" transform="translate(-345.219 -304.045)" fill="#c93333"/>
        <path id="Path_217" data-name="Path 217" d="M412.835,384.528l-3.278,1.892,1.909,1.1,3.278-1.892Zm2.349,40.647-3.285,1.9,1.909,1.1,3.285-1.9Z" transform="translate(-343.674 -302.331)" fill="#c93333"/>
        <path id="Path_218" data-name="Path 218" d="M410.681,398.979a7.746,7.746,0,0,0-3.232-6.176c-1.784-1.03-3.233.065-3.233,2.443v32.809a7.746,7.746,0,0,0,3.233,6.176c1.784,1.03,3.232-.065,3.232-2.444V398.979Z" transform="translate(-339.474 -308.532)" fill="#fff"/>
        <path id="Path_219" data-name="Path 219" d="M355.182,436.073a5.1,5.1,0,0,0-3.232-4.614c-1.784-.576-3.232.556-3.232,2.526v16.041a5.1,5.1,0,0,0,3.232,4.614c1.784.576,3.232-.555,3.232-2.526Z" transform="translate(-295.839 -339.112)" fill="#c93333"/>
        <path id="Path_220" data-name="Path 220" d="M343.417,434.128a7.632,7.632,0,0,1,3.976-.131c.985.318.8.894-.405,1.284a7.642,7.642,0,0,1-3.976.131C342.027,435.094,342.208,434.519,343.417,434.128Z" transform="translate(-290.854 -341.064)" fill="#c93333"/>
        <path id="Path_221" data-name="Path 221" d="M343.89,432.012l-3.278,1.059,1.551.5,3.277-1.059Zm1.991,22.627L342.6,455.7l1.558.5,3.285-1.061Z" transform="translate(-289.466 -339.664)" fill="#c93333"/>
        <path id="Path_222" data-name="Path 222" d="M340.061,440.959a5.1,5.1,0,0,0-3.232-4.614c-1.784-.576-3.232.555-3.232,2.526v16.041a5.1,5.1,0,0,0,3.232,4.614c1.784.576,3.232-.556,3.232-2.526Z" transform="translate(-283.95 -342.953)" fill="#fff"/>
        <path id="Path_223" data-name="Path 223" d="M496.425,517.619a5.1,5.1,0,0,0-3.232-4.614c-1.784-.576-3.232.556-3.232,2.526v16.041a5.1,5.1,0,0,0,3.232,4.614c1.784.576,3.232-.555,3.232-2.526Z" transform="translate(-406.889 -403.226)" fill="#c93333"/>
        <path id="Path_224" data-name="Path 224" d="M484.66,515.674a7.632,7.632,0,0,1,3.976-.131c.985.318.8.894-.405,1.284a7.64,7.64,0,0,1-3.975.131C483.269,516.64,483.451,516.065,484.66,515.674Z" transform="translate(-401.904 -405.179)" fill="#c93333"/>
        <path id="Path_225" data-name="Path 225" d="M485.132,513.558l-3.278,1.059,1.551.5,3.278-1.059Zm1.991,22.627-3.285,1.061,1.558.5,3.285-1.061Z" transform="translate(-400.516 -403.779)" fill="#c93333"/>
        <path id="Path_226" data-name="Path 226" d="M481.3,522.505a5.1,5.1,0,0,0-3.232-4.614c-1.784-.576-3.232.555-3.232,2.526v16.041a5.1,5.1,0,0,0,3.232,4.614c1.784.576,3.232-.556,3.232-2.526Z" transform="translate(-395 -407.068)" fill="#fff"/>
      </g>
      <g id="database" transform="translate(324.801 233.119)">
        <g transform="matrix(1, 0, 0, 1, -342.78, -231.71)" filter="url(#Path_227)">
          <path id="Path_227-2" data-name="Path 227" d="M165.894,648.063c12.206-6.335,32.025-6.335,44.23,0s12.206,16.62,0,22.954-32.025,6.335-44.23,0S153.689,654.4,165.894,648.063Z" transform="translate(186.04 -353.8)" fill="#679dbf"/>
        </g>
        <path id="Path_228" data-name="Path 228" d="M169.472,378.125l-12.737-6.611v14.748l12.737,6.611Zm37.064-1.32,12.739-6.611v14.748l-12.739,6.611Zm0-27.969,12.739-6.611v14.748l-12.739,6.611Z" transform="translate(-156.735 -311.479)" fill="#679dbf"/>
        <path id="Path_229" data-name="Path 229" d="M165.894,484.077c12.206-6.335,32.025-6.335,44.23,0s12.206,16.62,0,22.954-32.025,6.335-44.23,0S153.689,490.412,165.894,484.077Z" transform="translate(-156.739 -436.263)" fill="#accee3"/>
        <path id="Path_230" data-name="Path 230" d="M169.472,502.749l-12.737-6.611v14.748l12.737,6.609Zm37.064.158,12.739-6.611v14.748l-12.739,6.609Z" transform="translate(-156.735 -451.565)" fill="#accee3"/>
        <path id="Path_231" data-name="Path 231" d="M165.894,320.091c12.206-6.335,32.025-6.335,44.23,0s12.206,16.62,0,22.954-32.025,6.335-44.23,0S153.689,326.426,165.894,320.091Z" transform="translate(-156.739 -287.01)" fill="#679dbf"/>
        <path id="Path_232" data-name="Path 232" d="M169.472,338.6l-12.737-6.611v14.748l12.737,6.611Z" transform="translate(-156.735 -302.159)" fill="#679dbf"/>
        <path id="Path_233" data-name="Path 233" d="M169.472,183.457l-12.737-6.611v14.748l12.737,6.611Zm37.064-1.408,12.739-6.611v14.119l-12.739,6.609Z" transform="translate(-156.735 -159.677)" fill="#accee3"/>
        <path id="Path_234" data-name="Path 234" d="M165.894,156.1c12.206-6.335,32.025-6.335,44.23,0s12.206,16.62,0,22.954-32.025,6.335-44.23,0S153.689,162.439,165.894,156.1Z" transform="translate(-156.739 -137.756)" fill="#accee3"/>
        <path id="Path_235" data-name="Path 235" d="M165.894,4.755c12.206-6.333,32.025-6.333,44.23,0s12.206,16.622,0,22.956-32.025,6.335-44.23,0-12.206-16.622,0-22.956Z" transform="translate(-156.739 -0.005)" fill="#679dbf"/>
        <path id="Path_236" data-name="Path 236" d="M434.784,417.965a1.722,1.722,0,0,0-1.72-1.72h-11.7a1.72,1.72,0,0,0,0,3.438h11.7A1.719,1.719,0,0,0,434.784,417.965Zm0,13.732a1.72,1.72,0,0,0-1.72-1.72h-11.7a1.72,1.72,0,0,0,0,3.438h11.7A1.719,1.719,0,0,0,434.784,431.7Zm0,15.549a1.72,1.72,0,0,0-1.72-1.72h-11.7a1.72,1.72,0,0,0,0,3.438h11.7A1.719,1.719,0,0,0,434.784,447.247Zm0,13.916a1.722,1.722,0,0,0-1.72-1.72h-11.7a1.72,1.72,0,0,0,0,3.438h11.7A1.719,1.719,0,0,0,434.784,461.163Z" transform="translate(-396.074 -378.85)" fill="#89b0c9"/>
      </g>
    </g>
    <ellipse id="Ellipse_12" data-name="Ellipse 12" cx="57.431" cy="53.376" rx="57.431" ry="53.376" transform="matrix(1, 0.017, -0.017, 1, 4879.527, 7424.129)" opacity="0.107" fill="url(#linear-gradient)"/>
    <ellipse id="Ellipse_13" data-name="Ellipse 13" cx="57.431" cy="53.376" rx="57.431" ry="53.376" transform="matrix(1, 0.017, -0.017, 1, 5470.023, 7395.437)" opacity="0.107" fill="url(#linear-gradient)"/>
    <ellipse id="Ellipse_14" data-name="Ellipse 14" cx="16.797" cy="15.611" rx="16.797" ry="15.611" transform="matrix(1, 0.017, -0.017, 1, 4914.532, 7379.515)" opacity="0.107" fill="url(#linear-gradient)"/>
    <ellipse id="Ellipse_15" data-name="Ellipse 15" cx="16.797" cy="15.611" rx="16.797" ry="15.611" transform="matrix(1, 0.017, -0.017, 1, 4994.915, 7411.318)" opacity="0.107" fill="url(#linear-gradient)"/>
    <ellipse id="Ellipse_16" data-name="Ellipse 16" cx="16.797" cy="15.611" rx="16.797" ry="15.611" transform="matrix(1, 0.017, -0.017, 1, 5042.545, 7462.597)" opacity="0.107" fill="url(#linear-gradient)"/>
    <ellipse id="Ellipse_17" data-name="Ellipse 17" cx="7.615" cy="7.003" rx="7.615" ry="7.003" transform="matrix(1, 0.017, -0.017, 1, 5085.584, 7462.597)" opacity="0.107" fill="url(#linear-gradient)"/>
    <ellipse id="Ellipse_18" data-name="Ellipse 18" cx="7.615" cy="7.003" rx="7.615" ry="7.003" transform="matrix(1, 0.017, -0.017, 1, 5042.244, 7443.122)" opacity="0.107" fill="url(#linear-gradient)"/>
    <ellipse id="Ellipse_19" data-name="Ellipse 19" cx="7.615" cy="7.003" rx="7.615" ry="7.003" transform="matrix(1, 0.017, -0.017, 1, 4986.878, 7395.417)" opacity="0.107" fill="url(#linear-gradient)"/>
    <ellipse id="Ellipse_20" data-name="Ellipse 20" cx="7.615" cy="7.003" rx="7.615" ry="7.003" transform="matrix(1, 0.017, -0.017, 1, 5000.077, 7455.462)" opacity="0.107" fill="url(#linear-gradient)"/>
    <ellipse id="Ellipse_21" data-name="Ellipse 21" cx="7.615" cy="7.003" rx="7.615" ry="7.003" transform="matrix(1, 0.017, -0.017, 1, 4958.186, 7379.515)" opacity="0.107" fill="url(#linear-gradient)"/>
    <ellipse id="Ellipse_22" data-name="Ellipse 22" cx="7.615" cy="7.003" rx="7.615" ry="7.003" transform="matrix(1, 0.017, -0.017, 1, 4908.26, 7354.839)" opacity="0.107" fill="url(#linear-gradient)"/>
    <ellipse id="Ellipse_23" data-name="Ellipse 23" cx="7.615" cy="7.003" rx="7.615" ry="7.003" transform="matrix(1, 0.017, -0.017, 1, 4892.788, 7411.318)" opacity="0.107" fill="url(#linear-gradient)"/>
  </g>
</svg>
