<svg xmlns="http://www.w3.org/2000/svg" xmlns:xlink="http://www.w3.org/1999/xlink" width="1198.387" height="1229.127" viewBox="0 0 1198.387 1229.127">
  <defs>
    <linearGradient id="linear-gradient" x1="0.5" x2="0.5" y2="1" gradientUnits="objectBoundingBox">
      <stop offset="0" stop-color="#2d6f98"/>
      <stop offset="1" stop-color="#17384c"/>
    </linearGradient>
    <filter id="Path_178" x="847.729" y="98.196" width="216.671" height="190.339" filterUnits="userSpaceOnUse">
      <feOffset dy="3" input="SourceAlpha"/>
      <feGaussianBlur stdDeviation="3" result="blur"/>
      <feFlood flood-opacity="0.161"/>
      <feComposite operator="in" in2="blur"/>
      <feComposite in="SourceGraphic"/>
    </filter>
    <filter id="Path_6" x="541.27" y="109.46" width="550.299" height="782.532" filterUnits="userSpaceOnUse">
      <feOffset dx="12" dy="12" input="SourceAlpha"/>
      <feGaussianBlur stdDeviation="6" result="blur-2"/>
      <feFlood flood-opacity="0.161"/>
      <feComposite operator="in" in2="blur-2"/>
      <feComposite in="SourceGraphic"/>
    </filter>
    <filter id="Path_8" x="541.764" y="113.693" width="473.455" height="779.623" filterUnits="userSpaceOnUse">
      <feOffset dx="12" dy="12" input="SourceAlpha"/>
      <feGaussianBlur stdDeviation="6" result="blur-3"/>
      <feFlood flood-opacity="0.161"/>
      <feComposite operator="in" in2="blur-3"/>
      <feComposite in="SourceGraphic"/>
    </filter>
    <filter id="Path_10" x="36.732" y="119.283" width="512.876" height="770.097" filterUnits="userSpaceOnUse">
      <feOffset dx="12" dy="12" input="SourceAlpha"/>
      <feGaussianBlur stdDeviation="6" result="blur-4"/>
      <feFlood flood-opacity="0.161"/>
      <feComposite operator="in" in2="blur-4"/>
      <feComposite in="SourceGraphic"/>
    </filter>
    <filter id="Path_11" x="88.865" y="121.285" width="460.72" height="773.624" filterUnits="userSpaceOnUse">
      <feOffset dx="12" dy="12" input="SourceAlpha"/>
      <feGaussianBlur stdDeviation="6" result="blur-5"/>
      <feFlood flood-opacity="0.161"/>
      <feComposite operator="in" in2="blur-5"/>
      <feComposite in="SourceGraphic"/>
    </filter>
    <filter id="Create" x="157.944" y="446.038" width="104.041" height="141.153" filterUnits="userSpaceOnUse">
      <feOffset dy="3" input="SourceAlpha"/>
      <feGaussianBlur stdDeviation="3" result="blur-6"/>
      <feFlood flood-opacity="0.161"/>
      <feComposite operator="in" in2="blur-6"/>
      <feComposite in="SourceGraphic"/>
    </filter>
    <filter id="Innovate" x="269.123" y="419.019" width="106.064" height="170.083" filterUnits="userSpaceOnUse">
      <feOffset dy="3" input="SourceAlpha"/>
      <feGaussianBlur stdDeviation="3" result="blur-7"/>
      <feFlood flood-opacity="0.161"/>
      <feComposite operator="in" in2="blur-7"/>
      <feComposite in="SourceGraphic"/>
    </filter>
    <filter id="Execute_" x="890.989" y="401.296" width="212.783" height="191.443" filterUnits="userSpaceOnUse">
      <feOffset dy="3" input="SourceAlpha"/>
      <feGaussianBlur stdDeviation="3" result="blur-8"/>
      <feFlood flood-opacity="0.161"/>
      <feComposite operator="in" in2="blur-8"/>
      <feComposite in="SourceGraphic"/>
    </filter>
    <filter id="Path_116" x="733.09" y="491.128" width="270.069" height="402.758" filterUnits="userSpaceOnUse">
      <feOffset dy="3" input="SourceAlpha"/>
      <feGaussianBlur stdDeviation="3" result="blur-9"/>
      <feFlood flood-opacity="0.161"/>
      <feComposite operator="in" in2="blur-9"/>
      <feComposite in="SourceGraphic"/>
    </filter>
    <filter id="Path_117" x="691.079" y="515.385" width="270.069" height="402.758" filterUnits="userSpaceOnUse">
      <feOffset dy="3" input="SourceAlpha"/>
      <feGaussianBlur stdDeviation="3" result="blur-10"/>
      <feFlood flood-opacity="0.161"/>
      <feComposite operator="in" in2="blur-10"/>
      <feComposite in="SourceGraphic"/>
    </filter>
    <filter id="Path_190" x="325.078" y="406.707" width="389.943" height="445.358" filterUnits="userSpaceOnUse">
      <feOffset dy="3" input="SourceAlpha"/>
      <feGaussianBlur stdDeviation="3" result="blur-11"/>
      <feFlood flood-opacity="0.161"/>
      <feComposite operator="in" in2="blur-11"/>
      <feComposite in="SourceGraphic"/>
    </filter>
    <filter id="Path_227" x="557.05" y="501.5" width="126.98" height="74.559" filterUnits="userSpaceOnUse">
      <feOffset dy="6" input="SourceAlpha"/>
      <feGaussianBlur stdDeviation="3" result="blur-12"/>
      <feFlood flood-opacity="0.161"/>
      <feComposite operator="in" in2="blur-12"/>
      <feComposite in="SourceGraphic"/>
    </filter>
  </defs>
  <g id="Group_29" data-name="Group 29" transform="translate(-4908.95 -6983.873)">
    <g id="main-graphic">
      <g id="Rectangle_11" data-name="Rectangle 11" transform="translate(4909 7101)" stroke="#707070" stroke-width="1" fill="url(#linear-gradient)">
        <rect width="1126" height="796" stroke="none"/>
        <rect x="0.5" y="0.5" width="1125" height="795" fill="none"/>
      </g>
      <g id="techstack">
        <path id="hive" d="M395.914,364.376h15.2v14.931h-15.2Zm-28.466-54.258-7.6,12.188,36.064,19.281V357.7h15.2V333.462Zm-139.4,54.258h15.2v14.931h-15.2Zm-28.463-54.258-7.6,12.188,36.064,19.281V357.7h15.2V333.462ZM395.914,95.138h15.2v14.931h-15.2ZM367.447,40.877l-7.6,12.188,36.064,19.281V88.458h15.2V64.22Zm-139.4,54.261h15.2v14.931h-15.2ZM199.586,40.877l-7.6,12.188L228.05,72.346V88.458h15.2V64.22ZM479.841,229.743h15.2v14.931h-15.2Zm-28.463-54.261-7.6,12.188,36.064,19.281v16.113h15.2V198.825Zm-15.525-35.621V50.128L344.322,1.193l-83.93,44.872L176.461,1.193,84.93,50.128v89.732L1,184.732V282.6l83.93,44.872v89.765l91.53,48.935L260.392,421.3l83.93,44.872,91.53-48.935V327.475L519.783,282.6v-97.87ZM267.991,58.254l76.331-40.809,76.332,40.809v81.607L344.323,180.67l-76.332-40.809V58.254Zm-167.861,0,76.331-40.809,76.331,40.809v81.607L176.461,180.67,100.13,139.861V58.254ZM16.2,274.477V192.858l76.321-40.8,76.342,40.815v81.608L92.53,315.285,16.2,274.477ZM252.791,409.113,176.46,449.922l-76.331-40.809V327.5l76.331-40.809L252.791,327.5ZM184.061,274.476V192.868l76.331-40.809,76.331,40.809v81.608l-76.331,40.809ZM344.323,449.922l-76.332-40.809V327.5l76.331-40.809L420.653,327.5v81.618h0l-76.331,40.809ZM504.584,274.477l-76.331,40.809-76.331-40.809V192.869l76.342-40.815,76.32,40.8ZM311.976,229.743h15.2v14.931h-15.2Zm-28.459-54.261-7.6,12.188L311.98,206.95v16.113h15.2V198.825Zm-139.4,54.261h15.2v14.931h-15.2Zm-28.466-54.261-7.6,12.188,36.064,19.281v16.113h15.2V198.825Z" transform="translate(4908 7099.808)" fill="#5885a2" stroke="#707070" stroke-width="0.1"/>
        <path id="nodejs" d="M50.021,107.695a8.6,8.6,0,0,1-4.086-1.069L33.027,98.963c-1.932-1.074-.963-1.466-.381-1.662a23.627,23.627,0,0,0,5.827-2.609.9.9,0,0,1,.979.09l9.9,5.927a1.264,1.264,0,0,0,1.17,0L89.252,78.286a1.106,1.106,0,0,0,.582-1.069V32.455a1.1,1.1,0,0,0-.582-1.064L50.518,9.063a1.234,1.234,0,0,0-1.17,0L10.6,31.386a1.219,1.219,0,0,0-.582,1.064V77.206a1.222,1.222,0,0,0,.582,1.069L21.189,84.4c5.726,2.9,9.325-.5,9.325-3.89V36.339a1.182,1.182,0,0,1,1.164-1.17h4.954a1.189,1.189,0,0,1,1.164,1.17V80.514c0,7.668-4.17,12.14-11.452,12.14-2.233,0-3.98,0-8.933-2.434L7.222,84.4a8.2,8.2,0,0,1-4.08-7.092V32.55a8.184,8.184,0,0,1,4.08-7.086L45.94,3.04a8.663,8.663,0,0,1,8.171,0L92.835,25.464a8.167,8.167,0,0,1,4.08,7.086V77.312a8.212,8.212,0,0,1-4.08,7.092L54.112,106.822a10.046,10.046,0,0,1-4.091.873ZM61.96,76.915c-16.988,0-20.481-7.769-20.481-14.363a1.186,1.186,0,0,1,1.164-1.17h5.049a.994.994,0,0,1,1.064.974c.778,5.139,3.006,7.668,13.3,7.668,8.15,0,11.654-1.852,11.654-6.218,0-2.524-.979-4.366-13.691-5.626-10.579-1.058-17.179-3.4-17.179-11.844,0-7.859,6.6-12.521,17.671-12.521,12.421,0,18.539,4.281,19.311,13.591a1.572,1.572,0,0,1-.3.873,1.208,1.208,0,0,1-.773.386H73.714a1.122,1.122,0,0,1-1.069-.868c-1.17-5.356-4.176-7.092-12.13-7.092-8.939,0-10.008,3.107-10.008,5.435,0,2.81,1.254,3.683,13.3,5.239,11.939,1.551,17.57,3.784,17.57,12.14C81.277,72.067,74.3,76.915,61.96,76.915Z" transform="translate(4950.858 7281.983)" fill="#fff" opacity="0.356"/>
        <path id="js-logo" d="M84.593,5H5V84.593H84.593ZM44.931,64.2c0,6.695-3.986,10.593-10.858,10.593-6.563,0-10.549-3.9-10.725-9.866v-.176H29.8v.132c.132,2.445,1.586,4.162,4.184,4.162,2.819,0,4.295-1.7,4.295-4.889V42.2h6.651Zm30.585.308c0,6.3-4.889,10.285-12.817,10.285-7.6,0-12.4-3.634-12.773-9.272l-.022-.352h6.409l.022.22c.242,2.379,2.819,3.987,6.541,3.987,3.546,0,5.99-1.7,5.99-4.14v-.022c0-2.092-1.564-3.259-5.506-4.074l-3.348-.682c-6.607-1.344-9.448-4.427-9.448-9.25v-.022c0-5.9,5.065-9.8,12.113-9.8,7.422,0,11.782,3.92,12.2,9.228l.022.287H68.645l-.044-.264c-.375-2.268-2.577-3.854-5.924-3.854-3.281.022-5.462,1.519-5.462,3.9V50.7c0,2.07,1.542,3.3,5.286,4.075l3.369.682c6.717,1.388,9.646,4.074,9.646,9.03Z" transform="translate(5328 7286)" fill="#426980" fill-rule="evenodd"/>
        <g id="react" transform="translate(5015.3 7153)" opacity="0.362">
          <path id="Path_237" data-name="Path 237" d="M115.906,54.314c0-7.966-9.224-14.675-23.9-18.868,3.774-14.675,2.516-26-4.193-30.188A11.606,11.606,0,0,0,82.363,4C76.074,4,67.688,8.612,59.3,16.578,50.917,8.612,42.951,4,36.242,4a11.606,11.606,0,0,0-5.451,1.258C24.5,9.451,23.245,20.771,26.6,35.446,12.343,39.639,2.7,46.767,2.7,54.314c0,7.966,9.224,14.675,23.9,18.868-3.354,14.675-2.1,26.415,4.612,30.188a11.606,11.606,0,0,0,5.451,1.258c6.289,0,14.675-4.612,23.06-12.578,8.386,7.966,16.352,12.578,23.06,12.578a11.606,11.606,0,0,0,5.451-1.258C94.942,99.6,96.2,87.856,92.845,73.181,106.682,68.988,115.906,61.861,115.906,54.314ZM82.363,9.451c1.258,0,2.1,0,2.516.839,3.354,1.677,4.612,8.386,3.354,17.191-.419,2.1-.839,4.612-1.258,6.708-4.612-1.258-9.224-1.677-14.675-2.516a83.288,83.288,0,0,0-9.224-11.321C70.623,13.224,77.751,9.451,82.363,9.451ZM74.816,63.119A57.587,57.587,0,0,1,69.366,71.5a80.791,80.791,0,0,1-10.063.419A80.791,80.791,0,0,1,49.24,71.5c-1.677-2.516-3.354-5.451-5.451-8.386a88.718,88.718,0,0,1-4.612-8.8,88.718,88.718,0,0,1,4.612-8.8c1.677-2.935,3.774-5.87,5.451-8.8A80.79,80.79,0,0,1,59.3,36.285a80.79,80.79,0,0,1,10.063.419,80.853,80.853,0,0,1,5.451,8.8,88.721,88.721,0,0,1,4.612,8.8A88.717,88.717,0,0,1,74.816,63.119ZM82.363,60.6c1.258,2.935,2.1,5.87,2.935,8.386a65.092,65.092,0,0,1-8.8,1.677c.839-1.677,2.1-3.354,2.935-5.031,1.258-1.258,2.1-3.354,2.935-5.031ZM59.3,84.5a48.264,48.264,0,0,1-5.87-7.128h11.74A48.264,48.264,0,0,1,59.3,84.5ZM42.112,71.085a65.1,65.1,0,0,1-8.8-1.677c.839-2.935,2.1-5.87,2.935-8.386a31.273,31.273,0,0,0,2.935,5.031,31.272,31.272,0,0,1,2.935,5.031Zm-5.87-23.06c-1.258-2.935-2.1-5.87-3.354-8.8a60.146,60.146,0,0,1,9.224-1.677c-1.258,1.677-2.1,3.354-3.354,5.031A13,13,0,0,1,36.242,48.024Zm23.06-23.9c2.1,2.1,3.774,4.612,5.87,6.708H53.433A83.955,83.955,0,0,0,59.3,24.125ZM79.428,42.574c-1.258-1.677-2.1-3.354-3.354-5.031A60.147,60.147,0,0,1,85.3,39.22a75.59,75.59,0,0,1-3.354,8.8A20.451,20.451,0,0,0,79.428,42.574ZM30.792,27.06c-1.258-8.8,0-15.094,3.354-17.191a5.959,5.959,0,0,1,2.516-.839c4.612,0,11.321,3.774,18.868,10.9a134.141,134.141,0,0,0-9.224,11.321A82.5,82.5,0,0,0,31.63,33.769,36.7,36.7,0,0,1,30.792,27.06ZM21.568,65.634C13.6,62.28,8.151,57.668,8.151,54.314c0-3.774,5.031-7.966,13-11.321a31.421,31.421,0,0,1,6.708-2.1,63.175,63.175,0,0,0,5.451,13.836A107.267,107.267,0,0,0,28.276,68.15c-2.516-.839-4.612-1.677-6.708-2.516ZM33.727,98.757c-3.354-1.677-4.612-8.386-3.354-17.19.419-2.1.839-4.612,1.258-7.128,4.612.839,9.224,1.677,14.256,2.1A134.14,134.14,0,0,0,55.11,87.856c-7.547,7.128-14.256,10.9-18.868,10.9-.839.419-1.677,0-2.516,0Zm54.506-17.19c1.258,8.8,0,15.094-3.354,17.19a5.959,5.959,0,0,1-2.516.839c-4.612,0-11.321-3.774-18.868-10.9A83.288,83.288,0,0,0,72.72,77.374a128.811,128.811,0,0,0,14.256-2.1q.629,2.516,1.258,6.289Zm9.224-15.933a31.42,31.42,0,0,1-6.708,2.1,107.266,107.266,0,0,0-5.031-13.417c2.1-4.612,3.774-9.224,5.451-13.836,2.1.839,4.612,1.258,6.708,2.1,7.966,3.354,13,7.547,13,11.321-.419,3.774-5.451,8.386-13.417,11.74Z" transform="translate(0)" fill="#fff"/>
          <path id="Path_238" data-name="Path 238" d="M24.282,34.464A10.482,10.482,0,1,0,13.8,23.982,10.38,10.38,0,0,0,24.282,34.464Z" transform="translate(35.44 30.332)" fill="#fff"/>
        </g>
        <path id="python" d="M63.377,13.26a69.044,69.044,0,0,0-11.556.987c-10.234,1.808-12.092,5.592-12.092,12.571v9.217H63.913v3.072H30.653c-7.028,0-13.183,4.225-15.108,12.261-2.22,9.212-2.319,14.96,0,24.578,1.719,7.16,5.824,12.261,12.853,12.261h8.315V77.159A15.368,15.368,0,0,1,51.821,62.135H75.976A12.184,12.184,0,0,0,88.068,49.846V26.818c0-6.554-5.529-11.477-12.092-12.571a75.43,75.43,0,0,0-12.6-.987ZM50.3,20.673A4.609,4.609,0,1,1,45.761,25.3,4.589,4.589,0,0,1,50.3,20.673ZM91.084,39.107V49.846A15.511,15.511,0,0,1,75.976,65.18H51.821A12.337,12.337,0,0,0,39.729,77.469V100.5c0,6.554,5.7,10.409,12.092,12.289a40.461,40.461,0,0,0,24.156,0c6.088-1.763,12.092-5.31,12.092-12.289V91.28H63.913V88.208H100.16c7.028,0,9.648-4.9,12.092-12.261,2.525-7.575,2.417-14.861,0-24.578-1.737-7-5.054-12.261-12.092-12.261ZM77.5,97.425a4.609,4.609,0,1,1-4.538,4.594A4.564,4.564,0,0,1,77.5,97.425Z" transform="translate(5169.158 7126.74)" fill="#fbfbfb" opacity="0.3"/>
        <g id="iphone" transform="translate(5219.522 6848.371) rotate(27)">
          <path id="Path_239" data-name="Path 239" d="M468.461,88.024c0-9.741-6.02-21.075-13.432-25.294L347.581,1.585c-7.415-4.216-13.432.267-13.432,10.009V249.947c0,9.741,6.017,21.075,13.432,25.294l107.448,61.143c7.412,4.219,13.432-.265,13.432-10.006Z" transform="translate(-27.187 0)" fill="#2d6f98"/>
          <path id="Path_240" data-name="Path 240" d="M320.242,1.935,305.23,10.488l20.041,6.537,10.97-9.789Zm109.587,344.84,15.008-8.473-9.536-5.386Z" transform="translate(-8.045 -1.281)" fill="#2d6f98"/>
          <path id="Path_241" data-name="Path 241" d="M427.388,111.739c0-9.741-6.02-21.075-13.432-25.294L306.508,25.3c-7.415-4.216-13.432.267-13.432,10.009V273.659c0,9.744,6.017,21.077,13.432,25.294L413.956,360.1c7.412,4.219,13.432-.265,13.432-10.009Z" transform="translate(0 -15.697)" fill="#295e80"/>
          <path id="Path_242" data-name="Path 242" d="M433.127,130.607c0-8.925-5.521-19.31-12.322-23.176L322.219,51.4c-6.8-3.865-12.322.244-12.322,9.171V288.834c0,8.925,5.521,19.31,12.322,23.176L420.8,368.036c6.8,3.865,12.322-.244,12.322-9.171Z" transform="translate(-11.135 -33.064)" fill="#fff"/>
          <path id="Path_243" data-name="Path 243" d="M702.175,350.3a4.875,4.875,0,0,0-2.034-3.887c-1.122-.649-2.034.041-2.034,1.538v51.062a4.875,4.875,0,0,0,2.034,3.887c1.122.649,2.034-.041,2.034-1.538Zm0,63.7a4.878,4.878,0,0,0-2.034-3.887c-1.122-.647-2.034.043-2.034,1.54v16.582a4.878,4.878,0,0,0,2.034,3.887c1.122.647,2.034-.041,2.034-1.538Z" transform="translate(-266.168 -229.139)" fill="#295e80"/>
          <path id="Path_244" data-name="Path 244" d="M702.175,429.313l-4.068-2.347v3.908l4.068,2.349Z" transform="translate(-266.168 -282.617)" fill="#2a546f"/>
          <path id="Path_245" data-name="Path 245" d="M470.5,159.665c0-3.4-2.07-7.356-4.62-8.827l-28.567-16.493c-2.55-1.473-4.622.093-4.622,3.493s2.072,7.356,4.622,8.827l28.567,16.493C468.432,164.631,470.5,163.067,470.5,159.665Z" transform="translate(-91.576 -88.559)" fill="#838181"/>
          <path id="Path_246" data-name="Path 246" d="M338.573,350.229a1.3,1.3,0,0,0-.544-1.041l-13.413-7.745c-.3-.174-.544.012-.544.413v5.814a1.306,1.306,0,0,0,.544,1.041l13.413,7.743c.3.174.544-.01.544-.411Zm75.845,43.788a1.305,1.305,0,0,0-.544-1.041l-22.221-12.828c-.3-.174-.544.01-.544.411v5.814a1.31,1.31,0,0,0,.544,1.043l22.221,12.828c.3.174.544-.012.544-.413v-5.814Z" transform="translate(-20.517 -225.965)" fill="#f2f2f2"/>
          <path id="Path_247" data-name="Path 247" d="M492.848,439.3a1.306,1.306,0,0,0-.544-1.041l-7.824-4.515c-.3-.174-.544.01-.544.411v5.814a1.3,1.3,0,0,0,.544,1.041l7.824,4.517c.3.174.544-.012.544-.413Z" transform="translate(-125.427 -287.06)" fill="#c93333"/>
          <path id="Path_248" data-name="Path 248" d="M408.542,390.626a1.305,1.305,0,0,0-.544-1.041l-30.5-17.611c-.3-.172-.547.012-.547.413V378.2a1.3,1.3,0,0,0,.547,1.041L408,396.853c.3.172.544-.012.544-.413Z" transform="translate(-55.042 -246.175)" fill="#f2f2f2"/>
          <path id="Path_249" data-name="Path 249" d="M348.821,444.148a6.957,6.957,0,0,1,3.147,5.451c0,2.006-1.409,2.82-3.147,1.817a6.963,6.963,0,0,1-3.147-5.451C345.674,443.959,347.085,443.145,348.821,444.148Z" transform="translate(-34.816 -293.706)" fill="#c93333"/>
          <path id="Path_250" data-name="Path 250" d="M387.608,465.037a1.312,1.312,0,0,0-.547-1.043l-13.413-7.743c-.3-.174-.544.01-.544.411v5.816a1.305,1.305,0,0,0,.544,1.041l13.413,7.743c.3.174.547-.01.547-.411v-5.814ZM448.3,500.079a1.3,1.3,0,0,0-.544-1.041l-7.59-4.384c-.3-.172-.544.012-.544.413v5.814a1.3,1.3,0,0,0,.544,1.041l7.59,4.381c.3.174.544-.01.544-.411Zm19.941,11.513a1.3,1.3,0,0,0-.544-1.041l-14.433-8.333c-.3-.174-.544.01-.544.411v5.814a1.31,1.31,0,0,0,.544,1.043l14.433,8.332c.3.172.544-.012.544-.413Z" transform="translate(-51.951 -301.958)" fill="#f2f2f2"/>
          <path id="Path_251" data-name="Path 251" d="M538.759,552.3a1.306,1.306,0,0,0-.544-1.041l-7.822-4.517c-.3-.172-.547.012-.547.413v5.814a1.308,1.308,0,0,0,.547,1.041l7.822,4.517c.3.172.544-.012.544-.413Z" transform="translate(-155.598 -361.86)" fill="#c93333"/>
          <path id="Path_252" data-name="Path 252" d="M455.264,504.1a1.3,1.3,0,0,0-.544-1.041l-30.5-17.611c-.3-.174-.544.012-.544.413v5.814a1.306,1.306,0,0,0,.544,1.041l30.5,17.608c.3.174.544-.01.544-.411Z" transform="translate(-85.703 -321.283)" fill="#f2f2f2"/>
          <path id="Path_253" data-name="Path 253" d="M348.821,482a6.956,6.956,0,0,1,3.147,5.448c0,2.006-1.409,2.82-3.147,1.817a6.959,6.959,0,0,1-3.147-5.448C345.674,481.812,347.085,481,348.821,482Z" transform="translate(-34.816 -318.762)" fill="#c93333"/>
          <path id="Path_254" data-name="Path 254" d="M387.608,502.889a1.312,1.312,0,0,0-.547-1.043L373.648,494.1c-.3-.174-.544.01-.544.411v5.814a1.31,1.31,0,0,0,.544,1.043l13.413,7.743c.3.174.547-.01.547-.411ZM448.3,537.931a1.3,1.3,0,0,0-.544-1.041l-7.59-4.384c-.3-.172-.544.012-.544.413v5.814a1.306,1.306,0,0,0,.544,1.041l7.59,4.381c.3.174.544-.01.544-.411Zm19.941,11.513a1.3,1.3,0,0,0-.544-1.041l-14.433-8.333c-.3-.174-.544.01-.544.411v5.814a1.3,1.3,0,0,0,.544,1.041l14.433,8.333c.3.174.544-.01.544-.411Z" transform="translate(-51.951 -327.013)" fill="#f2f2f2"/>
          <path id="Path_255" data-name="Path 255" d="M538.759,590.155a1.3,1.3,0,0,0-.544-1.041l-7.822-4.517c-.3-.174-.547.012-.547.413v5.814a1.308,1.308,0,0,0,.547,1.041l7.822,4.517c.3.172.544-.012.544-.413Z" transform="translate(-155.598 -386.913)" fill="#c93333"/>
          <path id="Path_256" data-name="Path 256" d="M455.264,541.95a1.31,1.31,0,0,0-.544-1.043l-30.5-17.608c-.3-.174-.544.012-.544.413v5.814a1.305,1.305,0,0,0,.544,1.041l30.5,17.608c.3.174.544-.01.544-.411Z" transform="translate(-85.703 -346.338)" fill="#f2f2f2"/>
          <path id="Path_257" data-name="Path 257" d="M338.573,390.572a1.306,1.306,0,0,0-.544-1.041l-13.413-7.743c-.3-.174-.544.01-.544.411v5.814a1.31,1.31,0,0,0,.544,1.043l13.413,7.743c.3.174.544-.012.544-.413Zm75.845,43.79a1.305,1.305,0,0,0-.544-1.041L391.653,420.49c-.3-.172-.544.012-.544.413v5.814a1.3,1.3,0,0,0,.544,1.041l22.221,12.831c.3.174.544-.012.544-.413Z" transform="translate(-20.516 -252.67)" fill="#f2f2f2"/>
          <path id="Path_258" data-name="Path 258" d="M492.848,479.643a1.306,1.306,0,0,0-.544-1.041l-7.824-4.517c-.3-.172-.544.012-.544.413v5.814a1.306,1.306,0,0,0,.544,1.041l7.824,4.517c.3.172.544-.012.544-.413Z" transform="translate(-125.427 -313.764)" fill="#c93333"/>
          <path id="Path_259" data-name="Path 259" d="M408.542,430.97a1.3,1.3,0,0,0-.544-1.041l-30.5-17.611c-.3-.174-.547.012-.547.413v5.814a1.308,1.308,0,0,0,.547,1.041L408,437.194c.3.174.544-.01.544-.411Z" transform="translate(-55.042 -272.878)" fill="#f2f2f2"/>
          <path id="Path_260" data-name="Path 260" d="M337.816,603.141a1.306,1.306,0,0,0-.544-1.041l-12.656-7.306c-.3-.174-.544.01-.544.411v5.814a1.3,1.3,0,0,0,.544,1.041l12.656,7.308c.3.174.544-.012.544-.413Z" transform="translate(-20.517 -393.663)" fill="#c93333"/>
          <path id="Path_261" data-name="Path 261" d="M391.714,634.259a1.31,1.31,0,0,0-.544-1.043l-12.656-7.306c-.3-.174-.544.01-.544.411v5.816a1.309,1.309,0,0,0,.544,1.041l12.656,7.306c.3.174.544-.01.544-.411ZM431.4,657.17a1.305,1.305,0,0,0-.544-1.041l-30.5-17.608c-.3-.174-.544.01-.544.411v5.814a1.3,1.3,0,0,0,.544,1.041l30.5,17.611c.3.174.544-.012.544-.413Z" transform="translate(-55.596 -414.258)" fill="#f2f2f2"/>
          <path id="Path_262" data-name="Path 262" d="M443.569,586.1a1.31,1.31,0,0,0-.544-1.043l-14.385-8.3c-.3-.174-.544.01-.544.411v5.814a1.31,1.31,0,0,0,.544,1.043l14.385,8.3c.3.174.544-.01.544-.411Zm19.392,11.2a1.3,1.3,0,0,0-.544-1.041l-14.385-8.306c-.3-.174-.544.012-.544.413v5.814a1.306,1.306,0,0,0,.544,1.041l14.385,8.306c.3.172.544-.012.544-.413Z" transform="translate(-88.582 -381.719)" fill="#c93333"/>
          <path id="Path_263" data-name="Path 263" d="M355.661,535.344a1.306,1.306,0,0,0-.544-1.041l-30.5-17.608c-.3-.174-.544.01-.544.411v5.814a1.3,1.3,0,0,0,.544,1.041l30.5,17.611c.3.172.544-.012.544-.413v-5.814Zm68.41,39.5a1.305,1.305,0,0,0-.544-1.041l-24.358-14.063c-.3-.174-.544.01-.544.411v5.816a1.305,1.305,0,0,0,.544,1.041l24.358,14.063c.3.172.544-.012.544-.413Z" transform="translate(-20.516 -341.967)" fill="#f2f2f2"/>
          <path id="Path_264" data-name="Path 264" d="M443.569,627a1.306,1.306,0,0,0-.544-1.041l-14.385-8.3c-.3-.174-.544.01-.544.411v5.814a1.31,1.31,0,0,0,.544,1.043l14.385,8.3c.3.174.544-.01.544-.411Zm19.392,11.2a1.3,1.3,0,0,0-.544-1.041l-14.385-8.306c-.3-.174-.544.012-.544.413v5.814a1.306,1.306,0,0,0,.544,1.041l14.385,8.3c.3.174.544-.01.544-.411Z" transform="translate(-88.582 -408.794)" fill="#c93333"/>
          <path id="Path_265" data-name="Path 265" d="M355.661,576.245a1.306,1.306,0,0,0-.544-1.041l-30.5-17.611c-.3-.172-.544.012-.544.413v5.814a1.3,1.3,0,0,0,.544,1.041l30.5,17.61c.3.172.544-.012.544-.413v-5.814Zm68.41,39.5a1.3,1.3,0,0,0-.544-1.041l-24.358-14.063c-.3-.174-.544.01-.544.411v5.814a1.31,1.31,0,0,0,.544,1.043l24.358,14.063c.3.172.544-.012.544-.413Z" transform="translate(-20.516 -369.04)" fill="#f2f2f2"/>
        </g>
        <g id="cloud-server" transform="translate(5669.375 6953.471) rotate(30)">
          <path id="Path_124" data-name="Path 124" d="M511.186,470.218,360.729,557.083V703.108l150.457-86.865Z" transform="translate(-141.16 -218.944)" fill="#4fc1f4"/>
          <path id="Path_125" data-name="Path 125" d="M276.4,784.07,62.975,660.85c-2.849-1.645-5.161.1-5.161,3.9v57.135c0,2.658,1.619,5.754,3.613,6.906L271.235,849.925c2.849,1.645,5.164-.1,5.164-3.9Zm225.76-122.812c0-2.95-1.794-4.306-4.008-3.031L276.4,786.259v58.793c0,4.426,2.694,6.462,6.013,4.546L498.652,724.752c1.936-1.117,3.507-4.122,3.507-6.7Z" transform="translate(-0.116 -306.262)" fill="#c4cadd"/>
          <path id="Path_126" data-name="Path 126" d="M324.769,529.052,151.307,629.2l171.409,98.965L496.181,628.014Z" transform="translate(-43.648 -246.338)" fill="#255b7d"/>
          <path id="Path_127" data-name="Path 127" d="M448.169,895.371l23.219-1.794,4.31,43.31-15.131,8.736s-1.732,1.8-5.99-.676S448.169,895.371,448.169,895.371Z" transform="translate(-181.874 -416.07)" fill="#c4cadd"/>
          <path id="Path_128" data-name="Path 128" d="M92.135,720.846l-5.728-3.306V747.07l5.728,3.306Zm15.927,9.2-5.728-3.306v29.53l5.728,3.306Zm15.927,9.2-5.728-3.306v29.529l5.728,3.306Zm15.924,9.2-5.728-3.306v29.526l5.728,3.309Z" transform="translate(-13.429 -334.103)" fill="#848ba6"/>
          <path id="Path_129" data-name="Path 129" d="M398.685,916.252a13.713,13.713,0,0,1,6.2,10.734c0,3.95-2.778,5.553-6.2,3.581a13.708,13.708,0,0,1-6.2-10.737C392.485,915.88,395.263,914.277,398.685,916.252Z" transform="translate(-155.946 -426.234)" fill="#255b7c"/>
          <path id="Path_130" data-name="Path 130" d="M453.046,995.138s7.288,5.861,14.868-.058.346-22.71.346-22.71l-15.043.048-.172,22.72Z" transform="translate(-184.145 -452.757)" fill="#c4cadd"/>
          <path id="Path_131" data-name="Path 131" d="M466.861,895.238a12.63,12.63,0,0,0,7.933-2.079l11.938-6.932v28.231l-10.588,6.184v17.565l10.588-6.042v15.652l-13.01,7.673a23.81,23.81,0,0,1-2.665,1.376,8.91,8.91,0,0,1-2.263.615c-.385.042-.761.1-1.082.117-.5.026-.852.016-.852.016Z" transform="translate(-190.578 -412.647)" fill="#a3abc1"/>
          <path id="Path_132" data-name="Path 132" d="M58.022,659.626c.78-1.292,4.358-.427,4.358-.427L271.737,780.071s2.992,2.959,8.321.441c4.847-2.289,184.354-106.344,216.95-125.241,3.257-1.891,5.035,2.425,5.035,2.425l-.01,5.109L284.417,788.444s-6.272,5.466-17.342-.618S57.7,666.94,57.7,666.94,57.242,660.918,58.022,659.626Z" transform="translate(0 -304.886)" fill="#f3f5fb"/>
          <path id="Path_133" data-name="Path 133" d="M467.225,429.611l5.6-2.286L688.711,547.239l-.424,2.367-14.535,7.868-206.527-119.3Z" transform="translate(-190.747 -198.972)" fill="#f3f5fb"/>
          <path id="Path_134" data-name="Path 134" d="M503.555,547.945s4.391,1.36,4.08,4.8l-2.564,1.01-2.866-2.208-.46-2.558Zm-433.871,6.2-.11-6.5L275.367,428.84l6.7,1.476v8.043l-206.109,119Z" transform="translate(-5.592 -199.677)" fill="#f3f5fb"/>
          <path id="Path_135" data-name="Path 135" d="M454.137,427.231a12.483,12.483,0,0,1,12.6-.978L465.822,429l-4.886,4.666-2.707-.735-2.111-2.6Z" transform="translate(-184.653 -197.9)" fill="#f3f5fb"/>
          <path id="Path_136" data-name="Path 136" d="M466.739,443.428l.894-.767,212.86,116.294c.631.346.806.644.826.984A1.13,1.13,0,0,1,680.6,561l-46.878,26.719L466.607,491.239l.133-47.81Z" transform="translate(-190.459 -206.112)" fill="#c4cadd"/>
          <path id="Path_137" data-name="Path 137" d="M464.468,442.8a2.53,2.53,0,0,1,2.169-.256l-.019.512-.878.725-1.111-.489Z" transform="translate(-189.463 -206)" fill="#c4cadd"/>
          <path id="Path_138" data-name="Path 138" d="M833.318,737c3.422-1.979,6.2-.372,6.2,3.581a13.713,13.713,0,0,1-6.2,10.74c-3.426,1.979-6.2.373-6.2-3.581A13.709,13.709,0,0,1,833.318,737Z" transform="translate(-358.32 -342.768)" fill="#255b7d"/>
          <path id="Path_139" data-name="Path 139" d="M685.691,772.477c0-4.734-2.885-6.913-6.434-4.863l-105.308,60.8c-3.552,2.053-6.433,7.56-6.433,12.294s2.882,6.913,6.433,4.863l105.308-60.8C682.806,782.719,685.691,777.211,685.691,772.477Z" transform="translate(-237.445 -357.059)" fill="#255b7d"/>
          <path id="Path_140" data-name="Path 140" d="M57.721,660.847s-1.729-7.81,8.7-12.272l-2.166,3.056c11.394,12.217,8.817,13.981-5.129,7.234Z" transform="translate(-0.022 -301.991)" fill="#f3f5fb"/>
          <path id="Path_141" data-name="Path 141" d="M119.1,587.931,285.64,491.783V443.9s-.479-1.285-1.386-.764c-16.361,9.4-172.572,99.176-205.073,118.176-.725.428-1.719,1.321-1.486,2.347.2.865,1.519,1.875,2.108,2.267C86.456,570.363,119.1,587.931,119.1,587.931Z" transform="translate(-9.356 -206.275)" fill="#c4cadd"/>
          <path id="Path_142" data-name="Path 142" d="M307.608,642.516l165.72-16.39-.573,60.7a3.487,3.487,0,0,1-.172,1.435c-.194.372-.243.369-.984.8l-71.518,41.289a7.811,7.811,0,0,1-3.562,1.25,6.862,6.862,0,0,1-3.406-1.1L309.5,683.663c-1.221-.683-1.256-.644-1.57-1.276a6.212,6.212,0,0,1-.317-2.516Z" transform="translate(-116.426 -291.538)" fill="#747474"/>
          <path id="Path_143" data-name="Path 143" d="M283.131,571,64.546,444.8v42.678a5.77,5.77,0,0,0,2.409,4.6L279.689,614.9c1.9,1.1,3.442-.068,3.442-2.6ZM508.878,440.661,283.131,571v42.678c0,1.771,1.078,2.587,2.409,1.82L506.469,487.944a5.775,5.775,0,0,0,2.409-4.6Z" transform="translate(-3.25 -205.181)" fill="#bbc6e6"/>
          <path id="Path_144" data-name="Path 144" d="M471.539,535.395l1.1,20.628L698.383,425.686l.087-17.187Z" transform="translate(-192.756 -190.206)" fill="#c93333"/>
          <path id="Path_145" data-name="Path 145" d="M64.986,408.021l-.44,21.577L283.131,555.8V535.816Z" transform="translate(-3.25 -189.983)" fill="#c93333"/>
          <path id="Path_146" data-name="Path 146" d="M302.32,172.733c-7.554-4.361-19-4.834-25.537-1.059L69.66,291.255c-6.54,3.779-5.718,10.384,1.833,14.745L272.218,421.887c7.551,4.361,19,4.837,25.537,1.059L504.878,303.365c6.54-3.775,5.718-10.384-1.836-14.745Z" transform="translate(-3.576 -78.748)" fill="#2d6f98"/>
          <path id="Path_147" data-name="Path 147" d="M454.9,672.242l23.219-1.794,4.31,43.307-15.13,8.736s-1.732,1.807-5.99-.673S454.9,672.242,454.9,672.242Z" transform="translate(-185.008 -312.176)" fill="#bbc6e6"/>
          <path id="Path_148" data-name="Path 148" d="M64.34,435.629l214.3,122.955a10.84,10.84,0,0,0,9.506-.162c5.333-2.519,220.657-127.031,220.657-127.031l-.026,4.954L291.168,561.983s-6.272,5.466-17.342-.618S64.45,440.48,64.45,440.48l-.11-4.85Z" transform="translate(-3.154 -200.865)" fill="#f3f5fb"/>
          <path id="Path_149" data-name="Path 149" d="M98.867,483.527l-5.728-3.306v29.529l5.728,3.306Zm15.927,9.2-5.728-3.306v29.529l5.728,3.306Zm15.927,9.2-5.728-3.306v29.526l5.728,3.309Zm15.924,9.2-5.728-3.309v29.529l5.728,3.306ZM262.9,585.841a13.7,13.7,0,0,1,6.2,10.734c0,3.95-2.778,5.553-6.2,3.578a13.708,13.708,0,0,1-6.2-10.734C256.7,585.468,259.478,583.866,262.9,585.841Zm232.262-96.492c3.422-1.978,6.2-.372,6.2,3.581a13.714,13.714,0,0,1-6.2,10.74c-3.426,1.978-6.2.372-6.2-3.581A13.709,13.709,0,0,1,495.159,489.349Z" transform="translate(-16.564 -223.602)" fill="#255b7d"/>
          <path id="Path_150" data-name="Path 150" d="M473.593,672.107a17.019,17.019,0,0,0,4.65-.521,13.7,13.7,0,0,0,3.484-1.716l11.737-6.777v21.176l-10.588,6.11V704.3l10.474-6.048v11l-17.727,10.073a3.458,3.458,0,0,1-.424.188,4.076,4.076,0,0,1-.57.136,7.2,7.2,0,0,1-1.036.026Z" transform="translate(-193.712 -308.751)" fill="#255b7d"/>
          <path id="Path_151" data-name="Path 151" d="M692.423,534.7c0-4.737-2.885-6.916-6.434-4.863l-105.308,60.8c-3.552,2.05-6.433,7.557-6.433,12.294s2.882,6.913,6.433,4.863l105.308-60.8C689.538,544.938,692.423,539.43,692.423,534.7Z" transform="translate(-240.579 -246.342)" fill="#255b7d"/>
          <path id="Path_152" data-name="Path 152" d="M714.4,386.577v11.294l-7.816,3.61-1.573-10.274Z" transform="translate(-301.465 -179.998)" fill="#98aada"/>
          <path id="Path_153" data-name="Path 153" d="M368.669,265.032c-6.142-3.546-15.448-3.931-20.768-.861l-119.96,69.261c-5.317,3.07-4.65,8.441,1.493,11.987L346.28,412.879c6.139,3.545,15.445,3.931,20.764.861L487,344.483c5.317-3.073,4.65-8.444-1.493-11.99Z" transform="translate(-77.66 -122.038)" fill="#98a9d9"/>
          <path id="Path_154" data-name="Path 154" d="M224.356,383.6v11.2l4.714,4.144,4.562-9.063-9.276-6.281Z" transform="translate(-77.661 -178.61)" fill="#98aada"/>
          <path id="Path_155" data-name="Path 155" d="M368.669,243.419c-6.142-3.545-15.448-3.931-20.768-.861l-119.96,69.258c-5.317,3.073-4.65,8.444,1.493,11.99L346.28,391.266c6.139,3.546,15.445,3.931,20.764.861L487,322.867c5.317-3.069,4.65-8.441-1.493-11.987Z" transform="translate(-77.66 -111.975)" fill="#4463b9"/>
          <path id="Path_156" data-name="Path 156" d="M398.437,290.122l26.939,15.555v5.184l19.923,11.5h8.347l30.87,17.824-24.643,14.227H451.33l-20.094,11.6v6.21l-30.7,17.727-28.008-16.17v-5.028l-19.955-11.52h-9.4l-30.429-17.643,26.168-15.108,9.26-.081,19.7-11.375-.026-5.249Z" transform="translate(-118.818 -135.087)" fill="#3e5aa9"/>
          <path id="Path_157" data-name="Path 157" d="M398.437,281.457l26.939,15.551V302.2L445.3,313.7h8.347l30.87,17.821-24.643,14.23H451.33l-20.094,11.6v6.21l-30.7,17.727-28.008-16.173v-5.025l-19.955-11.52h-9.4l-30.429-17.643,26.168-15.108,9.26-.084,19.7-11.371-.026-5.249Z" transform="translate(-118.818 -131.052)" fill="#637dc6"/>
          <path id="Path_158" data-name="Path 158" d="M414.644,353.995a17.6,17.6,0,0,1,15.914,0c4.391,2.535,4.391,6.65,0,9.186a17.579,17.579,0,0,1-15.914,0C410.25,360.645,410.25,356.53,414.644,353.995Z" transform="translate(-164.73 -163.942)" fill="#d9dff1"/>
          <path id="Path_159" data-name="Path 159" d="M444.759,348.242a12.559,12.559,0,0,1,11.349,0c3.131,1.807,3.131,4.744,0,6.55a12.558,12.558,0,0,1-11.349,0C441.628,352.986,441.628,350.049,444.759,348.242Z" transform="translate(-179.193 -161.518)" fill="#d9dff1"/>
          <path id="Path_160" data-name="Path 160" d="M457.082,350.879c6.45-3.724,16.924-3.724,23.374,0s6.453,9.772,0,13.5-16.924,3.724-23.374,0S450.629,354.606,457.082,350.879Z" transform="translate(-183.771 -162.076)" fill="#d9dff1"/>
          <path id="Path_161" data-name="Path 161" d="M469.555,379.748c5.912-3.413,15.509-3.413,21.419,0s5.909,8.953,0,12.365-15.506,3.413-21.418,0-5.909-8.953,0-12.365Z" transform="translate(-189.769 -175.627)" fill="#d9dff1"/>
          <path id="Path_162" data-name="Path 162" d="M433.429,355.651l-15.914,9.186,29.873,17.248L463.3,372.9Z" transform="translate(-167.601 -165.599)" fill="#d9dff1"/>
          <path id="Path_163" data-name="Path 163" d="M156.169,409.263s-2.325,9.085,7.509,14.765l157.713,91.055s6.1,5.087,18.44-4.174l166.876-96.346s10.044-5.184,6.2-15.529L325.681,496.223Z" transform="translate(-45.801 -185.799)" fill="#5088a2"/>
          <path id="Path_164" data-name="Path 164" d="M283.131,401.875,64.546,275.677v42.678a5.768,5.768,0,0,0,2.409,4.6L279.689,445.778c1.9,1.1,3.442-.068,3.442-2.6ZM508.878,271.538,283.131,401.875v42.678c0,1.774,1.078,2.59,2.409,1.823L506.469,318.821a5.769,5.769,0,0,0,2.409-4.6Z" transform="translate(-3.25 -126.434)" fill="#bbc6e6"/>
          <path id="Path_165" data-name="Path 165" d="M471.539,366.272l1.1,20.628L698.383,256.563l.087-17.187Z" transform="translate(-192.756 -111.458)" fill="#255b7d"/>
          <path id="Path_166" data-name="Path 166" d="M64.986,238.9l-.44,21.58,218.585,126.2V366.693Z" transform="translate(-3.25 -111.235)" fill="#255b7d"/>
          <path id="Path_167" data-name="Path 167" d="M302.32,3.61c-7.554-4.361-19-4.834-25.537-1.059L69.66,122.135c-6.54,3.775-5.718,10.384,1.833,14.742l200.725,115.89c7.551,4.358,19,4.834,25.537,1.059L504.878,134.242c6.54-3.775,5.718-10.384-1.836-14.742Z" transform="translate(-3.576 0)" fill="#32749d"/>
          <path id="Path_168" data-name="Path 168" d="M454.9,503.119l23.219-1.794,4.31,43.306-15.13,8.739s-1.732,1.8-5.99-.677S454.9,503.119,454.9,503.119Z" transform="translate(-185.008 -233.428)" fill="#bbc6e6"/>
          <path id="Path_169" data-name="Path 169" d="M64.34,266.509l214.3,122.958a10.833,10.833,0,0,0,9.506-.165c5.333-2.516,220.657-127.028,220.657-127.028l-.026,4.951L291.168,392.863s-6.272,5.466-17.342-.618S64.45,271.363,64.45,271.363Z" transform="translate(-3.154 -122.12)" fill="#f3f5fb"/>
          <path id="Path_170" data-name="Path 170" d="M98.867,314.4,93.139,311.1v29.529l5.728,3.306Zm15.927,9.2-5.728-3.306v29.529l5.728,3.306Zm15.927,9.2-5.728-3.306v29.529l5.728,3.306Zm15.924,9.2-5.728-3.306v29.526l5.728,3.309ZM262.9,416.718a13.7,13.7,0,0,1,6.2,10.733c0,3.95-2.778,5.553-6.2,3.578a13.708,13.708,0,0,1-6.2-10.733C256.7,416.345,259.478,414.743,262.9,416.718Zm232.262-96.492c3.422-1.975,6.2-.372,6.2,3.581a13.72,13.72,0,0,1-6.2,10.743c-3.426,1.975-6.2.369-6.2-3.581A13.71,13.71,0,0,1,495.159,320.226Z" transform="translate(-16.564 -144.854)" fill="#255b7d"/>
          <path id="Path_171" data-name="Path 171" d="M473.593,502.987a16.858,16.858,0,0,0,4.65-.521,13.579,13.579,0,0,0,3.484-1.716l11.737-6.774v21.172l-10.588,6.113v13.923l10.474-6.045v11l-17.727,10.073a3.2,3.2,0,0,1-.424.184,3.657,3.657,0,0,1-.57.136,6.866,6.866,0,0,1-1.036.029Z" transform="translate(-193.712 -230.006)" fill="#255b7d"/>
          <path id="Path_172" data-name="Path 172" d="M692.423,365.575c0-4.734-2.885-6.913-6.434-4.863l-105.308,60.8c-3.552,2.053-6.433,7.56-6.433,12.294s2.882,6.913,6.433,4.863l105.308-60.8C689.538,375.816,692.423,370.309,692.423,365.575Z" transform="translate(-240.579 -167.596)" fill="#255b7d"/>
          <path id="Path_173" data-name="Path 173" d="M368.669,129.953c-6.142-3.549-15.448-3.934-20.768-.861L227.942,198.35c-5.317,3.069-4.65,8.441,1.493,11.99L346.28,277.8c6.139,3.546,15.445,3.934,20.764.861L487,209.4c5.317-3.069,4.65-8.444-1.493-11.99Z" transform="translate(-77.66 -59.141)" fill="#323654"/>
          <path id="Path_174" data-name="Path 174" d="M714.4,177.773v11.294l-7.816,3.61L705.01,182.4Z" transform="translate(-301.465 -82.774)" fill="#255b7d"/>
          <path id="Path_175" data-name="Path 175" d="M368.669,56.228c-6.142-3.545-15.448-3.931-20.768-.861l-119.96,69.258c-5.317,3.073-4.65,8.444,1.493,11.99L346.28,204.075c6.139,3.545,15.445,3.931,20.764.858L487,135.675c5.317-3.07,4.65-8.441-1.493-11.987Z" transform="translate(-77.66 -24.814)" fill="#255b7d"/>
          <path id="Path_176" data-name="Path 176" d="M224.356,174.792v11.2l4.714,4.144,4.562-9.063Z" transform="translate(-77.661 -81.386)" fill="#255b7d"/>
          <path id="Path_177" data-name="Path 177" d="M368.669,34.615c-6.142-3.545-15.448-3.931-20.768-.861l-119.96,69.258c-5.317,3.073-4.65,8.444,1.493,11.99L346.28,182.459c6.139,3.549,15.445,3.934,20.764.861L487,114.062c5.317-3.069,4.65-8.441-1.493-11.99Z" transform="translate(-77.66 -14.751)" fill="#2d6f98"/>
          <g transform="matrix(0.87, -0.5, 0.5, 0.87, -643.35, 406.54)" filter="url(#Path_178)">
            <path id="Path_178-2" data-name="Path 178" d="M398.437,81.318l26.939,15.551v5.187l19.923,11.5h8.347l30.87,17.821-24.643,14.227H451.33l-20.094,11.6v6.21l-30.7,17.724-28.008-16.17v-5.025l-19.955-11.52h-9.4l-30.429-17.643,26.168-15.108,9.26-.084,19.7-11.371-.026-5.249Z" transform="translate(676.46 -122.6) rotate(30)" fill="#5088a2"/>
          </g>
          <path id="Path_179" data-name="Path 179" d="M398.437,72.653,425.376,88.2v5.187L445.3,104.9h8.347l30.87,17.821-24.643,14.227H451.33l-20.094,11.6v6.213l-30.7,17.724-28.008-16.17v-5.025l-19.955-11.52h-9.4l-30.429-17.643,26.168-15.108,9.26-.084,19.7-11.375-.026-5.245,30.588-17.659Z" transform="translate(-118.818 -33.828)" fill="#c93333"/>
          <path id="Path_180" data-name="Path 180" d="M414.644,145.184a17.6,17.6,0,0,1,15.914,0c4.391,2.538,4.391,6.654,0,9.189a17.6,17.6,0,0,1-15.914,0C410.25,151.838,410.25,147.723,414.644,145.184Z" transform="translate(-164.73 -66.715)" fill="#d9dff1"/>
          <path id="Path_181" data-name="Path 181" d="M444.759,139.436a12.539,12.539,0,0,1,11.349,0c3.131,1.807,3.131,4.74,0,6.55a12.559,12.559,0,0,1-11.349,0C441.628,144.176,441.628,141.242,444.759,139.436Z" transform="translate(-179.193 -64.291)" fill="#d9dff1"/>
          <path id="Path_182" data-name="Path 182" d="M457.082,142.075c6.45-3.724,16.924-3.724,23.374,0s6.453,9.772,0,13.5-16.924,3.727-23.374,0S450.629,145.8,457.082,142.075Z" transform="translate(-183.771 -64.852)" fill="#d9dff1"/>
          <path id="Path_183" data-name="Path 183" d="M469.555,170.944c5.912-3.413,15.509-3.413,21.419,0s5.909,8.953,0,12.365-15.506,3.413-21.418,0-5.909-8.953,0-12.365Z" transform="translate(-189.769 -78.403)" fill="#d9dff1"/>
          <path id="Path_184" data-name="Path 184" d="M433.429,146.841l-15.914,9.189,29.873,17.248,15.914-9.189Z" transform="translate(-167.601 -68.372)" fill="#d9dff1"/>
          <path id="Path_185" data-name="Path 185" d="M550.369,616.719l53.2,29.614s18.193,4.892,18.193-19.583V535.973s.139-13.356-14.875-22.027l-99.976-57.718-10.138,5.854,97.809,56.468s13.311,7.907,15.7,16.847c2.662,9.95.771,89.265.771,89.265s-.133,14.412-9.1,9.231-42.811-22.237-42.811-22.237Zm-230.73,89.368,8.137,4.7L247.6,757.073s-17.319,8.758-17.319-19.77V529.788s-1.677-14.706,13.576-23.513l30.494-17.6,8.428,4.863-34.189,21.833s-6.67,4.585-7.758,16.685c-1.159,12.887-2.273,207.865,0,206.417,0,0-.537,14.315,8.6,9.04L316.643,708.7l3-2.613Z" transform="translate(-80.393 -212.429)" fill="#fbfbfb"/>
        </g>
      </g>
      <g id="_512" data-name="512" transform="translate(2394 7350)">
        <rect id="Rectangle_1" data-name="Rectangle 1" width="1153" height="1153" transform="translate(2515 -290)" fill="none"/>
        <g id="_512finalogo" data-name="512finalogo" transform="translate(2557.682 -250.668)">
          <g id="Group_4" data-name="Group 4" transform="translate(0 0)">
            <g id="logoicon">
              <g id="R" transform="translate(504.538)">
                <g transform="matrix(1, 0, 0, 1, -547.27, -115.46)" filter="url(#Path_6)">
                  <path id="Path_6-2" data-name="Path 6" d="M387.729,0S231.973,227.6,231.46,361.323,477.137,539.016,477.137,539.016s-47.437,31.328-49.846,77.261S467.519,722.55,467.519,722.55.764,560.362,0,360.5,387.729,0,387.729,0Z" transform="translate(1061.57 837.02) rotate(177)" fill="#32749d"/>
                </g>
                <g transform="matrix(1, 0, 0, 1, -547.27, -115.46)" filter="url(#Path_8)" style="mix-blend-mode: luminosity;isolation: isolate">
                  <path id="Path_8-2" data-name="Path 8" d="M387.726,0S193.969,223.9,198.854,357.439,400.129,539.964,400.129,539.964s-45.634,29.269-49.106,75.428S390.5,723.673,390.5,723.673.766,560.286,0,360.449,387.726,0,387.726,0Z" transform="translate(985.22 842.38) rotate(177)" fill="#606060"/>
                </g>
              </g>
              <g id="L" transform="translate(0 9.823)">
                <g transform="matrix(1, 0, 0, 1, -42.73, -125.28)" filter="url(#Path_10)">
                  <path id="Path_10-2" data-name="Path 10" d="M67.255,0S221.938,228.036,222.608,361.913,0,535.731,0,535.731s37.027,35.231,42.45,80.686S12.584,718.758,12.584,718.758s438.965-157.31,439.483-357.4S67.255,0,67.255,0Z" transform="translate(494.52 859.38) rotate(-178)" fill="#ed5757"/>
                </g>
                <g transform="matrix(1, 0, 0, 1, -42.73, -125.28)" filter="url(#Path_11)" style="mix-blend-mode: luminosity;isolation: isolate">
                  <path id="Path_11-2" data-name="Path 11" d="M14.874,0S169.561,228.133,170.232,362.066,0,541.06,0,541.06s39.508,37.807,42.7,83.571-29.92,99.485-29.92,99.485,386.393-162.429,386.908-362.6S14.874,0,14.874,0Z" transform="translate(494.31 864.91) rotate(-178)" fill="#606060"/>
                </g>
                <g transform="matrix(1, 0, 0, 1, -42.73, -125.28)" filter="url(#Create)" style="mix-blend-mode: luminosity;isolation: isolate">
                  <text id="Create-2" data-name="Create" transform="matrix(0.07, -1, 1, 0.07, 208.84, 572.68)" fill="#707070" font-size="43" font-family="KhmerMN, Khmer MN" opacity="0.071"><tspan x="0" y="0">Create</tspan></text>
                </g>
                <g transform="matrix(1, 0, 0, 1, -42.73, -125.28)" filter="url(#Innovate)" style="mix-blend-mode: luminosity;isolation: isolate">
                  <text id="Innovate-2" data-name="Innovate" transform="matrix(0.07, -1, 1, 0.07, 320.02, 574.59)" fill="#707070" font-size="43" font-family="KhmerMN, Khmer MN" opacity="0.069"><tspan x="0" y="0">Innovate</tspan></text>
                </g>
                <g transform="matrix(1, 0, 0, 1, -42.73, -125.28)" filter="url(#Execute_)" style="mix-blend-mode: luminosity;isolation: isolate">
                  <text id="Execute_2" data-name="Execute
" transform="matrix(0.07, -1, 1, 0.07, 949.87, 571.39)" fill="#707070" font-size="51" font-family="KhmerMN, Khmer MN" opacity="0.069"><tspan x="0" y="0">Execute</tspan><tspan x="0" y="92"></tspan></text>
                </g>
              </g>
            </g>
          </g>
        </g>
      </g>
    </g>
    <g id="code" transform="translate(5479.024 7481)">
      <path id="Path_105" data-name="Path 105" d="M283.692,459.288c-8.03-4.634-20.2-5.141-27.156-1.123L29.672,589.139c-6.955,4.018-6.086,11.042,1.951,15.683L296.6,757.8c8.03,4.641,20.2,5.141,27.156,1.13L550.616,627.953c6.955-4.018,6.086-11.042-1.951-15.683Z" transform="translate(0 -205.787)" fill="#2c6c93"/>
      <path id="Path_106" data-name="Path 106" d="M24.976,690.676v11.555l9.412,5.606L37.2,693.462Zm530.336,25.191v11.555l-11.24,5.832L540.4,720.508Z" transform="translate(0 -312.068)" fill="#2c6c93"/>
      <path id="Path_107" data-name="Path 107" d="M283.692,438.209c-8.03-4.634-20.2-5.141-27.156-1.123L29.672,568.067c-6.955,4.011-6.086,11.042,1.951,15.676L296.6,736.725c8.03,4.641,20.2,5.141,27.156,1.13L550.616,606.874c6.955-4.018,6.086-11.042-1.951-15.683Z" transform="translate(0 -196.263)" fill="#f3f5fb"/>
      <path id="Path_108" data-name="Path 108" d="M328.127,534.852a6.8,6.8,0,0,0-6.12-.253l-51.094,29.5c-1.568.9-1.369,2.485.438,3.532L516.869,709.377a6.789,6.789,0,0,0,6.113.253l51.094-29.5c1.568-.91,1.369-2.492-.438-3.532Z" transform="translate(-110.644 -241.271)" fill="#32749d" opacity="0.996"/>
      <path id="Path_109" data-name="Path 109" d="M715.349,718.443a7.715,7.715,0,0,1-6.989,0c-1.93-1.109-1.93-2.923,0-4.039a7.757,7.757,0,0,1,6.989,0C717.28,715.52,717.28,717.334,715.349,718.443Zm-39.635,22.891a7.771,7.771,0,0,1-7,0c-1.93-1.116-1.93-2.923,0-4.039a7.729,7.729,0,0,1,7,0C677.638,738.411,677.638,740.218,675.714,741.334Zm-39.642,22.884a7.729,7.729,0,0,1-7,0c-1.93-1.116-1.93-2.923,0-4.039a7.729,7.729,0,0,1,7,0C638,761.3,638,763.1,636.072,764.218ZM596.43,787.1a7.729,7.729,0,0,1-7,0c-1.924-1.116-1.924-2.923,0-4.039a7.771,7.771,0,0,1,7,0C598.361,784.18,598.361,785.987,596.43,787.1Zm-39.642,22.891a7.758,7.758,0,0,1-6.989,0c-1.93-1.116-1.93-2.93,0-4.039a7.715,7.715,0,0,1,6.989,0C558.719,807.064,558.719,808.878,556.788,809.994Zm-39.642,22.884a7.715,7.715,0,0,1-6.989,0c-1.93-1.116-1.93-2.923,0-4.039a7.715,7.715,0,0,1,6.989,0C519.077,829.955,519.077,831.762,517.146,832.878Z" transform="translate(-218.565 -322.413)" fill="#c4cbdc"/>
      <path id="Path_110" data-name="Path 110" d="M353.046,474.6l294.08,169.787.924-.527L353.97,474.063l-.924.534Zm-39.4,22.754,294.08,169.787.924-.534L314.561,496.817Z" transform="translate(-130.429 -214.196)" fill="#dee3f1"/>
      <path id="Path_111" data-name="Path 111" d="M689.093,672.456,437.023,817.99l.924.534L690.017,672.99Z" transform="translate(-186.175 -303.836)" fill="#dee3f1"/>
      <path id="Path_112" data-name="Path 112" d="M302.035,479.814a7.729,7.729,0,0,1-7,0c-1.93-1.109-1.93-2.923,0-4.039a7.772,7.772,0,0,1,7,0C303.966,476.891,303.966,478.7,302.035,479.814ZM262.393,502.7a7.772,7.772,0,0,1-7,0c-1.93-1.116-1.93-2.923,0-4.039a7.729,7.729,0,0,1,7,0C264.324,499.782,264.324,501.589,262.393,502.7Zm-39.642,22.884a7.715,7.715,0,0,1-6.989,0c-1.93-1.116-1.93-2.923,0-4.039a7.715,7.715,0,0,1,6.989,0C224.682,522.666,224.682,524.473,222.751,525.589Zm-39.642,22.884a7.715,7.715,0,0,1-6.989,0c-1.93-1.116-1.93-2.923,0-4.039a7.757,7.757,0,0,1,6.989,0C185.04,545.55,185.04,547.357,183.109,548.473Zm-39.642,22.884a7.715,7.715,0,0,1-6.989,0c-1.93-1.109-1.93-2.923,0-4.032a7.715,7.715,0,0,1,6.989,0C145.4,568.435,145.4,570.249,143.468,571.358Zm-39.635,22.891a7.729,7.729,0,0,1-7,0c-1.93-1.116-1.93-2.923,0-4.039a7.729,7.729,0,0,1,7,0C105.763,591.326,105.763,593.133,103.832,594.249Zm235.962-92.632a7.729,7.729,0,0,1-7,0c-1.93-1.116-1.93-2.923,0-4.039a7.772,7.772,0,0,1,7,0C341.725,498.693,341.725,500.5,339.795,501.616ZM300.153,524.5a7.715,7.715,0,0,1-6.989,0c-1.93-1.109-1.93-2.923,0-4.032a7.715,7.715,0,0,1,6.989,0C302.083,521.578,302.083,523.392,300.153,524.5Zm-39.642,22.891a7.757,7.757,0,0,1-6.989,0c-1.93-1.116-1.93-2.923,0-4.039a7.715,7.715,0,0,1,6.989,0C262.441,544.469,262.441,546.276,260.511,547.392Zm-39.635,22.884a7.729,7.729,0,0,1-7,0c-1.93-1.116-1.93-2.923,0-4.039a7.729,7.729,0,0,1,7,0C222.8,567.353,222.8,569.16,220.876,570.276ZM181.234,593.16a7.729,7.729,0,0,1-7,0c-1.93-1.109-1.93-2.923,0-4.032a7.729,7.729,0,0,1,7,0C183.164,590.237,183.164,592.051,181.234,593.16Zm-39.642,22.891a7.772,7.772,0,0,1-7,0c-1.924-1.116-1.924-2.923,0-4.039a7.729,7.729,0,0,1,7,0C143.522,613.128,143.522,614.936,141.592,616.051Zm235.962-92.632a7.715,7.715,0,0,1-6.989,0c-1.93-1.116-1.93-2.923,0-4.039a7.715,7.715,0,0,1,6.989,0C379.484,520.5,379.484,522.3,377.554,523.419ZM337.912,546.3a7.715,7.715,0,0,1-6.989,0c-1.93-1.116-1.93-2.923,0-4.039a7.757,7.757,0,0,1,6.989,0C339.842,543.38,339.842,545.188,337.912,546.3Zm-39.635,22.891a7.772,7.772,0,0,1-7,0c-1.93-1.116-1.93-2.923,0-4.039a7.729,7.729,0,0,1,7,0C300.207,566.271,300.207,568.079,298.277,569.194Zm-39.642,22.884a7.729,7.729,0,0,1-7,0c-1.93-1.116-1.93-2.923,0-4.039a7.729,7.729,0,0,1,7,0C260.565,589.156,260.565,590.963,258.635,592.079Zm-39.642,22.884a7.715,7.715,0,0,1-6.989,0c-1.93-1.116-1.93-2.923,0-4.039a7.757,7.757,0,0,1,6.989,0C220.924,612.04,220.924,613.847,218.993,614.963Zm-39.642,22.884a7.715,7.715,0,0,1-6.989,0c-1.93-1.109-1.93-2.923,0-4.032a7.715,7.715,0,0,1,6.989,0C181.282,634.924,181.282,636.738,179.351,637.847Zm235.962-92.626a7.715,7.715,0,0,1-6.989,0c-1.93-1.116-1.93-2.923,0-4.039a7.715,7.715,0,0,1,6.989,0C417.244,542.3,417.244,544.106,415.313,545.222Zm-39.635,22.884a7.729,7.729,0,0,1-7,0c-1.93-1.116-1.93-2.923,0-4.039a7.772,7.772,0,0,1,7,0C377.609,565.183,377.609,566.99,375.678,568.106ZM336.036,590.99a7.729,7.729,0,0,1-7,0c-1.93-1.109-1.93-2.923,0-4.032a7.729,7.729,0,0,1,7,0C337.967,588.067,337.967,589.881,336.036,590.99Zm-39.642,22.891a7.757,7.757,0,0,1-6.989,0c-1.93-1.116-1.93-2.923,0-4.039a7.715,7.715,0,0,1,6.989,0C298.325,610.958,298.325,612.766,296.395,613.881Zm-39.642,22.884a7.715,7.715,0,0,1-6.989,0c-1.93-1.116-1.93-2.923,0-4.039a7.715,7.715,0,0,1,6.989,0C258.683,633.843,258.683,635.65,256.753,636.766ZM217.118,659.65a7.729,7.729,0,0,1-7,0c-1.93-1.109-1.93-2.923,0-4.032a7.729,7.729,0,0,1,7,0C219.041,656.727,219.041,658.541,217.118,659.65ZM453.08,567.024a7.771,7.771,0,0,1-7,0c-1.93-1.116-1.93-2.923,0-4.039a7.729,7.729,0,0,1,7,0C455.01,564.1,455.01,565.909,453.08,567.024Zm-39.642,22.884a7.729,7.729,0,0,1-7,0c-1.924-1.116-1.924-2.923,0-4.039a7.729,7.729,0,0,1,7,0C415.368,586.986,415.368,588.793,413.438,589.909ZM373.8,612.793a7.715,7.715,0,0,1-6.989,0c-1.93-1.116-1.93-2.923,0-4.039a7.757,7.757,0,0,1,6.989,0C375.726,609.87,375.726,611.677,373.8,612.793Zm-39.642,22.891a7.758,7.758,0,0,1-6.989,0c-1.93-1.116-1.93-2.93,0-4.039a7.715,7.715,0,0,1,6.989,0C336.084,632.754,336.084,634.568,334.154,635.684Zm-39.635,22.884a7.729,7.729,0,0,1-7,0c-1.93-1.116-1.93-2.923,0-4.039a7.729,7.729,0,0,1,7,0C296.449,655.645,296.449,657.453,294.519,658.568Zm-39.642,22.884a7.729,7.729,0,0,1-7,0c-1.93-1.116-1.93-2.923,0-4.039a7.771,7.771,0,0,1,7,0C256.807,678.53,256.807,680.337,254.877,681.453ZM490.839,588.82a7.715,7.715,0,0,1-6.989,0c-1.93-1.109-1.93-2.923,0-4.032a7.715,7.715,0,0,1,6.989,0C492.769,585.9,492.769,587.711,490.839,588.82ZM451.2,611.711a7.757,7.757,0,0,1-6.989,0c-1.93-1.116-1.93-2.923,0-4.039a7.715,7.715,0,0,1,6.989,0C453.128,608.788,453.128,610.6,451.2,611.711ZM411.562,634.6a7.729,7.729,0,0,1-7,0c-1.93-1.116-1.93-2.923,0-4.039a7.772,7.772,0,0,1,7,0C413.486,631.673,413.486,633.48,411.562,634.6ZM371.92,657.48a7.729,7.729,0,0,1-7,0c-1.93-1.109-1.93-2.923,0-4.032a7.729,7.729,0,0,1,7,0C373.851,654.557,373.851,656.371,371.92,657.48Zm-39.642,22.891a7.772,7.772,0,0,1-7,0c-1.924-1.116-1.924-2.923,0-4.039a7.729,7.729,0,0,1,7,0C334.209,677.448,334.209,679.255,332.278,680.371Zm-39.642,22.884a7.715,7.715,0,0,1-6.989,0c-1.93-1.116-1.93-2.923,0-4.039a7.715,7.715,0,0,1,6.989,0C294.567,700.332,294.567,702.14,292.636,703.255Z" transform="translate(-31.814 -214.593)" fill="#c7c7c7"/>
      <path id="Path_113" data-name="Path 113" d="M339.3,470.5,87.228,616.038l.924.527L340.221,471.038Z" transform="translate(-28.127 -212.587)" fill="#dee3f1"/>
      <path id="Path_114" data-name="Path 114" d="M176.791,557.6,470.871,727.39l.924-.527L177.715,557.069l-.924.534Zm-39.4,22.754,294.08,169.787.924-.534L138.313,579.823l-.924.534ZM97.98,603.1,392.066,772.892l.917-.534L98.9,602.571l-.924.534Z" transform="translate(-32.985 -251.7)" fill="#dee3f1"/>
      <path id="Path_115" data-name="Path 115" d="M409.254,510.889,157.184,656.423l.924.534L410.178,511.423Zm38.355,22.145L195.539,678.561l.917.534L448.526,533.561l-.917-.527Zm38.348,22.138L233.888,700.706l.924.534L486.881,555.706Zm38.348,22.138L272.236,722.844l.924.534L525.229,577.844Z" transform="translate(-59.736 -230.835)" fill="#dee3f1"/>
      <g transform="matrix(1, 0, 0, 1, -570.07, -497.13)" filter="url(#Path_116)">
        <path id="Path_116-2" data-name="Path 116" d="M545.283,148.718c0-2.677-1.629-5.791-3.635-6.948L296.856.439c-2.013-1.164-3.642.068-3.642,2.745V236.038c0,2.677,1.629,5.791,3.642,6.955L541.648,384.324c2.006,1.157,3.635-.075,3.635-2.752Z" transform="translate(448.88 497.13)" fill="#c93333"/>
      </g>
      <g transform="matrix(1, 0, 0, 1, -570.07, -497.13)" filter="url(#Path_117)">
        <path id="Path_117-2" data-name="Path 117" d="M468.646,192.972c0-2.677-1.629-5.8-3.635-6.955L220.211,44.686c-2.006-1.157-3.635.075-3.635,2.752V280.293c0,2.677,1.629,5.791,3.635,6.948l244.8,141.331c2.006,1.164,3.635-.068,3.635-2.752Z" transform="translate(483.5 477.13)" fill="#32749d"/>
      </g>
      <path id="Path_118" data-name="Path 118" d="M340.655,372.8l-3.909,1.746,22.124,45.187,3.909-1.746L340.655,372.8Z" transform="translate(-140.867 -168.442)" fill="#f2f2f2"/>
      <path id="Path_119" data-name="Path 119" d="M363.238,354.4l-26.492,11.829,3.211,6.551,26.485-11.836-3.2-6.544Z" transform="translate(-140.867 -160.13)" fill="#f2f2f2"/>
      <path id="Path_120" data-name="Path 120" d="M474.583,440.03l3.909-1.746L456.367,393.1l-3.909,1.746Z" transform="translate(-193.149 -177.616)" fill="#f2f2f2"/>
      <path id="Path_121" data-name="Path 121" d="M448.981,481.96l26.492-11.836-3.211-6.551-26.485,11.836,3.2,6.551Z" transform="translate(-190.131 -209.456)" fill="#f2f2f2"/>
      <path id="Path_122" data-name="Path 122" d="M468.646,193.058c0-2.779-1.691-6.017-3.779-7.222L219.958,44.437c-1.869-1.075-3.382.068-3.382,2.56V69.005L468.646,214.539V193.058Z" transform="translate(-86.571 -19.895)" fill="#2d6f98"/>
      <path id="Path_123" data-name="Path 123" d="M314.606,203.542a7.143,7.143,0,0,0-2.978-5.7l-67.872-39.183c-1.643-.952-2.978.062-2.978,2.252a7.154,7.154,0,0,0,2.978,5.7l67.872,39.176C313.271,206.739,314.606,205.733,314.606,203.542Zm28.847,16.648a7.14,7.14,0,0,0-2.978-5.689L322.218,203.96c-1.643-.945-2.978.062-2.978,2.252a7.143,7.143,0,0,0,2.978,5.7l18.257,10.535C342.117,223.394,343.452,222.388,343.452,220.19Zm8.6,64.361-2.9-4.764-24.986,45.748,2.909,4.764Z" transform="translate(-97.506 -71.527)" fill="#f2f2f2"/>
    </g>
    <g id="middleware" transform="matrix(1, 0.017, -0.017, 1, 5187.509, 7395.482)">
      <path id="Path_186" data-name="Path 186" d="M245.2,614.5,62.877,509.233V614.5L245.2,719.766Z" transform="translate(0 -298.708)" fill="#2d6f98"/>
      <path id="Path_187" data-name="Path 187" d="M154.036,381.934,62.877,434.562,245.2,539.832,336.361,487.2Z" transform="translate(0 -224.036)" fill="#3c6883"/>
      <path id="Path_188" data-name="Path 188" d="M154.036,307.252,62.877,254.617v98.207l91.159,52.628v-98.2Z" transform="translate(0 -149.354)" fill="#3e83ad"/>
      <path id="Path_189" data-name="Path 189" d="M465.7,127.317,283.379,232.58v98.2L465.7,225.517Z" transform="translate(-129.343 -74.682)" fill="#2d6f98"/>
      <g transform="matrix(1, -0.02, 0.02, 1, -285.7, -406.69)" filter="url(#Path_190)">
        <path id="Path_190-2" data-name="Path 190" d="M245.2,0,62.877,105.263,154.036,157.9,336.361,52.635ZM427.527,210.525,245.2,315.8V421.058L427.527,315.8Z" transform="matrix(1, 0.02, -0.02, 1, 278.56, 411.61)" fill="#2d6f98"/>
      </g>
      <path id="Path_191" data-name="Path 191" d="M815.565,254.617,724.4,307.252V517.777l91.166-52.628Z" transform="translate(-388.038 -149.354)" fill="#2e7099"/>
      <path id="Path_192" data-name="Path 192" d="M834.65,621.4c0,2.956,1.8,4.315,4.018,3.038l14.757-8.519c2.221-1.285,4.018-4.724,4.018-7.679s-1.8-4.315-4.018-3.03l-14.757,8.519c-2.213,1.277-4.018,4.716-4.018,7.672Zm0,19.741c0,2.949,1.8,4.315,4.018,3.03l14.757-8.519c2.221-1.277,4.018-4.716,4.018-7.672s-1.8-4.315-4.018-3.038l-14.757,8.526C836.455,634.744,834.65,638.182,834.65,641.138Zm0-39.474c0,2.956,1.8,4.315,4.018,3.03l14.757-8.519c2.221-1.277,4.018-4.716,4.018-7.672s-1.8-4.315-4.018-3.038l-14.757,8.526C836.455,595.269,834.65,598.708,834.65,601.664Zm0-19.741c0,2.956,1.8,4.315,4.018,3.038l14.757-8.519c2.221-1.285,4.018-4.724,4.018-7.672s-1.8-4.323-4.018-3.038l-14.757,8.519C836.455,575.528,834.65,578.967,834.65,581.923Zm0-19.733c0,2.956,1.8,4.315,4.018,3.03l14.757-8.519c2.221-1.277,4.018-4.716,4.018-7.672s-1.8-4.315-4.018-3.038l-14.757,8.526C836.455,555.795,834.65,559.233,834.65,562.189Z" transform="translate(-452.709 -319.988)" fill="#c93333"/>
      <path id="Path_193" data-name="Path 193" d="M425.489,56.236c-2.934-1.693-7.375-1.879-9.915-.408s-2.221,4.025.713,5.719l12.165,7.026c2.934,1.693,7.375,1.879,9.915.408s2.221-4.025-.713-5.719l-12.165-7.026Zm-17.1,9.87c-2.934-1.693-7.375-1.879-9.908-.416s-2.221,4.033.706,5.726l12.173,7.026c2.926,1.693,7.368,1.872,9.908.408s2.221-4.025-.713-5.719l-12.165-7.026Zm-51.276,29.6c-2.934-1.693-7.375-1.879-9.915-.408s-2.221,4.025.713,5.719l12.165,7.026c2.934,1.693,7.375,1.879,9.915.408s2.221-4.025-.713-5.719Zm17.09-9.87c-2.926-1.693-7.368-1.872-9.908-.408s-2.221,4.033.713,5.719l12.165,7.026c2.934,1.693,7.375,1.879,9.908.416s2.221-4.033-.706-5.726Zm17.1-9.863c-2.934-1.693-7.375-1.879-9.915-.416s-2.221,4.033.713,5.726l12.165,7.026c2.934,1.686,7.375,1.872,9.915.408s2.221-4.033-.713-5.726Z" transform="translate(-165.774 -32.165)" fill="#497a98"/>
      <path id="Path_194" data-name="Path 194" d="M106.883,669.727c0-2.882-1.76-6.239-3.921-7.486s-3.921.082-3.921,2.963v15.864c0,2.882,1.753,6.239,3.921,7.486s3.921-.074,3.921-2.963ZM175.249,709.2c0-2.882-1.753-6.239-3.914-7.486s-3.921.082-3.921,2.963v15.864c0,2.882,1.753,6.239,3.921,7.486s3.914-.074,3.914-2.963Zm-51.276-29.6c0-2.882-1.753-6.239-3.921-7.486s-3.921.074-3.921,2.963v15.864c0,2.882,1.76,6.239,3.921,7.486s3.921-.082,3.921-2.963Zm17.089,9.87c0-2.882-1.753-6.239-3.914-7.494s-3.921.082-3.921,2.963V700.8c0,2.889,1.753,6.246,3.921,7.494s3.914-.082,3.914-2.963Zm17.1,9.87c0-2.889-1.76-6.246-3.921-7.494s-3.921.082-3.921,2.963v15.864c0,2.882,1.76,6.239,3.921,7.494s3.921-.082,3.921-2.963Z" transform="translate(-21.213 -388.184)" fill="#c93333"/>
      <path id="Path_195" data-name="Path 195" d="M609.033,135.384l-91.159,52.628,85.381,49.3,91.166-52.635-85.388-49.293Z" transform="translate(-266.894 -79.414)" fill="#2d6f98"/>
      <path id="Path_196" data-name="Path 196" d="M603.255,311.983l-85.381-49.3v105.27l85.381,49.293Z" transform="translate(-266.894 -154.086)" fill="#32749d"/>
      <path id="Path_197" data-name="Path 197" d="M425.453,463.952l-55.286-31.914v63.835l55.286,31.921Z" transform="translate(-180.251 -253.427)" fill="#e57575"/>
      <path id="Path_198" data-name="Path 198" d="M559.177,432.038,503.9,463.952v63.842l55.279-31.921Z" transform="translate(-258.696 -253.427)" fill="#c93333"/>
      <path id="Path_199" data-name="Path 199" d="M425.453,354.825l-55.286,31.921,55.286,31.914,55.279-31.914Z" transform="translate(-180.251 -208.135)" fill="#c93333"/>
    </g>
    <g id="cloud" transform="translate(4899.655 7401.745)">
      <path id="Path_200" data-name="Path 200" d="M242.46,142.8c24.552,14.175,44.486,48.7,44.486,77.051s-19.933,39.859-44.486,25.684-44.486-48.7-44.486-77.052S217.907,128.62,242.46,142.8Zm168.689,70.139c31.243,18.038,56.608,61.972,56.608,98.049s-25.365,50.722-56.608,32.684-56.609-61.973-56.609-98.049S379.905,194.9,411.149,212.934Z" transform="translate(-60.635 -85.796)" fill="#c93333"/>
      <path id="Path_201" data-name="Path 201" d="M351.524,65.629c18.835,10.874,34.126,37.359,34.126,59.108s-15.291,30.577-34.126,19.7S317.4,107.079,317.4,85.331,332.689,54.754,351.524,65.629Z" transform="translate(-135.573 -38.261)" fill="#c93333"/>
      <path id="Path_202" data-name="Path 202" d="M505.83,9.106c36.843,21.272,66.756,73.081,66.756,115.624s-29.913,59.813-66.756,38.541S439.074,90.19,439.074,47.647,468.986-12.166,505.83,9.106Z" transform="translate(-211.925 0)" fill="#c93333"/>
      <path id="Path_203" data-name="Path 203" d="M496.234,256.268,317.4,153.018V255.753L496.234,359Z" transform="translate(-135.573 -96.018)" fill="#c93333"/>
      <path id="Path_204" data-name="Path 204" d="M417.37,249.632l-35.995,20.781v17.141l35.995-20.781v-17.14ZM272.142,10.384,234.189,32.3V42.312L272.142,20.4ZM217.51,30.848,180.261,52.354V75.739L217.51,54.233ZM174.424,60.824,140.278,80.539V96.532l34.146-19.715Z" transform="translate(-24.43 -6.516)" fill="#c93333"/>
      <path id="Path_205" data-name="Path 205" d="M145.83,198.583c24.552,14.175,44.486,48.7,44.486,77.052s-19.934,39.859-44.486,25.683-44.486-48.7-44.486-77.051S121.278,184.408,145.83,198.583Zm168.689,70.139c31.243,18.039,56.608,61.973,56.608,98.049s-25.365,50.721-56.608,32.683-56.609-61.972-56.609-98.049S283.276,250.684,314.519,268.722Z" transform="translate(0 -120.803)" fill="#2d6f98"/>
      <path id="Path_206" data-name="Path 206" d="M254.894,121.417c18.835,10.874,34.126,37.36,34.126,59.109s-15.291,30.577-34.126,19.7-34.126-37.359-34.126-59.108S236.06,110.544,254.894,121.417Z" transform="translate(-74.938 -73.268)" fill="#2d6f98"/>
      <path id="Path_207" data-name="Path 207" d="M409.2,64.9c36.844,21.271,66.756,73.081,66.756,115.624s-29.912,59.813-66.756,38.541-66.755-73.081-66.755-115.624S372.357,43.624,409.2,64.9Z" transform="translate(-151.29 -35.008)" fill="#2d6f98"/>
      <path id="Path_208" data-name="Path 208" d="M399.6,312.057,220.768,208.806V311.541L399.6,414.792Z" transform="translate(-74.938 -131.025)" fill="#32749d"/>
      <path id="Path_215" data-name="Path 215" d="M355.967,464.628c-2.307-1.332-5.8-1.476-7.8-.323l-14.476,8.358,36.866,21.284L388.654,483.5Zm20.9-69.506c0-4.145-2.524-8.967-5.633-10.762s-5.633.113-5.633,4.258v57.173c0,4.146,2.524,8.967,5.633,10.763s5.633-.113,5.633-4.259Z" transform="translate(-145.798 -240.761)" fill="#c93333"/>
      <path id="Path_216" data-name="Path 216" d="M413.473,387.834c2.306-1.331,5.744-1.507,7.674-.392s1.625,3.1-.68,4.43-5.744,1.508-7.674.393S411.168,389.166,413.473,387.834Z" transform="translate(-194.637 -242.659)" fill="#c93333"/>
      <path id="Path_217" data-name="Path 217" d="M415.269,384.528l-5.711,3.3,3.327,1.921,5.711-3.3Zm4.094,70.831-5.724,3.3,3.327,1.921,5.724-3.3Z" transform="translate(-193.403 -241.291)" fill="#c93333"/>
      <path id="Path_218" data-name="Path 218" d="M415.482,403.853c0-4.145-2.524-8.967-5.633-10.762s-5.634.113-5.634,4.258v57.173c0,4.146,2.525,8.968,5.634,10.763s5.633-.113,5.633-4.259V403.853Z" transform="translate(-190.051 -246.24)" fill="#fff"/>
      <path id="Path_219" data-name="Path 219" d="M359.983,439.611a8.891,8.891,0,0,0-5.633-8.04c-3.109-1-5.633.968-5.633,4.4v27.953a8.891,8.891,0,0,0,5.633,8.04c3.109,1,5.633-.967,5.633-4.4Z" transform="translate(-155.226 -270.646)" fill="#c93333"/>
      <path id="Path_220" data-name="Path 220" d="M344.189,434.378a13.3,13.3,0,0,1,6.928-.228c1.717.554,1.4,1.557-.706,2.237a13.317,13.317,0,0,1-6.928.228C341.767,436.061,342.083,435.058,344.189,434.378Z" transform="translate(-151.248 -272.204)" fill="#c93333"/>
      <path id="Path_221" data-name="Path 221" d="M346.323,432.012l-5.711,1.845,2.7.873,5.711-1.845Zm3.469,39.43-5.724,1.849,2.715.877,5.724-1.849Z" transform="translate(-150.14 -271.087)" fill="#c93333"/>
      <path id="Path_222" data-name="Path 222" d="M344.862,444.5a8.891,8.891,0,0,0-5.633-8.04c-3.109-1-5.633.967-5.633,4.4v27.953a8.891,8.891,0,0,0,5.633,8.04c3.109,1,5.633-.968,5.633-4.4Z" transform="translate(-145.737 -273.711)" fill="#fff"/>
      <path id="Path_223" data-name="Path 223" d="M501.225,521.157a8.891,8.891,0,0,0-5.633-8.04c-3.109-1-5.633.968-5.633,4.4v27.953a8.891,8.891,0,0,0,5.633,8.04c3.109,1,5.633-.967,5.633-4.4Z" transform="translate(-243.855 -321.816)" fill="#c93333"/>
      <path id="Path_224" data-name="Path 224" d="M485.432,515.924a13.3,13.3,0,0,1,6.928-.228c1.717.555,1.4,1.557-.706,2.238a13.313,13.313,0,0,1-6.927.228C483.009,517.607,483.326,516.6,485.432,515.924Z" transform="translate(-239.877 -323.374)" fill="#c93333"/>
      <path id="Path_225" data-name="Path 225" d="M487.566,513.558l-5.711,1.845,2.7.873,5.711-1.845Zm3.469,39.43-5.724,1.849,2.715.877,5.724-1.849Z" transform="translate(-238.769 -322.257)" fill="#c93333"/>
      <path id="Path_226" data-name="Path 226" d="M486.1,526.043a8.891,8.891,0,0,0-5.633-8.04c-3.109-1-5.633.967-5.633,4.4v27.953a8.891,8.891,0,0,0,5.633,8.04c3.109,1,5.633-.968,5.633-4.4Z" transform="translate(-234.367 -324.881)" fill="#fff"/>
    </g>
    <g id="database" transform="translate(5318.265 7387.652)">
      <g transform="matrix(1, 0, 0, 1, -409.31, -403.78)" filter="url(#Path_227)">
        <path id="Path_227-2" data-name="Path 227" d="M172.692,651.592c21.27-11.039,55.806-11.039,77.076,0s21.27,28.962,0,40-55.806,11.039-77.076,0S151.423,662.63,172.692,651.592Z" transform="translate(409.31 -138.81)" fill="#679dbf"/>
      </g>
      <path id="Path_228" data-name="Path 228" d="M178.93,404.784l-22.2-11.52v25.7l22.2,11.52Zm64.588-2.3,22.2-11.52v25.7l-22.2,11.52v-25.7Zm0-48.739,22.2-11.52v25.7l-22.2,11.52Z" transform="translate(0 -288.642)" fill="#679dbf"/>
      <path id="Path_229" data-name="Path 229" d="M172.692,487.605c21.27-11.039,55.806-11.039,77.076,0s21.27,28.962,0,40-55.806,11.039-77.076,0S151.423,498.644,172.692,487.605Z" transform="translate(-0.004 -404.279)" fill="#accee3"/>
      <path id="Path_230" data-name="Path 230" d="M178.93,507.658l-22.2-11.52v25.7l22.2,11.517Zm64.588.275,22.2-11.52v25.7l-22.2,11.517Z" transform="translate(0 -418.459)" fill="#accee3"/>
      <path id="Path_231" data-name="Path 231" d="M172.692,323.619c21.27-11.039,55.806-11.039,77.076,0s21.27,28.962,0,40-55.806,11.039-77.076,0S151.423,334.658,172.692,323.619Z" transform="translate(-0.004 -265.966)" fill="#679dbf"/>
      <path id="Path_232" data-name="Path 232" d="M178.93,343.5l-22.2-11.52v25.7l22.2,11.52Z" transform="translate(0 -280.006)" fill="#679dbf"/>
      <path id="Path_233" data-name="Path 233" d="M178.93,189.412l-22.2-11.52v25.7l22.2,11.52Zm64.588-2.454,22.2-11.52v24.6l-22.2,11.517Z" transform="translate(0 -147.968)" fill="#accee3"/>
      <path id="Path_234" data-name="Path 234" d="M172.692,159.633c21.27-11.039,55.806-11.039,77.076,0s21.27,28.962,0,40-55.806,11.039-77.076,0S151.423,170.672,172.692,159.633Z" transform="translate(-0.004 -127.653)" fill="#accee3"/>
      <path id="Path_235" data-name="Path 235" d="M172.692,8.282c21.27-11.036,55.806-11.036,77.076,0s21.27,28.965,0,40-55.806,11.039-77.076,0-21.27-28.965,0-40Z" transform="translate(-0.004 0)" fill="#679dbf"/>
      <path id="Path_236" data-name="Path 236" d="M445.987,419.242a3,3,0,0,0-3-3H422.6a3,3,0,0,0,0,5.991H442.99A3,3,0,0,0,445.987,419.242Zm0,23.93a3,3,0,0,0-3-3H422.6a3,3,0,0,0,0,5.991H442.99A3,3,0,0,0,445.987,443.172Zm0,27.1a3,3,0,0,0-3-3H422.6a3,3,0,0,0,0,5.991H442.99A3,3,0,0,0,445.987,470.269Zm0,24.25a3,3,0,0,0-3-3H422.6a3,3,0,0,0,0,5.991H442.99A3,3,0,0,0,445.987,494.519Z" transform="translate(-221.795 -351.074)" fill="#89b0c9"/>
    </g>
  </g>
</svg>
