<svg xmlns="http://www.w3.org/2000/svg" xmlns:xlink="http://www.w3.org/1999/xlink" width="736.004" height="380.468" viewBox="0 0 736.004 380.468">
  <defs>
    <filter id="Path_6" x="237.138" y="11.476" width="264.511" height="367.696" filterUnits="userSpaceOnUse">
      <feOffset dx="12" dy="12" input="SourceAlpha"/>
      <feGaussianBlur stdDeviation="6" result="blur"/>
      <feFlood flood-opacity="0.161"/>
      <feComposite operator="in" in2="blur"/>
      <feComposite in="SourceGraphic"/>
    </filter>
    <filter id="Path_8" x="237.358" y="13.357" width="230.368" height="366.403" filterUnits="userSpaceOnUse">
      <feOffset dx="12" dy="12" input="SourceAlpha"/>
      <feGaussianBlur stdDeviation="6" result="blur-2"/>
      <feFlood flood-opacity="0.161"/>
      <feComposite operator="in" in2="blur-2"/>
      <feComposite in="SourceGraphic"/>
    </filter>
    <filter id="Path_10" x="12.964" y="15.841" width="247.884" height="362.171" filterUnits="userSpaceOnUse">
      <feOffset dx="12" dy="12" input="SourceAlpha"/>
      <feGaussianBlur stdDeviation="6" result="blur-3"/>
      <feFlood flood-opacity="0.161"/>
      <feComposite operator="in" in2="blur-3"/>
      <feComposite in="SourceGraphic"/>
    </filter>
    <filter id="Path_11" x="36.128" y="16.73" width="224.71" height="363.738" filterUnits="userSpaceOnUse">
      <feOffset dx="12" dy="12" input="SourceAlpha"/>
      <feGaussianBlur stdDeviation="6" result="blur-4"/>
      <feFlood flood-opacity="0.161"/>
      <feComposite operator="in" in2="blur-4"/>
      <feComposite in="SourceGraphic"/>
    </filter>
    <filter id="Create" x="65.154" y="158.458" width="58.746" height="75.447" filterUnits="userSpaceOnUse">
      <feOffset dy="3" input="SourceAlpha"/>
      <feGaussianBlur stdDeviation="3" result="blur-5"/>
      <feFlood flood-opacity="0.161"/>
      <feComposite operator="in" in2="blur-5"/>
      <feComposite in="SourceGraphic"/>
    </filter>
    <filter id="Innovate" x="114.552" y="145.341" width="59.723" height="89.413" filterUnits="userSpaceOnUse">
      <feOffset dy="3" input="SourceAlpha"/>
      <feGaussianBlur stdDeviation="3" result="blur-6"/>
      <feFlood flood-opacity="0.161"/>
      <feComposite operator="in" in2="blur-6"/>
      <feComposite in="SourceGraphic"/>
    </filter>
    <filter id="Execute_" x="390.857" y="136.689" width="111.087" height="99.953" filterUnits="userSpaceOnUse">
      <feOffset dy="3" input="SourceAlpha"/>
      <feGaussianBlur stdDeviation="3" result="blur-7"/>
      <feFlood flood-opacity="0.161"/>
      <feComposite operator="in" in2="blur-7"/>
      <feComposite in="SourceGraphic"/>
    </filter>
    <filter id="H" x="662.01" y="139.5" width="37" height="73" filterUnits="userSpaceOnUse">
      <feOffset dy="3" input="SourceAlpha"/>
      <feGaussianBlur stdDeviation="3" result="blur-8"/>
      <feFlood flood-opacity="0.161"/>
      <feComposite operator="in" in2="blur-8"/>
      <feComposite in="SourceGraphic"/>
    </filter>
    <filter id="U" x="681.661" y="139.5" width="37" height="73" filterUnits="userSpaceOnUse">
      <feOffset dy="3" input="SourceAlpha"/>
      <feGaussianBlur stdDeviation="3" result="blur-9"/>
      <feFlood flood-opacity="0.161"/>
      <feComposite operator="in" in2="blur-9"/>
      <feComposite in="SourceGraphic"/>
    </filter>
    <filter id="B" x="701.004" y="139.5" width="35" height="73" filterUnits="userSpaceOnUse">
      <feOffset dy="3" input="SourceAlpha"/>
      <feGaussianBlur stdDeviation="3" result="blur-10"/>
      <feFlood flood-opacity="0.161"/>
      <feComposite operator="in" in2="blur-10"/>
      <feComposite in="SourceGraphic"/>
    </filter>
    <filter id="X" x="611.583" y="107.875" width="80" height="211" filterUnits="userSpaceOnUse">
      <feOffset dy="3" input="SourceAlpha"/>
      <feGaussianBlur stdDeviation="3" result="blur-11"/>
      <feFlood flood-opacity="0.161"/>
      <feComposite operator="in" in2="blur-11"/>
      <feComposite in="SourceGraphic"/>
    </filter>
    <filter id="I" x="561.01" y="107.875" width="43" height="201" filterUnits="userSpaceOnUse">
      <feOffset dy="3" input="SourceAlpha"/>
      <feGaussianBlur stdDeviation="3" result="blur-12"/>
      <feFlood flood-opacity="0.161"/>
      <feComposite operator="in" in2="blur-12"/>
      <feComposite in="SourceGraphic"/>
    </filter>
    <filter id="C" x="458.891" y="107.875" width="89" height="209" filterUnits="userSpaceOnUse">
      <feOffset dy="3" input="SourceAlpha"/>
      <feGaussianBlur stdDeviation="3" result="blur-13"/>
      <feFlood flood-opacity="0.161"/>
      <feComposite operator="in" in2="blur-13"/>
      <feComposite in="SourceGraphic"/>
    </filter>
  </defs>
  <g id="LogoLight" transform="translate(-3624 -2304)">
    <g id="FINAL_LOGO-512" data-name="FINAL LOGO-512" transform="translate(1109 2594)">
      <rect id="Rectangle_1" data-name="Rectangle 1" width="512" height="354" transform="translate(2515 -290)" fill="none"/>
      <g id="_512finalogo" data-name="512finalogo" transform="translate(2533.964 -272.524)">
        <g id="Group_4" data-name="Group 4" transform="translate(0 0)">
          <g id="logoicon" transform="translate(0 0)">
            <g id="R" transform="translate(224.174)">
              <g transform="matrix(1, 0, 0, 1, -243.14, -17.48)" filter="url(#Path_6)">
                <path id="Path_6-2" data-name="Path 6" d="M172.274,0s-69.2,101.125-69.433,160.541S212,239.493,212,239.493s-21.077,13.919-22.147,34.328,17.874,47.219,17.874,47.219S.34,248.978,0,160.175,172.274,0,172.274,0Z" transform="translate(471.65 338.08) rotate(177)" fill="#32749d"/>
              </g>
              <g transform="matrix(1, 0, 0, 1, -243.14, -17.48)" filter="url(#Path_8)" style="mix-blend-mode: luminosity;isolation: isolate">
                <path id="Path_8-2" data-name="Path 8" d="M172.273,0S86.183,99.484,88.354,158.816s89.43,81.1,89.43,81.1-20.276,13-21.818,33.514S173.5,321.54,173.5,321.54.34,248.944,0,160.153,172.273,0,172.273,0Z" transform="translate(437.73 340.46) rotate(177)" fill="#606060"/>
              </g>
            </g>
            <g id="L" transform="translate(0 4.365)">
              <g transform="matrix(1, 0, 0, 1, -18.96, -21.84)" filter="url(#Path_10)">
                <path id="Path_10-2" data-name="Path 10" d="M29.882,0S98.611,101.32,98.908,160.8,0,238.034,0,238.034s16.452,15.653,18.861,35.85-13.27,45.472-13.27,45.472,195.039-69.9,195.269-158.8S29.882,0,29.882,0Z" transform="translate(219.7 348.01) rotate(-178)" fill="#ed5757"/>
              </g>
              <g transform="matrix(1, 0, 0, 1, -18.96, -21.84)" filter="url(#Path_11)" style="mix-blend-mode: luminosity;isolation: isolate">
                <path id="Path_11-2" data-name="Path 11" d="M6.609,0s68.73,101.363,69.028,160.872S0,240.4,0,240.4s17.554,16.8,18.974,37.132-13.294,44.2-13.294,44.2,171.681-72.17,171.909-161.108S6.609,0,6.609,0Z" transform="translate(219.61 350.47) rotate(-178)" fill="#606060"/>
              </g>
              <g transform="matrix(1, 0, 0, 1, -18.96, -21.84)" filter="url(#Create)" style="mix-blend-mode: luminosity;isolation: isolate">
                <text id="Create-2" data-name="Create" transform="matrix(0.07, -1, 1, 0.07, 94.11, 220.72)" fill="#707070" font-size="20" font-family="KhmerMN, Khmer MN" opacity="0.071"><tspan x="0" y="0">Create</tspan></text>
              </g>
              <g transform="matrix(1, 0, 0, 1, -18.96, -21.84)" filter="url(#Innovate)" style="mix-blend-mode: luminosity;isolation: isolate">
                <text id="Innovate-2" data-name="Innovate" transform="matrix(0.07, -1, 1, 0.07, 143.5, 221.57)" fill="#707070" font-size="20" font-family="KhmerMN, Khmer MN" opacity="0.069"><tspan x="0" y="0">Innovate</tspan></text>
              </g>
              <g transform="matrix(1, 0, 0, 1, -18.96, -21.84)" filter="url(#Execute_)" style="mix-blend-mode: luminosity;isolation: isolate">
                <text id="Execute_2" data-name="Execute
" transform="matrix(0.07, -1, 1, 0.07, 423.8, 220.18)" fill="#707070" font-size="24" font-family="KhmerMN, Khmer MN" opacity="0.069"><tspan x="0" y="0">Execute</tspan><tspan x="0" y="44"></tspan></text>
              </g>
            </g>
          </g>
        </g>
      </g>
    </g>
    <g id="CONAME" transform="translate(348 -187)">
      <g id="HUB" transform="translate(-5 -43)">
        <g transform="matrix(1, 0, 0, 1, 3281, 2534)" filter="url(#H)">
          <text id="H-2" data-name="H" transform="translate(671.01 175.5)" fill="#fbfbfb" font-size="30" font-family="KhmerMN, Khmer MN"><tspan x="0" y="0">H</tspan></text>
        </g>
        <g transform="matrix(1, 0, 0, 1, 3281, 2534)" filter="url(#U)">
          <text id="U-2" data-name="U" transform="translate(690.66 175.5)" fill="#fbfbfb" font-size="30" font-family="KhmerMN, Khmer MN"><tspan x="0" y="0">U</tspan></text>
        </g>
        <g transform="matrix(1, 0, 0, 1, 3281, 2534)" filter="url(#B)">
          <text id="B-2" data-name="B" transform="translate(710 175.5)" fill="#fbfbfb" font-size="30" font-family="KhmerMN, Khmer MN"><tspan x="0" y="0">B</tspan></text>
        </g>
      </g>
      <g id="CIX" transform="translate(3743.891 2604.875)">
        <g transform="matrix(1, 0, 0, 1, -467.89, -113.87)" filter="url(#X)">
          <text id="X-2" data-name="X" transform="translate(620.58 218.87)" fill="#fbfbfb" font-size="106" font-family="KhmerMN, Khmer MN"><tspan x="0" y="0">X</tspan></text>
        </g>
        <g transform="matrix(1, 0, 0, 1, -467.89, -113.87)" filter="url(#I)">
          <text id="I-2" data-name="I" transform="translate(570.01 213.87)" fill="#fbfbfb" font-size="101" font-family="KhmerMN, Khmer MN"><tspan x="0" y="0">I</tspan></text>
        </g>
        <g transform="matrix(1, 0, 0, 1, -467.89, -113.87)" filter="url(#C)">
          <text id="C-2" data-name="C" transform="translate(467.89 217.87)" fill="#fbfbfb" font-size="105" font-family="KhmerMN, Khmer MN"><tspan x="0" y="0">C</tspan></text>
        </g>
      </g>
    </g>
  </g>
</svg>
