<svg xmlns="http://www.w3.org/2000/svg" xmlns:xlink="http://www.w3.org/1999/xlink" width="1808.56" height="1674.007" viewBox="0 0 1808.56 1674.007">
  <defs>
    <radialGradient id="radial-gradient" cx="0.5" cy="0.5" r="0.5" gradientUnits="objectBoundingBox">
      <stop offset="0" stop-color="#fff"/>
      <stop offset="0.837" stop-color="#fbfbfb"/>
      <stop offset="1" stop-color="#54a2c4" stop-opacity="0.533"/>
    </radialGradient>
    <filter id="Path_6" x="1132.207" y="738.77" width="524.069" height="507.023" filterUnits="userSpaceOnUse">
      <feOffset dx="12" dy="12" input="SourceAlpha"/>
      <feGaussianBlur stdDeviation="6" result="blur"/>
      <feFlood flood-opacity="0.161"/>
      <feComposite operator="in" in2="blur"/>
      <feComposite in="SourceGraphic"/>
    </filter>
    <filter id="Path_8" x="1130.621" y="736.924" width="501.645" height="478.899" filterUnits="userSpaceOnUse">
      <feOffset dx="12" dy="12" input="SourceAlpha"/>
      <feGaussianBlur stdDeviation="6" result="blur-2"/>
      <feFlood flood-opacity="0.161"/>
      <feComposite operator="in" in2="blur-2"/>
      <feComposite in="SourceGraphic"/>
    </filter>
    <filter id="Path_10" x="233.226" y="467.631" width="431.335" height="513.419" filterUnits="userSpaceOnUse">
      <feOffset dx="12" dy="12" input="SourceAlpha"/>
      <feGaussianBlur stdDeviation="6" result="blur-3"/>
      <feFlood flood-opacity="0.161"/>
      <feComposite operator="in" in2="blur-3"/>
      <feComposite in="SourceGraphic"/>
    </filter>
    <filter id="Path_11" x="257.161" y="463.964" width="407.804" height="506.569" filterUnits="userSpaceOnUse">
      <feOffset dx="12" dy="12" input="SourceAlpha"/>
      <feGaussianBlur stdDeviation="6" result="blur-4"/>
      <feFlood flood-opacity="0.161"/>
      <feComposite operator="in" in2="blur-4"/>
      <feComposite in="SourceGraphic"/>
    </filter>
    <filter id="Create" x="331.409" y="584.198" width="91.368" height="102.417" filterUnits="userSpaceOnUse">
      <feOffset dy="3" input="SourceAlpha"/>
      <feGaussianBlur stdDeviation="3" result="blur-5"/>
      <feFlood flood-opacity="0.161"/>
      <feComposite operator="in" in2="blur-5"/>
      <feComposite in="SourceGraphic"/>
    </filter>
    <filter id="Innovate" x="370.717" y="546.072" width="102.371" height="122.169" filterUnits="userSpaceOnUse">
      <feOffset dy="3" input="SourceAlpha"/>
      <feGaussianBlur stdDeviation="3" result="blur-6"/>
      <feFlood flood-opacity="0.161"/>
      <feComposite operator="in" in2="blur-6"/>
      <feComposite in="SourceGraphic"/>
    </filter>
    <filter id="Execute_" x="1353.299" y="824.325" width="124.375" height="116.408" filterUnits="userSpaceOnUse">
      <feOffset dy="3" input="SourceAlpha"/>
      <feGaussianBlur stdDeviation="3" result="blur-7"/>
      <feFlood flood-opacity="0.161"/>
      <feComposite operator="in" in2="blur-7"/>
      <feComposite in="SourceGraphic"/>
    </filter>
    <filter id="Create-2" x="479.06" y="408.008" width="155" height="108" filterUnits="userSpaceOnUse">
      <feOffset dy="3" input="SourceAlpha"/>
      <feGaussianBlur stdDeviation="3" result="blur-8"/>
      <feFlood flood-opacity="0.161"/>
      <feComposite operator="in" in2="blur-8"/>
      <feComposite in="SourceGraphic"/>
    </filter>
    <filter id="Partnership" x="763.06" y="498.008" width="519" height="221" filterUnits="userSpaceOnUse">
      <feOffset dy="3" input="SourceAlpha"/>
      <feGaussianBlur stdDeviation="3" result="blur-9"/>
      <feFlood flood-opacity="0.161"/>
      <feComposite operator="in" in2="blur-9"/>
      <feComposite in="SourceGraphic"/>
    </filter>
    <filter id="Execute" x="1236.06" y="739.008" width="179" height="110" filterUnits="userSpaceOnUse">
      <feOffset dy="3" input="SourceAlpha"/>
      <feGaussianBlur stdDeviation="3" result="blur-10"/>
      <feFlood flood-opacity="0.161"/>
      <feComposite operator="in" in2="blur-10"/>
      <feComposite in="SourceGraphic"/>
    </filter>
    <radialGradient id="radial-gradient-2" cx="0.5" cy="0.5" r="0.5" gradientUnits="objectBoundingBox">
      <stop offset="0" stop-color="#c93333"/>
      <stop offset="1" stop-color="#2b6387"/>
    </radialGradient>
    <filter id="Execute_2" x="1353.299" y="824.325" width="124.375" height="116.408" filterUnits="userSpaceOnUse">
      <feOffset dy="3" input="SourceAlpha"/>
      <feGaussianBlur stdDeviation="3" result="blur-11"/>
      <feFlood flood-opacity="0.161"/>
      <feComposite operator="in" in2="blur-11"/>
      <feComposite in="SourceGraphic"/>
    </filter>
    <filter id="Program" x="763.06" y="1061.73" width="405" height="221" filterUnits="userSpaceOnUse">
      <feOffset dy="3" input="SourceAlpha"/>
      <feGaussianBlur stdDeviation="3" result="blur-12"/>
      <feFlood flood-opacity="0.161"/>
      <feComposite operator="in" in2="blur-12"/>
      <feComposite in="SourceGraphic"/>
    </filter>
    <filter id="Innovate-2" x="956.06" y="382.008" width="189" height="108" filterUnits="userSpaceOnUse">
      <feOffset dy="3" input="SourceAlpha"/>
      <feGaussianBlur stdDeviation="3" result="blur-13"/>
      <feFlood flood-opacity="0.161"/>
      <feComposite operator="in" in2="blur-13"/>
      <feComposite in="SourceGraphic"/>
    </filter>
    <filter id="Path_78" x="552.136" y="540.982" width="25.289" height="55.854" filterUnits="userSpaceOnUse">
      <feOffset dy="3" input="SourceAlpha"/>
      <feGaussianBlur stdDeviation="3" result="blur-14"/>
      <feFlood flood-opacity="0.161"/>
      <feComposite operator="in" in2="blur-14"/>
      <feComposite in="SourceGraphic"/>
    </filter>
    <filter id="Path_85">
      <feOffset dy="3" input="SourceAlpha"/>
      <feGaussianBlur stdDeviation="3" result="blur-15"/>
      <feFlood flood-opacity="0.161" result="color"/>
      <feComposite operator="out" in="SourceGraphic" in2="blur-15"/>
      <feComposite operator="in" in="color"/>
      <feComposite operator="in" in2="SourceGraphic"/>
    </filter>
    <filter id="_3D" x="664.328" y="336.105" width="59" height="82" filterUnits="userSpaceOnUse">
      <feOffset dx="4" dy="3" input="SourceAlpha"/>
      <feGaussianBlur stdDeviation="3" result="blur-16"/>
      <feFlood flood-opacity="0.161"/>
      <feComposite operator="in" in2="blur-16"/>
      <feComposite in="SourceGraphic"/>
    </filter>
    <filter id="_3D-2" x="664.328" y="336.105" width="59" height="82" filterUnits="userSpaceOnUse">
      <feOffset dy="3" input="SourceAlpha"/>
      <feGaussianBlur stdDeviation="3" result="blur-17"/>
      <feFlood flood-opacity="0.161" result="color-2"/>
      <feComposite operator="out" in="SourceGraphic" in2="blur-17"/>
      <feComposite operator="in" in="color-2"/>
      <feComposite operator="in" in2="SourceGraphic"/>
    </filter>
    <filter id="Path_57" x="1161.101" y="305.677" width="53.918" height="63.045" filterUnits="userSpaceOnUse">
      <feOffset dy="3" input="SourceAlpha"/>
      <feGaussianBlur stdDeviation="3" result="blur-18"/>
      <feFlood flood-opacity="0.161"/>
      <feComposite operator="in" in2="blur-18"/>
      <feComposite in="SourceGraphic"/>
    </filter>
    <filter id="Path_74">
      <feOffset dy="3" input="SourceAlpha"/>
      <feGaussianBlur stdDeviation="3" result="blur-19"/>
      <feFlood flood-opacity="0.161" result="color-3"/>
      <feComposite operator="out" in="SourceGraphic" in2="blur-19"/>
      <feComposite operator="in" in="color-3"/>
      <feComposite operator="in" in2="SourceGraphic"/>
    </filter>
    <filter id="Path_75" x="1170.587" y="346.867" width="34.949" height="27.776" filterUnits="userSpaceOnUse">
      <feOffset dy="3" input="SourceAlpha"/>
      <feGaussianBlur stdDeviation="3" result="blur-20"/>
      <feFlood flood-opacity="0.161"/>
      <feComposite operator="in" in2="blur-20"/>
      <feComposite in="SourceGraphic"/>
    </filter>
  </defs>
  <g id="Group_28" data-name="Group 28" transform="translate(-6872.44 -4035.386)">
    <g id="Path_104" data-name="Path 104" transform="translate(7076 4088)" stroke-dasharray="30" fill="url(#radial-gradient)">
      <path d="M6,0H1599a6,6,0,0,1,6,6V1287a6,6,0,0,1-6,6H6a6,6,0,0,1-6-6V6A6,6,0,0,1,6,0Z" stroke="none"/>
      <path d="M 6 0 L 36 0 L 36 6 L 6 6 L 6 0 C 6 0 6 0 6 0 Z M 66 0 L 96 0 L 96 6 L 66 6 L 66 0 Z M 126 0 L 156 0 L 156 6 L 126 6 L 126 0 Z M 186 0 L 216 0 L 216 6 L 186 6 L 186 0 Z M 246 0 L 276 0 L 276 6 L 246 6 L 246 0 Z M 306 0 L 336 0 L 336 6 L 306 6 L 306 0 Z M 366 0 L 396 0 L 396 6 L 366 6 L 366 0 Z M 426 0 L 456 0 L 456 6 L 426 6 L 426 0 Z M 486 0 L 516 0 L 516 6 L 486 6 L 486 0 Z M 546 0 L 576 0 L 576 6 L 546 6 L 546 0 Z M 606 0 L 636 0 L 636 6 L 606 6 L 606 0 Z M 666 0 L 696 0 L 696 6 L 666 6 L 666 0 Z M 726 0 L 756 0 L 756 6 L 726 6 L 726 0 Z M 786 0 L 816 0 L 816 6 L 786 6 L 786 0 Z M 846 0 L 876 0 L 876 6 L 846 6 L 846 0 Z M 906 0 L 936 0 L 936 6 L 906 6 L 906 0 Z M 966 0 L 996 0 L 996 6 L 966 6 L 966 0 Z M 1026 0 L 1056 0 L 1056 6 L 1026 6 L 1026 0 Z M 1086 0 L 1116 0 L 1116 6 L 1086 6 L 1086 0 Z M 1146 0 L 1176 0 L 1176 6 L 1146 6 L 1146 0 Z M 1206 0 L 1236 0 L 1236 6 L 1206 6 L 1206 0 Z M 1266 0 L 1296 0 L 1296 6 L 1266 6 L 1266 0 Z M 1326 0 L 1356 0 L 1356 6 L 1326 6 L 1326 0 Z M 1386 0 L 1416 0 L 1416 6 L 1386 6 L 1386 0 Z M 1446 0 L 1476 0 L 1476 6 L 1446 6 L 1446 0 Z M 1506 0 L 1536 0 L 1536 6 L 1506 6 L 1506 0 Z M 1566 0 L 1596 0 L 1596 6 L 1566 6 L 1566 0 Z M 1599 23.57421875 L 1605 23.57421875 C 1605 23.57421875 1605 53.57421875 1605 53.57421875 L 1599 53.57421875 L 1599 23.57421875 Z M 1599 83.57421875 L 1605 83.57421875 C 1605 83.57421875 1605 113.57421875 1605 113.57421875 L 1599 113.57421875 L 1599 83.57421875 Z M 1599 143.57421875 L 1605 143.57421875 C 1605 143.57421875 1605 173.57421875 1605 173.57421875 L 1599 173.57421875 L 1599 143.57421875 Z M 1599 203.57421875 L 1605 203.57421875 C 1605 203.57421875 1605 233.57421875 1605 233.57421875 L 1599 233.57421875 L 1599 203.57421875 Z M 1599 263.57421875 L 1605 263.57421875 C 1605 263.57421875 1605 293.57421875 1605 293.57421875 L 1599 293.57421875 L 1599 263.57421875 Z M 1599 323.57421875 L 1605 323.57421875 C 1605 323.57421875 1605 353.57421875 1605 353.57421875 L 1599 353.57421875 L 1599 323.57421875 Z M 1599 383.57421875 L 1605 383.57421875 C 1605 383.57421875 1605 413.57421875 1605 413.57421875 L 1599 413.57421875 L 1599 383.57421875 Z M 1599 443.57421875 L 1605 443.57421875 C 1605 443.57421875 1605 473.57421875 1605 473.57421875 L 1599 473.57421875 L 1599 443.57421875 Z M 1599 503.57421875 L 1605 503.57421875 C 1605 503.57421875 1605 533.57421875 1605 533.57421875 L 1599 533.57421875 L 1599 503.57421875 Z M 1599 563.57421875 L 1605 563.57421875 C 1605 563.57421875 1605 593.57421875 1605 593.57421875 L 1599 593.57421875 L 1599 563.57421875 Z M 1599 623.57421875 L 1605 623.57421875 C 1605 623.57421875 1605 653.57421875 1605 653.57421875 L 1599 653.57421875 L 1599 623.57421875 Z M 1599 683.57421875 L 1605 683.57421875 C 1605 683.57421875 1605 713.57421875 1605 713.57421875 L 1599 713.57421875 L 1599 683.57421875 Z M 1599 743.57421875 L 1605 743.57421875 C 1605 743.57421875 1605 773.57421875 1605 773.57421875 L 1599 773.57421875 L 1599 743.57421875 Z M 1599 803.57421875 L 1605 803.57421875 C 1605 803.57421875 1605 833.57421875 1605 833.57421875 L 1599 833.57421875 L 1599 803.57421875 Z M 1599 863.57421875 L 1605 863.57421875 C 1605 863.57421875 1605 893.57421875 1605 893.57421875 L 1599 893.57421875 L 1599 863.57421875 Z M 1599 923.57421875 L 1605 923.57421875 C 1605 923.57421875 1605 953.57421875 1605 953.57421875 L 1599 953.57421875 L 1599 923.57421875 Z M 1599 983.57421875 L 1605 983.57421875 C 1605 983.57421875 1605 1013.57421875 1605 1013.57421875 L 1599 1013.57421875 L 1599 983.57421875 Z M 1599 1043.57421875 L 1605 1043.57421875 C 1605 1043.57421875 1605 1073.57421875 1605 1073.57421875 L 1599 1073.57421875 L 1599 1043.57421875 Z M 1599 1103.57421875 L 1605 1103.57421875 C 1605 1103.57421875 1605 1133.57421875 1605 1133.57421875 L 1599 1133.57421875 L 1599 1103.57421875 Z M 1599 1163.57421875 L 1605 1163.57421875 C 1605 1163.57421875 1605 1193.57421875 1605 1193.57421875 L 1599 1193.57421875 L 1599 1163.57421875 Z M 1599 1223.57421875 L 1605 1223.57421875 C 1605 1223.57421875 1605 1253.57421875 1605 1253.57421875 L 1599 1253.57421875 L 1599 1223.57421875 Z M 1599 1283.57421875 L 1605 1283.57421875 C 1605 1283.57421875 1605 1287 1605 1287 C 1599 1293 1581.851806640625 1293 1581.851806640625 1293 L 1581.851806640625 1287 L 1599 1287 L 1599 1283.57421875 Z M 1521.851806640625 1287 L 1551.851806640625 1287 L 1551.851806640625 1293 C 1551.851806640625 1293 1521.851806640625 1293 1521.851806640625 1293 L 1521.851806640625 1287 Z M 1461.851806640625 1287 L 1491.851806640625 1287 L 1491.851806640625 1293 C 1491.851806640625 1293 1461.851806640625 1293 1461.851806640625 1293 L 1461.851806640625 1287 Z M 1401.851806640625 1287 L 1431.851806640625 1287 L 1431.851806640625 1293 C 1431.851806640625 1293 1401.851806640625 1293 1401.851806640625 1293 L 1401.851806640625 1287 Z M 1341.851806640625 1287 L 1371.851806640625 1287 L 1371.851806640625 1293 C 1371.851806640625 1293 1341.851806640625 1293 1341.851806640625 1293 L 1341.851806640625 1287 Z M 1281.851806640625 1287 L 1311.851806640625 1287 L 1311.851806640625 1293 C 1311.851806640625 1293 1281.851806640625 1293 1281.851806640625 1293 L 1281.851806640625 1287 Z M 1221.851806640625 1287 L 1251.851806640625 1287 L 1251.851806640625 1293 C 1251.851806640625 1293 1221.851806640625 1293 1221.851806640625 1293 L 1221.851806640625 1287 Z M 1161.851806640625 1287 L 1191.851806640625 1287 L 1191.851806640625 1293 C 1191.851806640625 1293 1161.851806640625 1293 1161.851806640625 1293 L 1161.851806640625 1287 Z M 1101.851806640625 1287 L 1131.851806640625 1287 L 1131.851806640625 1293 C 1131.851806640625 1293 1101.851806640625 1293 1101.851806640625 1293 L 1101.851806640625 1287 Z M 1041.851806640625 1287 L 1071.851806640625 1287 L 1071.851806640625 1293 C 1071.851806640625 1293 1041.851806640625 1293 1041.851806640625 1293 L 1041.851806640625 1287 Z M 981.851806640625 1287 L 1011.851806640625 1287 L 1011.851806640625 1293 C 1011.851806640625 1293 981.851806640625 1293 981.851806640625 1293 L 981.851806640625 1287 Z M 921.851806640625 1287 L 951.851806640625 1287 L 951.851806640625 1293 C 951.851806640625 1293 921.851806640625 1293 921.851806640625 1293 L 921.851806640625 1287 Z M 861.851806640625 1287 L 891.851806640625 1287 L 891.851806640625 1293 C 891.851806640625 1293 861.851806640625 1293 861.851806640625 1293 L 861.851806640625 1287 Z M 801.851806640625 1287 L 831.851806640625 1287 L 831.851806640625 1293 C 831.851806640625 1293 801.851806640625 1293 801.851806640625 1293 L 801.851806640625 1287 Z M 741.851806640625 1287 L 771.851806640625 1287 L 771.851806640625 1293 C 771.851806640625 1293 741.851806640625 1293 741.851806640625 1293 L 741.851806640625 1287 Z M 681.851806640625 1287 L 711.851806640625 1287 L 711.851806640625 1293 C 711.851806640625 1293 681.851806640625 1293 681.851806640625 1293 L 681.851806640625 1287 Z M 621.851806640625 1287 L 651.851806640625 1287 L 651.851806640625 1293 C 651.851806640625 1293 621.851806640625 1293 621.851806640625 1293 L 621.851806640625 1287 Z M 561.851806640625 1287 L 591.851806640625 1287 L 591.851806640625 1293 C 591.851806640625 1293 561.851806640625 1293 561.851806640625 1293 L 561.851806640625 1287 Z M 501.851806640625 1287 L 531.851806640625 1287 L 531.851806640625 1293 C 531.851806640625 1293 501.851806640625 1293 501.851806640625 1293 L 501.851806640625 1287 Z M 441.851806640625 1287 L 471.851806640625 1287 L 471.851806640625 1293 C 471.851806640625 1293 441.851806640625 1293 441.851806640625 1293 L 441.851806640625 1287 Z M 381.851806640625 1287 L 411.851806640625 1287 L 411.851806640625 1293 C 411.851806640625 1293 381.851806640625 1293 381.851806640625 1293 L 381.851806640625 1287 Z M 321.851806640625 1287 L 351.851806640625 1287 L 351.851806640625 1293 C 351.851806640625 1293 321.851806640625 1293 321.851806640625 1293 L 321.851806640625 1287 Z M 261.851806640625 1287 L 291.851806640625 1287 L 291.851806640625 1293 C 291.851806640625 1293 261.851806640625 1293 261.851806640625 1293 L 261.851806640625 1287 Z M 201.851806640625 1287 L 231.851806640625 1287 L 231.851806640625 1293 C 231.851806640625 1293 201.851806640625 1293 201.851806640625 1293 L 201.851806640625 1287 Z M 141.851806640625 1287 L 171.851806640625 1287 L 171.851806640625 1293 C 171.851806640625 1293 141.851806640625 1293 141.851806640625 1293 L 141.851806640625 1287 Z M 81.851806640625 1287 L 111.851806640625 1287 L 111.851806640625 1293 C 111.851806640625 1293 81.851806640625 1293 81.851806640625 1293 L 81.851806640625 1287 Z M 21.851806640625 1287 L 51.851806640625 1287 L 51.851806640625 1293 C 51.851806640625 1293 21.851806640625 1293 21.851806640625 1293 L 21.851806640625 1287 Z M 0 1252.277587890625 L 6 1252.277587890625 L 6 1282.277587890625 L 0 1282.277587890625 L 0 1252.277587890625 Z M 0 1192.277587890625 L 6 1192.277587890625 L 6 1222.277587890625 L 0 1222.277587890625 L 0 1192.277587890625 Z M 0 1132.277587890625 L 6 1132.277587890625 L 6 1162.277587890625 L 0 1162.277587890625 L 0 1132.277587890625 Z M 0 1072.277587890625 L 6 1072.277587890625 L 6 1102.277587890625 L 0 1102.277587890625 L 0 1072.277587890625 Z M 0 1012.277587890625 L 6 1012.277587890625 L 6 1042.277587890625 L 0 1042.277587890625 L 0 1012.277587890625 Z M 0 952.277587890625 L 6 952.277587890625 L 6 982.277587890625 L 0 982.277587890625 L 0 952.277587890625 Z M 0 892.277587890625 L 6 892.277587890625 L 6 922.277587890625 L 0 922.277587890625 L 0 892.277587890625 Z M 0 832.277587890625 L 6 832.277587890625 L 6 862.277587890625 L 0 862.277587890625 L 0 832.277587890625 Z M 0 772.277587890625 L 6 772.277587890625 L 6 802.277587890625 L 0 802.277587890625 L 0 772.277587890625 Z M 0 712.277587890625 L 6 712.277587890625 L 6 742.277587890625 L 0 742.277587890625 L 0 712.277587890625 Z M 0 652.277587890625 L 6 652.277587890625 L 6 682.277587890625 L 0 682.277587890625 L 0 652.277587890625 Z M 0 592.277587890625 L 6 592.277587890625 L 6 622.277587890625 L 0 622.277587890625 L 0 592.277587890625 Z M 0 532.277587890625 L 6 532.277587890625 L 6 562.277587890625 L 0 562.277587890625 L 0 532.277587890625 Z M 0 472.277587890625 L 6 472.277587890625 L 6 502.277587890625 L 0 502.277587890625 L 0 472.277587890625 Z M 0 412.277587890625 L 6 412.277587890625 L 6 442.277587890625 L 0 442.277587890625 L 0 412.277587890625 Z M 0 352.277587890625 L 6 352.277587890625 L 6 382.277587890625 L 0 382.277587890625 L 0 352.277587890625 Z M 0 292.277587890625 L 6 292.277587890625 L 6 322.277587890625 L 0 322.277587890625 L 0 292.277587890625 Z M 0 232.277587890625 L 6 232.277587890625 L 6 262.277587890625 L 0 262.277587890625 L 0 232.277587890625 Z M 0 172.277587890625 L 6 172.277587890625 L 6 202.277587890625 L 0 202.277587890625 L 0 172.277587890625 Z M 0 112.277587890625 L 6 112.277587890625 L 6 142.277587890625 L 0 142.277587890625 L 0 112.277587890625 Z M 0 52.277587890625 L 6 52.277587890625 L 6 82.277587890625 L 0 82.277587890625 L 0 52.277587890625 Z M 0 6 L 6 6 L 6 22.277587890625 L 0 22.277587890625 L 0 6 C 0 6 0 6 0 6 Z" stroke="none" fill="#fff"/>
    </g>
    <g id="Group_27" data-name="Group 27" transform="translate(2657.5 980.393)">
      <g id="partner" transform="translate(33.157 558.04)">
        <g id="finallogo" transform="matrix(0.966, -0.259, 0.259, 0.966, 4181.783, 2889.427)">
          <g id="Group_4" data-name="Group 4" transform="matrix(0.809, 0.588, -0.588, 0.809, -1225.214, -633.434)">
            <g id="R" transform="translate(2827.338 -411.226) rotate(26)">
              <g transform="matrix(0.68, -0.73, 0.73, 0.68, -1513.47, 556.94)" filter="url(#Path_6)">
                <path id="Path_6-2" data-name="Path 6" d="M186.588,0s-69.927,139.525-62.42,216.209,141.525,87.562,141.525,87.562-23.507,20.718-22.121,47.188,27.664,58.577,27.664,58.577S12.564,343.725.527,229.2,186.588,0,186.588,0Z" transform="translate(1312.55 1215.79) rotate(-130)" fill="#32749d"/>
              </g>
              <g transform="matrix(0.68, -0.73, 0.73, 0.68, -1513.47, 556.94)" filter="url(#Path_8)" style="mix-blend-mode: luminosity;isolation: isolate">
                <path id="Path_8-2" data-name="Path 8" d="M186.588,0S96.155,139.637,106.534,215.908s118.1,92.928,118.1,92.928-22.664,19.435-21.832,46.1,27.378,59.78,27.378,59.78S12.564,343.725.527,229.2,186.588,0,186.588,0Z" transform="translate(1284.58 1185.82) rotate(-130)" fill="#606060"/>
              </g>
            </g>
            <g id="L" transform="translate(1643.666 -132.212) rotate(-43)">
              <g transform="matrix(0.93, 0.37, -0.37, 0.93, -6.36, -610.15)" filter="url(#Path_10)">
                <path id="Path_10-2" data-name="Path 10" d="M57.208,0s74,137.237,69.157,214.305S.37,305.684.37,305.684s18.466,21.712,19.6,48.081S0,411.5,0,411.5s241.25-73.474,249.3-188.6S57.208,0,57.208,0Z" transform="translate(634.56 849.55) rotate(156)" fill="#ed5757"/>
              </g>
              <g transform="matrix(0.93, 0.37, -0.37, 0.93, -6.36, -610.15)" filter="url(#Path_11)" style="mix-blend-mode: luminosity;isolation: isolate">
                <path id="Path_11-2" data-name="Path 11" d="M29.245,0s74,137.237,69.157,214.305S.262,310.656.262,310.656s19.695,23.282,19.629,49.731S0,416.451,0,416.451,213.287,338.025,221.337,222.9,29.245,0,29.245,0Z" transform="translate(634.97 850.41) rotate(156)" fill="#606060"/>
              </g>
              <g transform="matrix(0.93, 0.37, -0.37, 0.93, -6.36, -610.15)" filter="url(#Create)" style="mix-blend-mode: luminosity;isolation: isolate">
                <text id="Create-3" data-name="Create" transform="matrix(0.44, 0.9, 0.9, -0.44, 363.78, 599.4)" fill="#707070" font-size="26" font-family="KhmerMN, Khmer MN" opacity="0.071"><tspan x="0" y="0">Create</tspan></text>
              </g>
              <g transform="matrix(0.93, 0.37, -0.37, 0.93, -6.36, -610.15)" filter="url(#Innovate)" style="mix-blend-mode: luminosity;isolation: isolate">
                <text id="Innovate-3" data-name="Innovate" transform="matrix(0.44, 0.9, 0.9, -0.44, 403.98, 561.72)" fill="#707070" font-size="27" font-family="KhmerMN, Khmer MN" opacity="0.069"><tspan x="0" y="0">Innovate</tspan></text>
              </g>
            </g>
            <g transform="matrix(0.93, -0.36, 0.36, 0.93, 1222.89, -574.11)" filter="url(#Execute_)" style="mix-blend-mode: luminosity;isolation: isolate">
              <text id="Execute_3" data-name="Execute
" transform="matrix(-0.29, 0.96, 0.96, 0.29, 1407.47, 837.34)" fill="#707070" font-size="24" font-family="KhmerMN, Khmer MN" opacity="0.069"><tspan x="0" y="0">Execute</tspan><tspan x="0" y="44"></tspan></text>
            </g>
          </g>
        </g>
        <g transform="matrix(1, 0, 0, 1, 4181.78, 2496.95)" filter="url(#Create-2)">
          <text id="Create-4" data-name="Create" transform="translate(488.06 463.01)" fill="#707070" font-size="50" font-family="KhmerMN, Khmer MN" opacity="0.652"><tspan x="0" y="0">Create</tspan></text>
        </g>
        <g transform="matrix(1, 0, 0, 1, 4181.78, 2496.95)" filter="url(#Partnership)">
          <text id="Partnership-2" data-name="Partnership" transform="translate(772.06 614.01)" fill="#707070" font-size="112" font-family="KhmerMN, Khmer MN"><tspan x="0" y="0">Partnership</tspan></text>
        </g>
        <g transform="matrix(1, 0, 0, 1, 4181.78, 2496.95)" filter="url(#Execute)">
          <text id="Execute-2" data-name="Execute" transform="translate(1245.06 795.01)" fill="#707070" font-size="51" font-family="KhmerMN, Khmer MN" opacity="0.652"><tspan x="0" y="0">Execute</tspan></text>
        </g>
        <path id="handshake" d="M531.435,89.9c-.3,3-.477,6.412-.555,10.117l-42.532,20.312c-5.957-.976-35.5.743-79.562-21-11.171-5.513-22.087-8.442-32.57-8.442-9.487.013-27.279,6.6-27.279,6.6l-36.531-8.553L229.615,107.8s-12.05,14.4-40.07,10.75-55.478-18.87-72.008-25.337L2,9S26.535,86.249,26.535,153.947,2,279.791,2,279.791l84.909,40.4a41.6,41.6,0,0,0,4.171-6.412L93.71,315q1.93,4.992,4.26,9.94c-9.318,15.686-10.428,33.358-2.984,48.722,6.379,13.146,18.26,22.375,31.494,24.96a48.659,48.659,0,0,0,8.109,22.975c8.32,12.28,21.543,19.613,35.4,19.613a32.526,32.526,0,0,0,3.75-.2,46.922,46.922,0,0,0,8.631,14.61,42.845,42.845,0,0,0,32.127,15.131c.887,0,1.753-.022,2.629-.089a47.441,47.441,0,0,0,7.777,16.219c8.376,11.315,21.3,18.049,34.589,18.049a40.735,40.735,0,0,0,23.1-7.266c13.445,8.631,25.138,14.7,35.51,18.426a42.564,42.564,0,0,0,16.141,3.206c13.068,0,25.748-6.1,34.8-16.773a50.962,50.962,0,0,0,8.087-13.157,41.933,41.933,0,0,0,12.059,1.8c13.889,0,27.057-6.8,36.165-18.693a52.306,52.306,0,0,0,9.208-18.981c.954.067,1.9.1,2.84.1,16.052,0,31.417-9.418,40.058-24.583a52.527,52.527,0,0,0,6.978-25.914c15.864-2.363,29.83-13.645,36.631-30.1,6.7-16.208,4.881-34.09-4.471-49l43.209-24.35c1.109,3.794,2.2,7.288,3.25,10.128l104.556-55.634s-45.6-29.117-50.464-84.462S667.607,27.215,667.607,27.215L531.435,89.9m-.011,33.691c.688,12,1.941,25.57,3.561,39.737-8.875-14.91-20.079-21.71-33.99-25.093L531.424,123.6m-58,263.536C449.6,378.933,400,320.626,400,320.626h.976c5.047-.355,15.952-5.669,28.188-3.128-19.214-16.507-40.347-2.54-54.735-11.093,3.339,10.705,19.391,14.078,23.507,14.211l47.524,55.268c21.521,25.016,6.534,55.966-15.043,60.892-14.477-7.044-55.356-55.667-55.356-55.667,1.4-.255,9.685-2.851,18.127-1.742-19.491-14.577-41.589-1.93-54.7-11.082,7.433,18.36,31.916,13.656,34.478,13.212l25.426,32.46c20.345,25.959,4.36,55.944-17.25,60-19.158-6.734-31.594-30.7-31.594-30.7,1.93-.311,8.387-3.184,17.572-1.853-16.341-14.322-35.366-1.331-46.8-9.485,7.067,15.4,24.683,11.892,25.67,11.781,17.616,27.745-.655,56.676-22.486,57.542h-.022l-.022.011c-13.112-2.274-26.846-12.757-42.355-23.518,5.325-5.9,10.028-16.274,10.028-16.274,15.575-28.2-4.637-53.138-25.5-51,16.929,4.626,29.62,26.236,16.407,50.231l-5.8,9.762c-6.3,11.482-16.141,18.415-23.374,17.561-11.138-1.353-26.835-17.616-20.234-40.558,2.552-2.33,27.157-39.97,27.157-39.97,16.917-27.246-2.075-53.326-23-52.439,16.662,5.624,28.344,27.967,13.978,51.152l-20,31.184c-6.822,11.027-15.653,17.272-24.073,16.119-13.068-1.775-22.231-17.716-20.135-34.168-.111.1,14.4-16.13,14.4-16.13,19.28-25.193,2.773-53.326-18.116-54.8,16.052,7.477,25.615,31.04,9.23,52.483l-7.078,8.675c-7.765,10.184-17.117,15.364-25.3,13.323-14.288-3.583-21.721-30.318-14.965-37.607,5.314-5.735,20.234-23.9,20.234-23.9,19.269-25.2,2.784-53.326-18.127-54.824,16.063,7.5,25.626,31.062,9.241,52.516l-7.078,8.653c-7.81,10.273-17.195,15.431-25.437,13.334-17.173-4.349-25.748-30.862-9.318-52.383,0,0-5.58-17.727-8.1-25.3l-8.276-3.838c19.4-45.206,48.711-144.98,50.065-178.127,14.288,5.092,52.006,15.941,56.011,15.963l-.022.022s83.156-11.349,102.57-18.848c6.29-2.4,18.8-2.552,32.071,5.036-8.287,7.266-16.119,15.919-24.25,23.984-19.436,19.292-91.7,49.377-77.765,81.015,12.025,27.3,45.894,55.234,102.7,11.382l31.949-4.393L420.877,260.1l63.676,65.4c22.708,23.274,9.851,54.868-11.127,61.635M489.4,315.079c-7.3-13.645-30.052-36.02-51.529-54.314l-.133-.133c9.906.4,20.3-15.553,33.735-16.784-9.385-7.166-24.938,1.109-29.786,2.418-26.724,7.189-68.258-26.436-68.258-26.436l-39.737,5.724s-47.258,57.675-87.072,10.162c-21.621-25.8,56.732-59.505,76.035-78.686,24.727-24.572,46.759-54.635,87.439-34.157,33.791,17.04,47.1,15.986,92.431,23.873,13.512,2.363,22.875,8.553,32.914,20.634,4.726,39.759,12.369,83.855,19.7,114.54-3.783,3.184-36.209,24.994-65.74,33.158" transform="matrix(0.966, 0.259, -0.259, 0.966, 4841.189, 2991.789)" opacity="0.935" fill="url(#radial-gradient-2)"/>
        <g id="finallogo-2" data-name="finallogo" transform="matrix(0.966, -0.259, 0.259, 0.966, 5522.539, 3333.863)">
          <g id="Group_4-2" data-name="Group 4" transform="matrix(0.809, 0.588, -0.588, 0.809, -2405.256, -1409.739)">
            <g transform="matrix(0.93, -0.36, 0.36, 0.93, 1222.89, -574.11)" filter="url(#Execute_2)" style="mix-blend-mode: luminosity;isolation: isolate">
              <text id="Execute_4" data-name="Execute
" transform="matrix(-0.29, 0.96, 0.96, 0.29, 1407.47, 837.34)" fill="#707070" font-size="24" font-family="KhmerMN, Khmer MN" opacity="0.069"><tspan x="0" y="0">Execute</tspan><tspan x="0" y="44"></tspan></text>
            </g>
          </g>
        </g>
        <g id="web" transform="translate(1243.843 -1216.5)">
          <g id="mobile" transform="translate(4304 4323)">
            <g id="ux">
              <g id="musinc-note">
                <g id="music-icon">
                  <rect id="Rectangle_4" data-name="Rectangle 4" width="100" height="100" rx="28" fill="#6e90b2"/>
                </g>
              </g>
            </g>
          </g>
          <g id="web-2" data-name="web" transform="translate(4317.755 4336.726)">
            <path id="Path_100" data-name="Path 100" d="M36.245,0A36.249,36.249,0,1,0,49.1,70.152a1.131,1.131,0,0,0-.793-2.118A33.983,33.983,0,0,1,4.528,48.55C10.52,56.808,21.666,62.042,35.271,62.3a4.531,4.531,0,0,0,4.372,3.4h2.266a4.531,4.531,0,1,0,0-9.062H39.643a4.531,4.531,0,0,0-4.361,3.4c-16.108-.306-28.489-7.929-32.08-19.2a26.971,26.971,0,0,0,9.47,4.474A48.539,48.539,0,0,0,14.1,51.2a.578.578,0,0,0,.544.4h.17a.578.578,0,0,0,.374-.714,44.177,44.177,0,0,1-1.3-5.233,76.745,76.745,0,0,0,11.033,1.926h0c.261,2.424.6,4.758,1.031,6.955a.578.578,0,0,0,.555.453h.113a.555.555,0,0,0,.442-.668,95.154,95.154,0,0,1-1.6-17.445h3.987a.566.566,0,0,0,0-1.133H25.484a94.054,94.054,0,0,1,.51-9.685c3.081-.317,6.332-.487,9.685-.51v8.439a.566.566,0,0,0,1.133,0v-8.5a94.278,94.278,0,0,1,9.7.51c.181,1.858.328,3.772.408,5.743a.566.566,0,0,0,.589.544.578.578,0,0,0,.544-.589c-.079-1.926-.215-3.783-.385-5.573a73.947,73.947,0,0,1,11.158,2.062,50.341,50.341,0,0,1,.634,7.5H57.768a.566.566,0,1,0,0,1.133h12.46a33.983,33.983,0,0,1-2.186,11.5,1.131,1.131,0,1,0,2.118.793A36.249,36.249,0,0,0,36.245,0Zm3.4,58.9h2.266a2.266,2.266,0,1,1,0,4.531H39.643a2.266,2.266,0,1,1,0-4.531ZM68.688,26.133a29.905,29.905,0,0,0-12.336-9.991A29.905,29.905,0,0,0,46.361,3.806,34.142,34.142,0,0,1,68.688,26.133Zm1.3,6.185c-2.028-1.994-5.562-3.727-10.195-5.063a45.662,45.662,0,0,0-2.764-9.527C63.2,20.866,67.77,25.374,69.718,30.562a17.715,17.715,0,0,1,.272,1.756ZM2.262,35.682a12.028,12.028,0,0,1,.057-1.427c1.382-2.209,5.041-4.2,10.195-5.732a50.749,50.749,0,0,0-.566,7.159Zm.227-3.4c.068-.589.147-1.133.249-1.756,1.948-5.188,6.513-9.7,12.687-12.834a45.662,45.662,0,0,0-2.764,9.527c-4.6,1.371-8.133,3.1-10.161,5.1Zm14.5-15.292a43.691,43.691,0,0,1,9.934-3.081,75.4,75.4,0,0,0-2.005,11.011,75.4,75.4,0,0,0-11.044,1.971,43.691,43.691,0,0,1,3.115-9.9Zm.748-1.541C20.862,9.266,25.37,4.7,30.581,2.753c.578-.1,1.133-.181,1.756-.249C30.343,4.531,28.61,8.065,27.273,12.7a45.662,45.662,0,0,0-9.549,2.741ZM34.251,2.334a12.028,12.028,0,0,0,1.427-.057v9.629a50.748,50.748,0,0,0-7.159.566C30.049,7.374,32.042,3.715,34.251,2.334Zm2.56-.068a11.745,11.745,0,0,1,1.416.057c2.266,1.393,4.214,5.029,5.743,10.195a50.749,50.749,0,0,0-7.159-.566Zm3.4.227c.589.068,1.133.147,1.756.249,5.188,1.948,9.7,6.513,12.834,12.687a46.364,46.364,0,0,0-9.527-2.764C43.9,8.043,42.158,4.531,40.176,2.5ZM26.129,3.806a29.905,29.905,0,0,0-9.991,12.336A29.905,29.905,0,0,0,3.8,26.133,34.142,34.142,0,0,1,26.129,3.806ZM2.636,38.661c-.125-.612-.227-1.223-.295-1.846H11.9a51.3,51.3,0,0,0,.555,7.159C7.665,42.524,4.188,40.678,2.636,38.661Zm22.2,7.782a72.723,72.723,0,0,1-11.169-2.073,49.513,49.513,0,0,1-.634-7.51H24.362C24.374,40.077,24.532,43.294,24.838,46.444Zm-.487-10.761H13.023a50.339,50.339,0,0,1,.634-7.5,73.948,73.948,0,0,1,11.158-2.062C24.532,29.146,24.374,32.352,24.351,35.682ZM26.118,24.83A73.947,73.947,0,0,1,28.18,13.673a50.34,50.34,0,0,1,7.5-.634V24.366C32.348,24.377,29.143,24.536,26.118,24.83Zm10.693-.476V13.027a50.612,50.612,0,0,1,7.51.634A75.116,75.116,0,0,1,46.44,24.83Q41.8,24.389,36.811,24.355Zm10.761.566A74.582,74.582,0,0,0,45.6,13.876a43.691,43.691,0,0,1,9.9,3.115,43.691,43.691,0,0,1,3.081,9.934,75.394,75.394,0,0,0-11.01-2.005Zm12.46,3.58c5.1,1.529,8.756,3.523,10.138,5.732a12.029,12.029,0,0,0,.057,1.427H60.6a50.748,50.748,0,0,0-.566-7.136Z" transform="translate(-0.027 0)" fill="#fbfbfb"/>
            <path id="Path_101" data-name="Path 101" d="M32.414,43.063A12.564,12.564,0,1,1,50.188,60.825,1.129,1.129,0,1,0,51.8,62.411,14.828,14.828,0,0,0,30.829,41.466a1.125,1.125,0,0,0,1.586,1.6Z" transform="translate(4.019 4.977)" fill="#dd6464"/>
            <path id="Path_102" data-name="Path 102" d="M55.422,39.14a19.427,19.427,0,0,1,.1,27.277,1.137,1.137,0,1,0,1.609,1.609A21.636,21.636,0,0,0,26.547,37.441a1.162,1.162,0,1,0,1.688,1.6,19.427,19.427,0,0,1,27.186.1Z" transform="translate(3.452 4.188)" fill="#eb5f5f"/>
            <path id="Path_103" data-name="Path 103" d="M44.83,56.827a1.133,1.133,0,0,0,1.609,0A8.031,8.031,0,0,0,35.111,45.5a1.138,1.138,0,1,0,1.575,1.643,5.766,5.766,0,0,1,8.145,8.145A1.133,1.133,0,0,0,44.83,56.827Z" transform="translate(4.585 5.782)" fill="#dd6464"/>
          </g>
        </g>
        <g transform="matrix(1, 0, 0, 1, 4181.78, 2496.95)" filter="url(#Program)">
          <text id="Program-2" data-name="Program" transform="translate(772.06 1177.73)" fill="#707070" font-size="112" font-family="KhmerMN, Khmer MN"><tspan x="0" y="0">Program</tspan></text>
        </g>
        <g transform="matrix(1, 0, 0, 1, 4181.78, 2496.95)" filter="url(#Innovate-2)">
          <text id="Innovate-4" data-name="Innovate" transform="translate(965.06 437.01)" fill="#707070" font-size="50" font-family="KhmerMN, Khmer MN" opacity="0.652"><tspan x="0" y="0">Innovate</tspan></text>
        </g>
      </g>
      <g id="mobile-2" data-name="mobile" transform="translate(565 -1098)">
        <g id="ux-2" data-name="ux" transform="translate(4514 4428)">
          <g id="musinc-note-2" data-name="musinc-note">
            <g id="music-icon-2" data-name="music-icon">
              <rect id="Rectangle_4-2" data-name="Rectangle 4" width="100" height="100" rx="28" fill="#9d3f3f"/>
            </g>
          </g>
        </g>
        <g id="mobile-3" data-name="mobile" transform="translate(4545.708 4444.805)">
          <path id="Path_87" data-name="Path 87" d="M32.078,6.657A1.578,1.578,0,1,0,30.5,5.078,1.578,1.578,0,0,0,32.078,6.657Zm0-2.1a.526.526,0,1,1-.526.526A.526.526,0,0,1,32.078,4.552Z" transform="translate(-13.138 0.183)" fill="#fafafa"/>
          <path id="Path_88" data-name="Path 88" d="M32.078,28.657A1.578,1.578,0,1,0,30.5,27.078,1.578,1.578,0,0,0,32.078,28.657Zm0-2.1a.526.526,0,1,1-.526.526A.526.526,0,0,1,32.078,26.552Z" transform="translate(-13.138 1.331)" fill="#fafafa"/>
          <circle id="Ellipse_7" data-name="Ellipse 7" cx="1.22" cy="1.22" r="1.22" transform="translate(21.951 3.927)" fill="#fafafa"/>
          <circle id="Ellipse_8" data-name="Ellipse 8" cx="1.22" cy="1.22" r="1.22" transform="translate(13.415 3.927)" fill="#fafafa"/>
          <path id="Path_89" data-name="Path 89" d="M20.313,67.342H45.566a5.261,5.261,0,0,0,5.261-5.261V5.261A5.261,5.261,0,0,0,45.566,0H20.313a5.261,5.261,0,0,0-5.261,5.261V9.47A1.052,1.052,0,0,0,14,10.522v4.209a1.052,1.052,0,0,0,1.052,1.052v2.1A1.052,1.052,0,0,0,14,18.94v4.209A1.052,1.052,0,0,0,15.052,24.2v37.88A5.261,5.261,0,0,0,20.313,67.342Zm0-65.237H45.566a3.157,3.157,0,0,1,3.157,2.631H45.566a4.567,4.567,0,0,0-3.525,1.736,3.63,3.63,0,0,1-2.788,1.42H26.627a3.63,3.63,0,0,1-2.788-1.42,4.567,4.567,0,0,0-3.525-1.736h-3.1a3.157,3.157,0,0,1,3.1-2.631ZM45.566,65.237H20.313a3.157,3.157,0,0,1-3.157-3.157V5.787h3.157A3.63,3.63,0,0,1,23.1,7.208a4.567,4.567,0,0,0,3.525,1.736H39.253a4.567,4.567,0,0,0,3.525-1.736,3.63,3.63,0,0,1,2.788-1.42h3.157V62.081a3.157,3.157,0,0,1-3.157,3.157Z" transform="translate(-14)" fill="#fafafa"/>
          <path id="Path_90" data-name="Path 90" d="M38.356,54.107a7.639,7.639,0,0,1-2.967.474c-1.883,0-3.157-.873-3.157-2.1a.526.526,0,0,0-1.052,0c0,1.873,1.747,3.157,4.209,3.157a8.27,8.27,0,0,0,3.43-.589.526.526,0,0,0-.463-.936Z" transform="translate(-13.103 2.713)" fill="#fafafa"/>
          <path id="Path_91" data-name="Path 91" d="M37.4,56.025c-2.578.463-4.661.316-6.04-.442a.526.526,0,0,0-.716.21.537.537,0,0,0,.21.715,7.86,7.86,0,0,0,3.82.831,16.593,16.593,0,0,0,2.915-.263.535.535,0,1,0-.189-1.052Z" transform="translate(-13.134 2.899)" fill="#fafafa"/>
          <path id="Path_92" data-name="Path 92" d="M39.438,51.579a.537.537,0,0,0-.7.221,1.831,1.831,0,0,1-1.663.789c-1.957,0-2.294-.684-2.673-1.484a2.546,2.546,0,0,0-2.652-1.715,3.051,3.051,0,0,0-3.157,3.157,5.4,5.4,0,0,0,.126,1.178.526.526,0,0,0,.516.41h.105a.526.526,0,0,0,.41-.621,4.683,4.683,0,0,1-.105-.958,2.01,2.01,0,0,1,2.1-2.1,1.536,1.536,0,0,1,1.7,1.126c.421.873,1.052,2.1,3.62,2.1a2.841,2.841,0,0,0,2.6-1.357.537.537,0,0,0-.231-.747Z" transform="translate(-13.238 2.578)" fill="#fafafa"/>
          <path id="Path_93" data-name="Path 93" d="M34.517,58.584c-4.788,0-6.934-2.946-6.934-5.861a4.556,4.556,0,0,1,4.272-4.8,4.9,4.9,0,0,1,4.819,3.293.526.526,0,0,0,.652.358.537.537,0,0,0,.358-.652,6.029,6.029,0,0,0-5.829-4.1,5.6,5.6,0,0,0-5.324,5.85c0,4.072,3.283,6.913,7.986,6.913a.526.526,0,0,0,.526-.526.537.537,0,0,0-.526-.474Z" transform="translate(-13.346 2.445)" fill="#fafafa"/>
          <path id="Path_94" data-name="Path 94" d="M26.546,44.934a.568.568,0,0,0,.263-.063,10.038,10.038,0,0,1,7.081-.915.526.526,0,0,0,.631-.41.516.516,0,0,0-.4-.621,11.227,11.227,0,0,0-7.828,1.052.526.526,0,0,0-.2.716A.516.516,0,0,0,26.546,44.934Z" transform="translate(-13.372 2.226)" fill="#fafafa"/>
          <path id="Path_95" data-name="Path 95" d="M35.7,44.074a.516.516,0,0,0,.231.7,5.787,5.787,0,0,1,1.947,1.484.505.505,0,0,0,.421.21.516.516,0,0,0,.316-.105.537.537,0,0,0,.105-.737,6.671,6.671,0,0,0-2.315-1.789.516.516,0,0,0-.7.231Z" transform="translate(-12.87 2.286)" fill="#fafafa"/>
          <path id="Path_96" data-name="Path 96" d="M29.021,40.817a.538.538,0,0,0,.221,1.052,10.522,10.522,0,0,1,7.586.989.516.516,0,0,0,.295.095.505.505,0,0,0,.431-.242.516.516,0,0,0-.147-.726A11.311,11.311,0,0,0,29.021,40.817Z" transform="translate(-13.238 2.114)" fill="#fafafa"/>
          <path id="Path_97" data-name="Path 97" d="M26.956,47.006a.537.537,0,0,0-.747.063,8.6,8.6,0,0,0-1.347,2.262.537.537,0,0,0,.295.684.663.663,0,0,0,.2,0,.526.526,0,0,0,.484-.326,7.366,7.366,0,0,1,1.168-1.947A.526.526,0,0,0,26.956,47.006Z" transform="translate(-13.435 2.448)" fill="#fafafa"/>
          <path id="Path_98" data-name="Path 98" d="M31.186,44.83a7.513,7.513,0,0,0-1.715.189.539.539,0,1,0,.231,1.052,6.819,6.819,0,0,1,1.484-.168,7.976,7.976,0,0,1,7,3.472.537.537,0,0,0,.463.263.621.621,0,0,0,.263-.074.526.526,0,0,0,.189-.716,9.028,9.028,0,0,0-7.913-4.019Z" transform="translate(-13.214 2.34)" fill="#fafafa"/>
          <path id="Path_99" data-name="Path 99" d="M29.078,32.388h6.313a1.578,1.578,0,0,0,1.578-1.578V24.5a1.589,1.589,0,0,0-1.052-1.484v-4.83a3.683,3.683,0,0,0-7.365,0v2.1a.526.526,0,1,0,1.052,0v-2.1a2.631,2.631,0,1,1,5.261,0v4.735H29.078A1.578,1.578,0,0,0,27.5,24.5v6.313A1.578,1.578,0,0,0,29.078,32.388ZM28.552,24.5a.526.526,0,0,1,.526-.526h6.313a.526.526,0,0,1,.526.526v6.313a.526.526,0,0,1-.526.526H29.078a.526.526,0,0,1-.526-.526Z" transform="translate(-13.295 0.757)" fill="#fafafa"/>
        </g>
      </g>
      <g id="ux-3" data-name="ux" transform="translate(220 -967)">
        <g id="musinc-note-3" data-name="musinc-note" transform="translate(4521 4547)">
          <g id="music-icon-3" data-name="music-icon">
            <rect id="Rectangle_4-3" data-name="Rectangle 4" width="100" height="100" rx="28" fill="#2d9890"/>
          </g>
        </g>
        <g id="ux-4" data-name="ux" transform="translate(4537.318 4568.974)">
          <path id="Path_77" data-name="Path 77" d="M58.915,141.568V167.1H4.652A4.651,4.651,0,0,1,0,162.45c0-2.569,9.3-34.578,9.3-34.578H58.915v13.7Z" transform="translate(0 -116.786)" fill="#ccc"/>
          <g transform="matrix(1, 0, 0, 1, -542.38, -546.98)" filter="url(#Path_78)">
            <path id="Path_78-2" data-name="Path 78" d="M143.274,53.736V43.2h7.289V81.057h-7.289V53.736Z" transform="translate(417.86 503.78)" fill="#fbfbfb"/>
          </g>
          <g id="Group_24" data-name="Group 24" transform="translate(18.759 3.763)">
            <rect id="Rectangle_5" data-name="Rectangle 5" width="2.822" height="2.351" transform="translate(0 0)" fill="#898988"/>
            <rect id="Rectangle_6" data-name="Rectangle 6" width="2.822" height="2.351" transform="translate(0 16.787)" fill="#898988"/>
            <rect id="Rectangle_7" data-name="Rectangle 7" width="2.822" height="2.351" transform="translate(0 11.189)" fill="#898988"/>
            <rect id="Rectangle_8" data-name="Rectangle 8" width="2.822" height="2.351" transform="translate(0 5.595)" fill="#898988"/>
            <rect id="Rectangle_9" data-name="Rectangle 9" width="2.822" height="2.351" transform="translate(0 27.978)" fill="#898988"/>
            <rect id="Rectangle_10" data-name="Rectangle 10" width="2.822" height="2.351" transform="translate(0 22.381)" fill="#898988"/>
          </g>
          <g id="Group_25" data-name="Group 25" transform="translate(43.534 16.13)">
            <path id="Path_79" data-name="Path 79" d="M351.442,199.43h.055a9.755,9.755,0,0,1-1.011,4.326H333.054v0c.6-1.379-.556-2.851-.556-4.325Z" transform="translate(-332.498 -195.105)" fill="#c93333"/>
            <path id="Path_80" data-name="Path 80" d="M332.5,170.723c0-1.472,1.152-2.944.556-4.323v0h17.431a9.754,9.754,0,0,1,1.011,4.325h-19Z" transform="translate(-332.498 -166.398)" fill="#c93333"/>
          </g>
          <path id="Path_86" data-name="Path 86" d="M0,0H20.4V1.567H0Z" transform="translate(43.534 19.67)" fill="#fbfbfb"/>
          <path id="Path_81" data-name="Path 81" d="M471.264,166.4a9.759,9.759,0,0,1,0,8.651H466.29a9.759,9.759,0,0,0,0-8.651Z" transform="translate(-405.239 -150.269)" fill="#2d6f98"/>
          <path id="Path_82" data-name="Path 82" d="M290.894,181.9c.442.655,2.47,1.445,2.47,2.295s-2.027,1.64-2.47,2.3l-3.425-2.3Z" transform="translate(-249.831 -163.743)" fill="#707070"/>
          <path id="Path_83" data-name="Path 83" d="M316.656,166.4a10.893,10.893,0,0,1,0,8.648v0l-3.027-2.03a4.119,4.119,0,0,0,0-4.591l3.027-2.03Z" transform="translate(-272.566 -150.268)" fill="#f2f2f2"/>
          <path id="Path_84" data-name="Path 84" d="M9.3,66.108V96.034H4.652A4.653,4.653,0,0,0,0,100.686V61.455A4.651,4.651,0,0,1,4.652,56.8H9.3Z" transform="translate(0 -55.022)" fill="#e6e6e6"/>
          <g data-type="innerShadowGroup">
            <path id="Path_85-2" data-name="Path 85" d="M265.473,291.926H238.826V265.279L259.9,286.355ZM243.348,287.4h11.207L243.348,276.2Z" transform="translate(-207.557 -236.203)" fill="#2d6f98"/>
            <g transform="matrix(1, 0, 0, 1, -542.38, -546.98)" filter="url(#Path_85)">
              <path id="Path_85-3" data-name="Path 85" d="M265.473,291.926H238.826V265.279L259.9,286.355ZM243.348,287.4h11.207L243.348,276.2Z" transform="translate(334.82 310.78)" fill="#fff"/>
            </g>
          </g>
        </g>
      </g>
      <g id="musinc-note-4" data-name="musinc-note" transform="translate(1090 -1168)">
        <g id="music-icon-4" data-name="music-icon" transform="translate(4444 4648)">
          <rect id="Rectangle_4-4" data-name="Rectangle 4" width="100" height="100" rx="28" fill="#2d6f98"/>
        </g>
        <g id="music-note" transform="translate(4473.921 4675.865)">
          <path id="Path_54" data-name="Path 54" d="M6.75,6.906A2.677,2.677,0,0,1,9.177,4.241L33.271,1.976A2.677,2.677,0,0,1,36.2,4.641v5.84a2.677,2.677,0,0,1-2.413,2.664L9.691,15.535A2.677,2.677,0,0,1,6.75,12.871Z" transform="translate(3.959 -1.964)" fill="#fbfbfb" fill-rule="evenodd"/>
          <ellipse id="Ellipse_5" data-name="Ellipse 5" cx="8.031" cy="6.693" rx="8.031" ry="6.693" transform="translate(24.094 28.207)" fill="#fbfbfb"/>
          <ellipse id="Ellipse_6" data-name="Ellipse 6" cx="8.031" cy="6.693" rx="8.031" ry="6.693" transform="translate(0 30.884)" fill="#fbfbfb"/>
          <path id="Path_55" data-name="Path 55" d="M15.75,5H21.1V31.771H15.75Z" transform="translate(19.053 3.128)" fill="#fbfbfb" fill-rule="evenodd"/>
          <path id="Path_56" data-name="Path 56" d="M6.75,6H12.1V32.771H6.75Z" transform="translate(3.959 4.805)" fill="#fbfbfb" fill-rule="evenodd"/>
        </g>
      </g>
      <g id="_3d-icon" data-name="3d-icon" transform="translate(519 -1258)">
        <rect id="Rectangle_4-5" data-name="Rectangle 4" width="100" height="100" rx="28" transform="translate(4336 4648)" fill="#c93333"/>
        <g id="Continuous-Integration-Filled" transform="translate(4354.272 4663.829)" style="isolation: isolate">
          <path id="Path_50" data-name="Path 50" d="M64.546,19.368V53.917L35.726,68.342V33.793ZM32.818,28.733,61.551,14.366,32.818,0,4.085,14.366Zm-2.908,5.06L1.09,19.368V53.917L29.91,68.342Z" transform="translate(-1.09)" fill="#fbfbfb"/>
        </g>
        <g data-type="innerShadowGroup">
          <g transform="matrix(1, 0, 0, 1, 3695.94, 4312.99)" filter="url(#_3D)" style="mix-blend-mode: hard-light;isolation: isolate">
            <text id="_3D-3" data-name="3D" transform="translate(669.33 377.11)" fill="#7b5858" font-size="35" font-family="KhmerMN, Khmer MN"><tspan x="0" y="0">3D</tspan></text>
          </g>
          <g transform="matrix(1, 0, 0, 1, 3695.94, 4312.99)" filter="url(#_3D-2)" style="mix-blend-mode: hard-light;isolation: isolate">
            <text id="_3D-4" data-name="3D" transform="translate(669.33 377.11)" fill="#fff" font-size="35" font-family="KhmerMN, Khmer MN"><tspan x="0" y="0">3D</tspan></text>
          </g>
        </g>
      </g>
      <g id="graphic" transform="translate(1017 -1191)">
        <g id="graphic-2" data-name="graphic" transform="translate(4336 4531)">
          <g id="music-icon-5" data-name="music-icon">
            <rect id="Rectangle_4-6" data-name="Rectangle 4" width="100" height="100" rx="28" fill="#403974"/>
          </g>
        </g>
        <g id="graphic-3" data-name="graphic" transform="translate(4360.795 4550.665)">
          <g transform="matrix(1, 0, 0, 1, -1162.85, -304.67)" filter="url(#Path_57)">
            <path id="Path_57-2" data-name="Path 57" d="M140.362,77.066a17.9,17.9,0,0,1-5.074,12.509,15.409,15.409,0,0,0-4.41,10.723l-11.024,3.855-5.925-3.855a15.449,15.449,0,0,0-4.423-10.736,17.958,17.958,0,1,1,30.856-12.5Z" transform="translate(1065.66 252.57)" fill="#d6d6d6"/>
          </g>
          <path id="Path_58" data-name="Path 58" d="M221.109,161.771l2.37,3.535h0c-1.611.7-3.331,6.168-5.05,6.168s-3.44-5.471-5.052-6.168l2.37-3.535c.767.517,1.689-1.171,2.682-1.171S220.344,162.287,221.109,161.771Z" transform="translate(-193.222 -141.569)" fill="#ccc"/>
          <g id="Group_21" data-name="Group 21" transform="translate(20.154 23.737)">
            <path id="Path_59" data-name="Path 59" d="M261.058,200.314v26.17h-5.052V201.359q.429,0,.856-.029a12.717,12.717,0,0,0,4.194-1.016h0Z" transform="translate(-250.954 -200.314)" fill="#666"/>
            <path id="Path_60" data-name="Path 60" d="M218.426,201.36v25.126h-5.052v-26.17a12.727,12.727,0,0,0,4.2,1.016C217.856,201.349,218.14,201.36,218.426,201.36Z" transform="translate(-213.374 -200.315)" fill="#696565"/>
          </g>
          <path id="Path_61" data-name="Path 61" d="M250.494,208.885V234.04h-1.712V208.885c.286.019.57.029.856.029S250.21,208.9,250.494,208.885Z" transform="translate(-224.432 -184.133)" fill="#6e6e6e"/>
          <path id="Path_62" data-name="Path 62" d="M236.056,136.727l2.682,4a4.811,4.811,0,0,1-5.364,0Z" transform="translate(-210.85 -120.525)" fill="#be4f4f"/>
          <g id="Group_22" data-name="Group 22" transform="translate(23.874 9.628)">
            <path id="Path_63" data-name="Path 63" d="M290.856,101.769a1.125,1.125,0,0,1-1.125-1.125,13.144,13.144,0,0,0-9.493-12.582,1.125,1.125,0,0,1,.618-2.163,15.4,15.4,0,0,1,11.125,14.746A1.125,1.125,0,0,1,290.856,101.769Z" transform="translate(-275.316 -85.309)" fill="#fff"/>
            <path id="Path_64" data-name="Path 64" d="M246.879,83.526l-.06,0c-.255-.013-.5-.019-.743-.02h-.161a1.125,1.125,0,1,1-.049-2.249c.348-.007.7,0,1.07.021a1.125,1.125,0,0,1-.058,2.248Z" transform="translate(-244.766 -81.254)" fill="#fff"/>
          </g>
          <g id="Group_23" data-name="Group 23" transform="translate(0)">
            <path id="Path_65" data-name="Path 65" d="M441,207.4h-1.963a.825.825,0,0,1,0-1.65H441a.825.825,0,1,1,0,1.65Z" transform="translate(-391.415 -181.368)" fill="#fbfbfb"/>
            <path id="Path_66" data-name="Path 66" d="M46.082,207.4H44.12a.825.825,0,0,1,0-1.65h1.962a.825.825,0,1,1,0,1.65Z" transform="translate(-43.295 -181.368)" fill="#fbfbfb"/>
            <path id="Path_67" data-name="Path 67" d="M413.683,105.512a.825.825,0,0,1-.413-1.54l1.7-.981a.825.825,0,1,1,.824,1.43l-1.7.981A.822.822,0,0,1,413.683,105.512Z" transform="translate(-369.065 -90.689)" fill="#fbfbfb"/>
            <path id="Path_68" data-name="Path 68" d="M71.688,302.97a.825.825,0,0,1-.413-1.539l1.7-.981a.825.825,0,1,1,.825,1.429l-1.7.981A.822.822,0,0,1,71.688,302.97Z" transform="translate(-67.595 -264.749)" fill="#fbfbfb"/>
            <path id="Path_69" data-name="Path 69" d="M344.446,30.919a.825.825,0,0,1-.714-1.238l.982-1.7a.825.825,0,0,1,1.429.825l-.982,1.7A.825.825,0,0,1,344.446,30.919Z" transform="translate(-308.033 -24.301)" fill="#fbfbfb"/>
            <path id="Path_70" data-name="Path 70" d="M249.869,3.615a.825.825,0,0,1-.825-.825V.825a.825.825,0,1,1,1.65,0V2.79A.825.825,0,0,1,249.869,3.615Z" transform="translate(-224.663)" fill="#fbfbfb"/>
            <path id="Path_71" data-name="Path 71" d="M147.97,30.919a.825.825,0,0,1-.715-.412l-.982-1.7a.825.825,0,0,1,1.429-.825l.982,1.7a.825.825,0,0,1-.714,1.238Z" transform="translate(-133.972 -24.301)" fill="#fbfbfb"/>
            <path id="Path_72" data-name="Path 72" d="M73.388,105.511a.82.82,0,0,1-.411-.111l-1.7-.981a.825.825,0,0,1,.824-1.429l1.7.981a.825.825,0,0,1-.413,1.54Z" transform="translate(-67.596 -90.689)" fill="#fbfbfb"/>
            <path id="Path_73" data-name="Path 73" d="M415.408,302.969a.82.82,0,0,1-.412-.111l-1.7-.981a.825.825,0,1,1,.825-1.429l1.7.981a.825.825,0,0,1-.413,1.54Z" transform="translate(-369.089 -264.748)" fill="#fbfbfb"/>
          </g>
          <g data-type="innerShadowGroup">
            <path id="Path_74-2" data-name="Path 74" d="M237.2,483.191v1.35a2.064,2.064,0,0,1-2.064,2.064h-1.713a2.064,2.064,0,0,1-2.064-2.064v-1.35a7.243,7.243,0,0,0,1.645.189h2.548A7.267,7.267,0,0,0,237.2,483.191Z" transform="translate(-209.076 -425.934)" fill="#999"/>
            <g transform="matrix(1, 0, 0, 1, -1162.85, -304.67)" filter="url(#Path_74)">
              <path id="Path_74-3" data-name="Path 74" d="M237.2,483.191v1.35a2.064,2.064,0,0,1-2.064,2.064h-1.713a2.064,2.064,0,0,1-2.064-2.064v-1.35a7.243,7.243,0,0,0,1.645.189h2.548A7.267,7.267,0,0,0,237.2,483.191Z" transform="translate(953.78 -121.26)" fill="#fff"/>
            </g>
          </g>
          <g transform="matrix(1, 0, 0, 1, -1162.85, -304.67)" filter="url(#Path_75)">
            <path id="Path_75-2" data-name="Path 75" d="M201.441,406.714v2.575c0,.077,0,.151,0,.227a7.106,7.106,0,0,1-.125,1.125,7.029,7.029,0,0,1-.312,1.125,7.187,7.187,0,0,1-6.761,4.725h-2.548a7.187,7.187,0,0,1-6.76-4.725,7.037,7.037,0,0,1-.312-1.125,7.12,7.12,0,0,1-.125-1.125c0-.075,0-.15,0-.227v-2.575Z" transform="translate(995.09 -53.85)" fill="#b3b3b3"/>
          </g>
          <path id="Path_76" data-name="Path 76" d="M201.459,430.358a7.109,7.109,0,0,1-.125,1.125,7.028,7.028,0,0,1-.312,1.125h-16.07a7.039,7.039,0,0,1-.312-1.125,7.127,7.127,0,0,1-.125-1.125Z" transform="translate(-167.782 -379.362)" fill="#999"/>
        </g>
      </g>
    </g>
  </g>
</svg>
