<svg xmlns="http://www.w3.org/2000/svg" xmlns:xlink="http://www.w3.org/1999/xlink" width="1808.12" height="1674.007" viewBox="0 0 1808.12 1674.007">
  <defs>
    <filter id="Path_6" x="1132.207" y="738.77" width="524.069" height="507.023" filterUnits="userSpaceOnUse">
      <feOffset dx="12" dy="12" input="SourceAlpha"/>
      <feGaussianBlur stdDeviation="6" result="blur"/>
      <feFlood flood-opacity="0.161"/>
      <feComposite operator="in" in2="blur"/>
      <feComposite in="SourceGraphic"/>
    </filter>
    <filter id="Path_8" x="1130.621" y="736.923" width="501.645" height="478.899" filterUnits="userSpaceOnUse">
      <feOffset dx="12" dy="12" input="SourceAlpha"/>
      <feGaussianBlur stdDeviation="6" result="blur-2"/>
      <feFlood flood-opacity="0.161"/>
      <feComposite operator="in" in2="blur-2"/>
      <feComposite in="SourceGraphic"/>
    </filter>
    <filter id="Path_10" x="233.226" y="467.631" width="431.335" height="513.419" filterUnits="userSpaceOnUse">
      <feOffset dx="12" dy="12" input="SourceAlpha"/>
      <feGaussianBlur stdDeviation="6" result="blur-3"/>
      <feFlood flood-opacity="0.161"/>
      <feComposite operator="in" in2="blur-3"/>
      <feComposite in="SourceGraphic"/>
    </filter>
    <filter id="Path_11" x="257.161" y="463.963" width="407.804" height="506.569" filterUnits="userSpaceOnUse">
      <feOffset dx="12" dy="12" input="SourceAlpha"/>
      <feGaussianBlur stdDeviation="6" result="blur-4"/>
      <feFlood flood-opacity="0.161"/>
      <feComposite operator="in" in2="blur-4"/>
      <feComposite in="SourceGraphic"/>
    </filter>
    <filter id="Create" x="331.409" y="584.197" width="91.368" height="102.418" filterUnits="userSpaceOnUse">
      <feOffset dy="3" input="SourceAlpha"/>
      <feGaussianBlur stdDeviation="3" result="blur-5"/>
      <feFlood flood-opacity="0.161"/>
      <feComposite operator="in" in2="blur-5"/>
      <feComposite in="SourceGraphic"/>
    </filter>
    <filter id="Innovate" x="370.717" y="546.071" width="102.371" height="122.169" filterUnits="userSpaceOnUse">
      <feOffset dy="3" input="SourceAlpha"/>
      <feGaussianBlur stdDeviation="3" result="blur-6"/>
      <feFlood flood-opacity="0.161"/>
      <feComposite operator="in" in2="blur-6"/>
      <feComposite in="SourceGraphic"/>
    </filter>
    <filter id="Execute_" x="1353.299" y="824.325" width="124.375" height="116.408" filterUnits="userSpaceOnUse">
      <feOffset dy="3" input="SourceAlpha"/>
      <feGaussianBlur stdDeviation="3" result="blur-7"/>
      <feFlood flood-opacity="0.161"/>
      <feComposite operator="in" in2="blur-7"/>
      <feComposite in="SourceGraphic"/>
    </filter>
    <filter id="Create-2" x="471.217" y="443.047" width="100" height="73" filterUnits="userSpaceOnUse">
      <feOffset dy="3" input="SourceAlpha"/>
      <feGaussianBlur stdDeviation="3" result="blur-8"/>
      <feFlood flood-opacity="0.161"/>
      <feComposite operator="in" in2="blur-8"/>
      <feComposite in="SourceGraphic"/>
    </filter>
    <filter id="Innovate-2" x="845.217" y="611.047" width="121" height="73" filterUnits="userSpaceOnUse">
      <feOffset dy="3" input="SourceAlpha"/>
      <feGaussianBlur stdDeviation="3" result="blur-9"/>
      <feFlood flood-opacity="0.161"/>
      <feComposite operator="in" in2="blur-9"/>
      <feComposite in="SourceGraphic"/>
    </filter>
    <filter id="Execute" x="1263.217" y="795.047" width="113" height="73" filterUnits="userSpaceOnUse">
      <feOffset dy="3" input="SourceAlpha"/>
      <feGaussianBlur stdDeviation="3" result="blur-10"/>
      <feFlood flood-opacity="0.161"/>
      <feComposite operator="in" in2="blur-10"/>
      <feComposite in="SourceGraphic"/>
    </filter>
    <radialGradient id="radial-gradient" cx="0.5" cy="0.5" r="0.5" gradientUnits="objectBoundingBox">
      <stop offset="0" stop-color="#c93333"/>
      <stop offset="1" stop-color="#2b6387"/>
    </radialGradient>
    <filter id="Execute_2" x="1353.299" y="824.325" width="124.375" height="116.408" filterUnits="userSpaceOnUse">
      <feOffset dy="3" input="SourceAlpha"/>
      <feGaussianBlur stdDeviation="3" result="blur-11"/>
      <feFlood flood-opacity="0.161"/>
      <feComposite operator="in" in2="blur-11"/>
      <feComposite in="SourceGraphic"/>
    </filter>
  </defs>
  <g id="partner" transform="translate(-4181.783 -2496.953)">
    <g id="finallogo" transform="matrix(0.966, -0.259, 0.259, 0.966, 4181.783, 2889.427)">
      <g id="Group_4" data-name="Group 4" transform="matrix(0.809, 0.588, -0.588, 0.809, -1225.214, -633.434)">
        <g id="R" transform="translate(2827.338 -411.226) rotate(26)">
          <g transform="matrix(0.68, -0.73, 0.73, 0.68, -1513.47, 556.94)" filter="url(#Path_6)">
            <path id="Path_6-2" data-name="Path 6" d="M186.588,0s-69.927,139.525-62.42,216.209,141.525,87.562,141.525,87.562-23.507,20.718-22.121,47.188,27.664,58.577,27.664,58.577S12.564,343.725.527,229.2,186.588,0,186.588,0Z" transform="translate(1312.55 1215.79) rotate(-130)" fill="#32749d"/>
          </g>
          <g transform="matrix(0.68, -0.73, 0.73, 0.68, -1513.47, 556.94)" filter="url(#Path_8)" style="mix-blend-mode: luminosity;isolation: isolate">
            <path id="Path_8-2" data-name="Path 8" d="M186.588,0S96.155,139.637,106.534,215.908s118.1,92.928,118.1,92.928-22.664,19.435-21.832,46.1,27.378,59.78,27.378,59.78S12.564,343.725.527,229.2,186.588,0,186.588,0Z" transform="translate(1284.58 1185.82) rotate(-130)" fill="#606060"/>
          </g>
        </g>
        <g id="L" transform="translate(1643.666 -132.212) rotate(-43)">
          <g transform="matrix(0.93, 0.37, -0.37, 0.93, -6.36, -610.15)" filter="url(#Path_10)">
            <path id="Path_10-2" data-name="Path 10" d="M57.208,0s74,137.237,69.157,214.305S.37,305.684.37,305.684s18.466,21.712,19.6,48.081S0,411.5,0,411.5s241.25-73.474,249.3-188.6S57.208,0,57.208,0Z" transform="translate(634.56 849.55) rotate(156)" fill="#ed5757"/>
          </g>
          <g transform="matrix(0.93, 0.37, -0.37, 0.93, -6.36, -610.15)" filter="url(#Path_11)" style="mix-blend-mode: luminosity;isolation: isolate">
            <path id="Path_11-2" data-name="Path 11" d="M29.245,0s74,137.237,69.157,214.305S.262,310.656.262,310.656s19.695,23.282,19.629,49.731S0,416.451,0,416.451,213.287,338.025,221.337,222.9,29.245,0,29.245,0Z" transform="translate(634.97 850.41) rotate(156)" fill="#606060"/>
          </g>
          <g transform="matrix(0.93, 0.37, -0.37, 0.93, -6.36, -610.15)" filter="url(#Create)" style="mix-blend-mode: luminosity;isolation: isolate">
            <text id="Create-3" data-name="Create" transform="matrix(0.44, 0.9, 0.9, -0.44, 363.78, 599.4)" fill="#707070" font-size="26" font-family="KhmerMN, Khmer MN" opacity="0.071"><tspan x="0" y="0">Create</tspan></text>
          </g>
          <g transform="matrix(0.93, 0.37, -0.37, 0.93, -6.36, -610.15)" filter="url(#Innovate)" style="mix-blend-mode: luminosity;isolation: isolate">
            <text id="Innovate-3" data-name="Innovate" transform="matrix(0.44, 0.9, 0.9, -0.44, 403.98, 561.72)" fill="#707070" font-size="27" font-family="KhmerMN, Khmer MN" opacity="0.069"><tspan x="0" y="0">Innovate</tspan></text>
          </g>
        </g>
        <g transform="matrix(0.93, -0.36, 0.36, 0.93, 1222.89, -574.11)" filter="url(#Execute_)" style="mix-blend-mode: luminosity;isolation: isolate">
          <text id="Execute_3" data-name="Execute
" transform="matrix(-0.29, 0.96, 0.96, 0.29, 1407.47, 837.34)" fill="#707070" font-size="24" font-family="KhmerMN, Khmer MN" opacity="0.069"><tspan x="0" y="0">Execute</tspan><tspan x="0" y="44"></tspan></text>
        </g>
      </g>
    </g>
    <g transform="matrix(1, 0, 0, 1, 4181.78, 2496.95)" filter="url(#Create-2)">
      <text id="Create-4" data-name="Create" transform="translate(480.22 479.05)" fill="#707070" font-size="30" font-family="KhmerMN, Khmer MN"><tspan x="0" y="0">Create</tspan></text>
    </g>
    <g transform="matrix(1, 0, 0, 1, 4181.78, 2496.95)" filter="url(#Innovate-2)">
      <text id="Innovate-4" data-name="Innovate" transform="translate(854.22 647.05)" fill="#707070" font-size="30" font-family="KhmerMN, Khmer MN"><tspan x="0" y="0">Innovate</tspan></text>
    </g>
    <g transform="matrix(1, 0, 0, 1, 4181.78, 2496.95)" filter="url(#Execute)">
      <text id="Execute-2" data-name="Execute" transform="translate(1272.22 831.05)" fill="#707070" font-size="30" font-family="KhmerMN, Khmer MN"><tspan x="0" y="0">Execute</tspan></text>
    </g>
    <path id="handshake" d="M531.435,89.9c-.3,3-.477,6.412-.555,10.117l-42.532,20.312c-5.957-.976-35.5.743-79.562-21-11.171-5.513-22.087-8.442-32.57-8.442-9.487.013-27.279,6.6-27.279,6.6l-36.531-8.553L229.615,107.8s-12.05,14.4-40.07,10.75-55.478-18.87-72.008-25.337L2,9S26.535,86.249,26.535,153.947,2,279.791,2,279.791l84.909,40.4a41.6,41.6,0,0,0,4.171-6.412L93.71,315q1.93,4.992,4.26,9.94c-9.318,15.686-10.428,33.358-2.984,48.722,6.379,13.146,18.26,22.375,31.494,24.96a48.659,48.659,0,0,0,8.109,22.975c8.32,12.28,21.543,19.613,35.4,19.613a32.526,32.526,0,0,0,3.75-.2,46.922,46.922,0,0,0,8.631,14.61,42.845,42.845,0,0,0,32.127,15.131c.887,0,1.753-.022,2.629-.089a47.441,47.441,0,0,0,7.777,16.219c8.376,11.315,21.3,18.049,34.589,18.049a40.735,40.735,0,0,0,23.1-7.266c13.445,8.631,25.138,14.7,35.51,18.426a42.564,42.564,0,0,0,16.141,3.206c13.068,0,25.748-6.1,34.8-16.773a50.962,50.962,0,0,0,8.087-13.157,41.933,41.933,0,0,0,12.059,1.8c13.889,0,27.057-6.8,36.165-18.693a52.306,52.306,0,0,0,9.208-18.981c.954.067,1.9.1,2.84.1,16.052,0,31.417-9.418,40.058-24.583a52.527,52.527,0,0,0,6.978-25.914c15.864-2.363,29.83-13.645,36.631-30.1,6.7-16.208,4.881-34.09-4.471-49l43.209-24.35c1.109,3.794,2.2,7.288,3.25,10.128l104.556-55.634s-45.6-29.117-50.464-84.462S667.607,27.215,667.607,27.215L531.435,89.9m-.011,33.691c.688,12,1.941,25.57,3.561,39.737-8.875-14.91-20.079-21.71-33.99-25.093L531.424,123.6m-58,263.536C449.6,378.933,400,320.626,400,320.626h.976c5.047-.355,15.952-5.669,28.188-3.128-19.214-16.507-40.347-2.54-54.735-11.093,3.339,10.705,19.391,14.078,23.507,14.211l47.524,55.268c21.521,25.016,6.534,55.966-15.043,60.892-14.477-7.044-55.356-55.667-55.356-55.667,1.4-.255,9.685-2.851,18.127-1.742-19.491-14.577-41.589-1.93-54.7-11.082,7.433,18.36,31.916,13.656,34.478,13.212l25.426,32.46c20.345,25.959,4.36,55.944-17.25,60-19.158-6.734-31.594-30.7-31.594-30.7,1.93-.311,8.387-3.184,17.572-1.853-16.341-14.322-35.366-1.331-46.8-9.485,7.067,15.4,24.683,11.892,25.67,11.781,17.616,27.745-.655,56.676-22.486,57.542h-.022l-.022.011c-13.112-2.274-26.846-12.757-42.355-23.518,5.325-5.9,10.028-16.274,10.028-16.274,15.575-28.2-4.637-53.138-25.5-51,16.929,4.626,29.62,26.236,16.407,50.231l-5.8,9.762c-6.3,11.482-16.141,18.415-23.374,17.561-11.138-1.353-26.835-17.616-20.234-40.558,2.552-2.33,27.157-39.97,27.157-39.97,16.917-27.246-2.075-53.326-23-52.439,16.662,5.624,28.344,27.967,13.978,51.152l-20,31.184c-6.822,11.027-15.653,17.272-24.073,16.119-13.068-1.775-22.231-17.716-20.135-34.168-.111.1,14.4-16.13,14.4-16.13,19.28-25.193,2.773-53.326-18.116-54.8,16.052,7.477,25.615,31.04,9.23,52.483l-7.078,8.675c-7.765,10.184-17.117,15.364-25.3,13.323-14.288-3.583-21.721-30.318-14.965-37.607,5.314-5.735,20.234-23.9,20.234-23.9,19.269-25.2,2.784-53.326-18.127-54.824,16.063,7.5,25.626,31.062,9.241,52.516l-7.078,8.653c-7.81,10.273-17.195,15.431-25.437,13.334-17.173-4.349-25.748-30.862-9.318-52.383,0,0-5.58-17.727-8.1-25.3l-8.276-3.838c19.4-45.206,48.711-144.98,50.065-178.127,14.288,5.092,52.006,15.941,56.011,15.963l-.022.022s83.156-11.349,102.57-18.848c6.29-2.4,18.8-2.552,32.071,5.036-8.287,7.266-16.119,15.919-24.25,23.984-19.436,19.292-91.7,49.377-77.765,81.015,12.025,27.3,45.894,55.234,102.7,11.382l31.949-4.393L420.877,260.1l63.676,65.4c22.708,23.274,9.851,54.868-11.127,61.635M489.4,315.079c-7.3-13.645-30.052-36.02-51.529-54.314l-.133-.133c9.906.4,20.3-15.553,33.735-16.784-9.385-7.166-24.938,1.109-29.786,2.418-26.724,7.189-68.258-26.436-68.258-26.436l-39.737,5.724s-47.258,57.675-87.072,10.162c-21.621-25.8,56.732-59.505,76.035-78.686,24.727-24.572,46.759-54.635,87.439-34.157,33.791,17.04,47.1,15.986,92.431,23.873,13.512,2.363,22.875,8.553,32.914,20.634,4.726,39.759,12.369,83.855,19.7,114.54-3.783,3.184-36.209,24.994-65.74,33.158" transform="matrix(0.966, 0.259, -0.259, 0.966, 4841.189, 2991.789)" opacity="0.935" fill="url(#radial-gradient)"/>
    <g id="finallogo-2" data-name="finallogo" transform="matrix(0.966, -0.259, 0.259, 0.966, 5522.539, 3333.863)">
      <g id="Group_4-2" data-name="Group 4" transform="matrix(0.809, 0.588, -0.588, 0.809, -2405.256, -1409.739)">
        <g transform="matrix(0.93, -0.36, 0.36, 0.93, 1222.89, -574.11)" filter="url(#Execute_2)" style="mix-blend-mode: luminosity;isolation: isolate">
          <text id="Execute_4" data-name="Execute
" transform="matrix(-0.29, 0.96, 0.96, 0.29, 1407.47, 837.34)" fill="#707070" font-size="24" font-family="KhmerMN, Khmer MN" opacity="0.069"><tspan x="0" y="0">Execute</tspan><tspan x="0" y="44"></tspan></text>
        </g>
      </g>
    </g>
    <g id="web" transform="translate(1197 -1181.5)">
      <g id="mobile" transform="translate(-210 -105)">
        <g id="ux" transform="translate(-7 -119)">
          <g id="musinc-note" transform="translate(77 -101)">
            <g id="music-icon" transform="translate(108)">
              <rect id="Rectangle_4" data-name="Rectangle 4" width="82" height="82" rx="28" transform="translate(4336 4648)" fill="#6e90b2"/>
            </g>
          </g>
        </g>
      </g>
      <g id="web-2" data-name="web" transform="translate(4315.252 4334.255)">
        <path id="Path_100" data-name="Path 100" d="M29.726,0A29.724,29.724,0,1,0,40.268,57.525a.927.927,0,0,0-.65-1.737,27.866,27.866,0,0,1-35.9-15.977c4.914,6.771,14.054,11.063,25.21,11.276a3.715,3.715,0,0,0,3.585,2.787H34.37a3.715,3.715,0,0,0,0-7.431H32.512a3.715,3.715,0,0,0-3.576,2.787c-13.209-.251-23.361-6.5-26.306-15.744A22.116,22.116,0,0,0,10.4,37.155a39.8,39.8,0,0,0,1.17,4.83.474.474,0,0,0,.446.325h.139a.474.474,0,0,0,.307-.585,36.225,36.225,0,0,1-1.068-4.291,62.931,62.931,0,0,0,9.047,1.579h0c.214,1.988.492,3.9.845,5.7a.474.474,0,0,0,.455.372h.093a.455.455,0,0,0,.362-.548,78.026,78.026,0,0,1-1.31-14.3h3.27a.464.464,0,1,0,0-.929H20.9a77.124,77.124,0,0,1,.418-7.942c2.527-.26,5.192-.4,7.942-.418v6.92a.464.464,0,1,0,.929,0V20.9a77.308,77.308,0,0,1,7.951.418c.149,1.523.269,3.093.334,4.709a.464.464,0,0,0,.483.446.474.474,0,0,0,.446-.483c-.065-1.579-.176-3.1-.316-4.57a60.637,60.637,0,0,1,9.149,1.691,41.279,41.279,0,0,1,.52,6.149H47.374a.464.464,0,1,0,0,.929H57.592A27.866,27.866,0,0,1,55.8,39.616a.927.927,0,1,0,1.737.65A29.724,29.724,0,0,0,29.726,0Zm2.787,48.3H34.37a1.858,1.858,0,1,1,0,3.715H32.512a1.858,1.858,0,1,1,0-3.715ZM56.329,21.429a24.522,24.522,0,0,0-10.115-8.193A24.522,24.522,0,0,0,38.021,3.121,28,28,0,0,1,56.329,21.429ZM57.4,26.5c-1.663-1.635-4.561-3.056-8.36-4.152a37.443,37.443,0,0,0-2.266-7.812c5.062,2.573,8.806,6.27,10.4,10.524A14.526,14.526,0,0,1,57.4,26.5ZM1.86,29.259a9.863,9.863,0,0,1,.046-1.17c1.133-1.811,4.133-3.446,8.36-4.7a41.615,41.615,0,0,0-.464,5.87Zm.186-2.787c.056-.483.121-.929.2-1.44,1.6-4.254,5.341-7.951,10.4-10.524a37.443,37.443,0,0,0-2.266,7.812c-3.771,1.124-6.669,2.545-8.332,4.18Zm11.89-12.54a35.827,35.827,0,0,1,8.146-2.527,61.824,61.824,0,0,0-1.644,9.029,61.824,61.824,0,0,0-9.056,1.616,35.827,35.827,0,0,1,2.554-8.118Zm.613-1.263C17.112,7.6,20.809,3.855,25.081,2.257c.474-.084.929-.149,1.44-.2-1.635,1.663-3.056,4.561-4.152,8.36a37.443,37.443,0,0,0-7.83,2.248ZM28.091,1.913a9.863,9.863,0,0,0,1.17-.046v7.9a41.614,41.614,0,0,0-5.87.464C24.645,6.047,26.28,3.047,28.091,1.913Zm2.1-.056a9.631,9.631,0,0,1,1.161.046c1.858,1.143,3.455,4.124,4.709,8.36A41.614,41.614,0,0,0,30.19,9.8Zm2.787.186c.483.056.929.121,1.44.2,4.254,1.6,7.951,5.341,10.524,10.4a38.018,38.018,0,0,0-7.812-2.266C36,6.595,34.574,3.715,32.949,2.053ZM21.431,3.121a24.522,24.522,0,0,0-8.193,10.115A24.522,24.522,0,0,0,3.123,21.429,28,28,0,0,1,21.431,3.121ZM2.166,31.7c-.1-.5-.186-1-.242-1.514h7.84a42.07,42.07,0,0,0,.455,5.87C6.29,34.87,3.439,33.356,2.166,31.7Zm18.206,6.381a59.633,59.633,0,0,1-9.159-1.7,40.6,40.6,0,0,1-.52-6.158h9.289C19.991,32.863,20.121,35.5,20.372,38.084Zm-.4-8.824H10.684a41.278,41.278,0,0,1,.52-6.149,60.638,60.638,0,0,1,9.149-1.691C20.121,23.9,19.991,26.529,19.973,29.259Zm1.449-8.9a60.637,60.637,0,0,1,1.691-9.149,41.278,41.278,0,0,1,6.149-.52V19.98C26.53,19.989,23.9,20.119,21.422,20.361Zm8.769-.39V10.682a41.5,41.5,0,0,1,6.158.52,61.6,61.6,0,0,1,1.737,9.159Q34.282,20,30.19,19.971Zm8.824.464A61.157,61.157,0,0,0,37.4,11.379a35.827,35.827,0,0,1,8.118,2.554,35.827,35.827,0,0,1,2.527,8.146,61.823,61.823,0,0,0-9.029-1.644ZM49.232,23.37c4.18,1.254,7.18,2.889,8.313,4.7a9.864,9.864,0,0,0,.046,1.17H49.7a41.613,41.613,0,0,0-.464-5.852Z" transform="translate(0 0)" fill="#fbfbfb"/>
        <path id="Path_101" data-name="Path 101" d="M32.07,42.06A10.3,10.3,0,1,1,46.644,56.625a.926.926,0,1,0,1.319,1.3A12.159,12.159,0,0,0,30.769,40.75a.923.923,0,1,0,1.3,1.31Z" transform="translate(-2.167 -2.667)" fill="#dd6464"/>
        <path id="Path_102" data-name="Path 102" d="M50.167,37.773a15.93,15.93,0,0,1,.084,22.367.933.933,0,1,0,1.319,1.319A17.741,17.741,0,0,0,26.49,36.38a.953.953,0,1,0,1.384,1.31,15.93,15.93,0,0,1,22.293.084Z" transform="translate(-1.864 -2.244)" fill="#eb5f5f"/>
        <path id="Path_103" data-name="Path 103" d="M43.018,54.436a.929.929,0,0,0,1.319,0,6.586,6.586,0,0,0-9.289-9.289.933.933,0,0,0,1.291,1.347,4.728,4.728,0,0,1,6.679,6.679A.929.929,0,0,0,43.018,54.436Z" transform="translate(-2.471 -3.097)" fill="#dd6464"/>
      </g>
    </g>
  </g>
</svg>
