<svg xmlns="http://www.w3.org/2000/svg" xmlns:xlink="http://www.w3.org/1999/xlink" width="106" height="62.734" viewBox="0 0 106 62.734">
  <defs>
    <filter id="CixHub" x="35" y="0" width="71" height="51" filterUnits="userSpaceOnUse">
      <feOffset dy="3" input="SourceAlpha"/>
      <feGaussianBlur stdDeviation="3" result="blur"/>
      <feFlood flood-opacity="0.161"/>
      <feComposite operator="in" in2="blur"/>
      <feComposite in="SourceGraphic"/>
    </filter>
    <filter id="Path_6" x="17.794" y="0.303" width="54.138" height="62.328" filterUnits="userSpaceOnUse">
      <feOffset dx="12" dy="12" input="SourceAlpha"/>
      <feGaussianBlur stdDeviation="6" result="blur-2"/>
      <feFlood flood-opacity="0.161"/>
      <feComposite operator="in" in2="blur-2"/>
      <feComposite in="SourceGraphic"/>
    </filter>
    <filter id="Path_8" x="17.811" y="0.453" width="51.428" height="62.226" filterUnits="userSpaceOnUse">
      <feOffset dx="12" dy="12" input="SourceAlpha"/>
      <feGaussianBlur stdDeviation="6" result="blur-3"/>
      <feFlood flood-opacity="0.161"/>
      <feComposite operator="in" in2="blur-3"/>
      <feComposite in="SourceGraphic"/>
    </filter>
    <filter id="Path_10" x="0" y="0.65" width="52.818" height="61.89" filterUnits="userSpaceOnUse">
      <feOffset dx="12" dy="12" input="SourceAlpha"/>
      <feGaussianBlur stdDeviation="6" result="blur-4"/>
      <feFlood flood-opacity="0.161"/>
      <feComposite operator="in" in2="blur-4"/>
      <feComposite in="SourceGraphic"/>
    </filter>
    <filter id="Path_11" x="1.839" y="0.72" width="50.979" height="62.014" filterUnits="userSpaceOnUse">
      <feOffset dx="12" dy="12" input="SourceAlpha"/>
      <feGaussianBlur stdDeviation="6" result="blur-5"/>
      <feFlood flood-opacity="0.161"/>
      <feComposite operator="in" in2="blur-5"/>
      <feComposite in="SourceGraphic"/>
    </filter>
    <filter id="Create" x="1.381" y="13.332" width="20.204" height="21.132" filterUnits="userSpaceOnUse">
      <feOffset dy="3" input="SourceAlpha"/>
      <feGaussianBlur stdDeviation="3" result="blur-6"/>
      <feFlood flood-opacity="0.161"/>
      <feComposite operator="in" in2="blur-6"/>
      <feComposite in="SourceGraphic"/>
    </filter>
    <filter id="Innovate" x="5.302" y="12.402" width="20.274" height="22.13" filterUnits="userSpaceOnUse">
      <feOffset dy="3" input="SourceAlpha"/>
      <feGaussianBlur stdDeviation="3" result="blur-7"/>
      <feFlood flood-opacity="0.161"/>
      <feComposite operator="in" in2="blur-7"/>
      <feComposite in="SourceGraphic"/>
    </filter>
    <filter id="Execute_" x="27.233" y="12.269" width="22.269" height="22.269" filterUnits="userSpaceOnUse">
      <feOffset dy="3" input="SourceAlpha"/>
      <feGaussianBlur stdDeviation="3" result="blur-8"/>
      <feFlood flood-opacity="0.161"/>
      <feComposite operator="in" in2="blur-8"/>
      <feComposite in="SourceGraphic"/>
    </filter>
  </defs>
  <g id="website-logo" transform="translate(6 6.303)">
    <g id="_512finalogo" data-name="512finalogo" transform="translate(38 -0.303)">
      <g transform="matrix(1, 0, 0, 1, -44, -6)" filter="url(#CixHub)">
        <text id="CixHub-2" data-name="CixHub" transform="translate(44 24)" fill="#fbfbfb" font-size="18" font-family="KhmerMN, Khmer MN"><tspan x="0" y="0">CixHub</tspan></text>
      </g>
    </g>
    <g id="logoicon" transform="translate(0 0)">
      <g id="R" transform="translate(17.794 0)">
        <g transform="matrix(1, 0, 0, 1, -23.79, -6.3)" filter="url(#Path_6)">
          <path id="Path_6-2" data-name="Path 6" d="M13.674,0S8.181,8.027,8.163,12.743s8.664,6.267,8.664,6.267a4.069,4.069,0,0,0-1.758,2.725c-.085,1.62,1.419,3.748,1.419,3.748S.027,19.762,0,12.714,13.674,0,13.674,0Z" transform="translate(41.93 31.75) rotate(177)" fill="#32749d"/>
        </g>
        <g transform="matrix(1, 0, 0, 1, -23.79, -6.3)" filter="url(#Path_8)" style="mix-blend-mode: luminosity;isolation: isolate">
          <path id="Path_8-2" data-name="Path 8" d="M13.674,0S6.841,7.9,7.013,12.606s7.1,6.437,7.1,6.437A3.97,3.97,0,0,0,12.38,21.7c-.122,1.628,1.392,3.819,1.392,3.819S.027,19.76,0,12.712,13.674,0,13.674,0Z" transform="translate(39.24 31.94) rotate(177)" fill="#606060"/>
        </g>
      </g>
      <g id="L" transform="translate(0 0.346)">
        <g transform="matrix(1, 0, 0, 1, -6, -6.65)" filter="url(#Path_10)">
          <path id="Path_10-2" data-name="Path 10" d="M2.372,0S7.827,8.042,7.851,12.764,0,18.894,0,18.894a5.371,5.371,0,0,1,1.5,2.846A6.935,6.935,0,0,1,.444,25.349s15.481-5.548,15.5-12.6S2.372,0,2.372,0Z" transform="translate(21.93 32.54) rotate(-178)" fill="#ed5757"/>
        </g>
        <g transform="matrix(1, 0, 0, 1, -6, -6.65)" filter="url(#Path_11)" style="mix-blend-mode: luminosity;isolation: isolate">
          <path id="Path_11-2" data-name="Path 11" d="M.525,0S5.98,8.046,6,12.769s-6,6.313-6,6.313a5.253,5.253,0,0,1,1.506,2.947A7.192,7.192,0,0,1,.451,25.538S14.078,19.809,14.1,12.75.525,0,.525,0Z" transform="translate(21.93 32.73) rotate(-178)" fill="#606060"/>
        </g>
        <g transform="matrix(1, 0, 0, 1, -6, -6.65)" filter="url(#Create)" style="mix-blend-mode: luminosity;isolation: isolate">
          <text id="Create-2" data-name="Create" transform="matrix(0.07, -1, 1, 0.07, 11.38, 22.39)" fill="#707070" font-size="1" font-family="KhmerMN, Khmer MN" opacity="0.071"><tspan x="0" y="0">Create</tspan></text>
        </g>
        <g transform="matrix(1, 0, 0, 1, -6, -6.65)" filter="url(#Innovate)" style="mix-blend-mode: luminosity;isolation: isolate">
          <text id="Innovate-2" data-name="Innovate" transform="matrix(0.07, -1, 1, 0.07, 15.3, 22.46)" fill="#707070" font-size="1" font-family="KhmerMN, Khmer MN" opacity="0.069"><tspan x="0" y="0">Innovate</tspan></text>
        </g>
        <g transform="matrix(1, 0, 0, 1, -6, -6.65)" filter="url(#Execute_)" style="mix-blend-mode: luminosity;isolation: isolate">
          <text id="Execute_2" data-name="Execute
" transform="matrix(0.07, -1, 1, 0.07, 37.23, 22.33)" fill="#707070" font-size="1" font-family="KhmerMN, Khmer MN" opacity="0.069"><tspan x="0" y="0">Execute</tspan><tspan x="0" y="2"></tspan></text>
        </g>
      </g>
    </g>
  </g>
</svg>
