<svg xmlns="http://www.w3.org/2000/svg" xmlns:xlink="http://www.w3.org/1999/xlink" width="125.153" height="67.942" viewBox="0 0 125.153 67.942">
  <defs>
    <filter id="CixHub" x="43.153" y="0" width="82" height="58" filterUnits="userSpaceOnUse">
      <feOffset dy="3" input="SourceAlpha"/>
      <feGaussianBlur stdDeviation="3" result="blur"/>
      <feFlood flood-opacity="0.161"/>
      <feComposite operator="in" in2="blur"/>
      <feComposite in="SourceGraphic"/>
    </filter>
    <filter id="Path_6" x="21.504" y="0" width="57.92" height="67.818" filterUnits="userSpaceOnUse">
      <feOffset dx="12" dy="12" input="SourceAlpha"/>
      <feGaussianBlur stdDeviation="6" result="blur-2"/>
      <feFlood flood-opacity="0.161"/>
      <feComposite operator="in" in2="blur-2"/>
      <feComposite in="SourceGraphic"/>
    </filter>
    <filter id="Path_8" x="21.525" y="0.18" width="54.645" height="67.694" filterUnits="userSpaceOnUse">
      <feOffset dx="12" dy="12" input="SourceAlpha"/>
      <feGaussianBlur stdDeviation="6" result="blur-3"/>
      <feFlood flood-opacity="0.161"/>
      <feComposite operator="in" in2="blur-3"/>
      <feComposite in="SourceGraphic"/>
    </filter>
    <filter id="Path_10" x="0" y="0.419" width="56.325" height="67.288" filterUnits="userSpaceOnUse">
      <feOffset dx="12" dy="12" input="SourceAlpha"/>
      <feGaussianBlur stdDeviation="6" result="blur-4"/>
      <feFlood flood-opacity="0.161"/>
      <feComposite operator="in" in2="blur-4"/>
      <feComposite in="SourceGraphic"/>
    </filter>
    <filter id="Path_11" x="2.222" y="0.504" width="54.102" height="67.438" filterUnits="userSpaceOnUse">
      <feOffset dx="12" dy="12" input="SourceAlpha"/>
      <feGaussianBlur stdDeviation="6" result="blur-5"/>
      <feFlood flood-opacity="0.161"/>
      <feComposite operator="in" in2="blur-5"/>
      <feComposite in="SourceGraphic"/>
    </filter>
    <filter id="Create" x="2.294" y="16.369" width="20.204" height="21.132" filterUnits="userSpaceOnUse">
      <feOffset dy="3" input="SourceAlpha"/>
      <feGaussianBlur stdDeviation="3" result="blur-6"/>
      <feFlood flood-opacity="0.161"/>
      <feComposite operator="in" in2="blur-6"/>
      <feComposite in="SourceGraphic"/>
    </filter>
    <filter id="Innovate" x="7.033" y="15.453" width="20.274" height="22.13" filterUnits="userSpaceOnUse">
      <feOffset dy="3" input="SourceAlpha"/>
      <feGaussianBlur stdDeviation="3" result="blur-7"/>
      <feFlood flood-opacity="0.161"/>
      <feComposite operator="in" in2="blur-7"/>
      <feComposite in="SourceGraphic"/>
    </filter>
    <filter id="Execute_" x="33.537" y="15.293" width="22.269" height="22.269" filterUnits="userSpaceOnUse">
      <feOffset dy="3" input="SourceAlpha"/>
      <feGaussianBlur stdDeviation="3" result="blur-8"/>
      <feFlood flood-opacity="0.161"/>
      <feComposite operator="in" in2="blur-8"/>
      <feComposite in="SourceGraphic"/>
    </filter>
  </defs>
  <g id="website-logo" transform="translate(-1877.847 3004)">
    <g id="_512finalogo" data-name="512finalogo" transform="translate(1930.307 -2998)">
      <g transform="matrix(1, 0, 0, 1, -52.46, -6)" filter="url(#CixHub)">
        <text id="CixHub-2" data-name="CixHub" transform="translate(52.15 28)" fill="#2d6f98" font-size="22" font-family="KhmerMN, Khmer MN"><tspan x="0" y="0">CixHub</tspan></text>
      </g>
    </g>
    <g id="logoicon" transform="translate(1883.847 -2998)">
      <g id="R" transform="translate(21.504 0)">
        <g transform="matrix(1, 0, 0, 1, -27.5, -6)" filter="url(#Path_6)">
          <path id="Path_6-2" data-name="Path 6" d="M16.525,0S9.887,9.7,9.865,15.4s10.471,7.573,10.471,7.573a4.918,4.918,0,0,0-2.124,3.293c-.1,1.958,1.715,4.529,1.715,4.529S.033,23.883,0,15.365,16.525,0,16.525,0Z" transform="translate(49.42 36.75) rotate(177)" fill="#32749d"/>
        </g>
        <g transform="matrix(1, 0, 0, 1, -27.5, -6)" filter="url(#Path_8)" style="mix-blend-mode: luminosity;isolation: isolate">
          <path id="Path_8-2" data-name="Path 8" d="M16.525,0S8.267,9.543,8.475,15.234s8.578,7.779,8.578,7.779a4.8,4.8,0,0,0-2.093,3.215c-.148,1.967,1.682,4.615,1.682,4.615S.033,23.88,0,15.363,16.525,0,16.525,0Z" transform="translate(46.17 36.98) rotate(177)" fill="#606060"/>
        </g>
      </g>
      <g id="L" transform="translate(0 0.419)">
        <g transform="matrix(1, 0, 0, 1, -6, -6.42)" filter="url(#Path_10)">
          <path id="Path_10-2" data-name="Path 10" d="M2.866,0S9.459,9.719,9.488,15.425,0,22.833,0,22.833a6.49,6.49,0,0,1,1.809,3.439C2.04,28.209.536,30.634.536,30.634s18.709-6.7,18.731-15.232S2.866,0,2.866,0Z" transform="translate(25.26 37.71) rotate(-178)" fill="#ed5757"/>
        </g>
        <g transform="matrix(1, 0, 0, 1, -6, -6.42)" filter="url(#Path_11)" style="mix-blend-mode: luminosity;isolation: isolate">
          <path id="Path_11-2" data-name="Path 11" d="M.634,0S7.227,9.723,7.255,15.431,0,23.06,0,23.06a6.348,6.348,0,0,1,1.82,3.562,8.692,8.692,0,0,1-1.275,4.24s16.468-6.923,16.49-15.454S.634,0,.634,0Z" transform="translate(25.25 37.94) rotate(-178)" fill="#606060"/>
        </g>
        <g transform="matrix(1, 0, 0, 1, -6, -6.42)" filter="url(#Create)" style="mix-blend-mode: luminosity;isolation: isolate">
          <text id="Create-2" data-name="Create" transform="matrix(0.07, -1, 1, 0.07, 12.29, 25.43)" fill="#707070" font-size="1" font-family="KhmerMN, Khmer MN" opacity="0.071"><tspan x="0" y="0">Create</tspan></text>
        </g>
        <g transform="matrix(1, 0, 0, 1, -6, -6.42)" filter="url(#Innovate)" style="mix-blend-mode: luminosity;isolation: isolate">
          <text id="Innovate-2" data-name="Innovate" transform="matrix(0.07, -1, 1, 0.07, 17.03, 25.51)" fill="#707070" font-size="1" font-family="KhmerMN, Khmer MN" opacity="0.069"><tspan x="0" y="0">Innovate</tspan></text>
        </g>
        <g transform="matrix(1, 0, 0, 1, -6, -6.42)" filter="url(#Execute_)" style="mix-blend-mode: luminosity;isolation: isolate">
          <text id="Execute_2" data-name="Execute
" transform="matrix(0.07, -1, 1, 0.07, 43.53, 25.35)" fill="#707070" font-size="1" font-family="KhmerMN, Khmer MN" opacity="0.069"><tspan x="0" y="0">Execute</tspan><tspan x="0" y="2"></tspan></text>
        </g>
      </g>
    </g>
  </g>
</svg>
