<svg xmlns="http://www.w3.org/2000/svg" xmlns:xlink="http://www.w3.org/1999/xlink" width="71.164" height="65.996" viewBox="0 0 71.164 65.996">
  <defs>
    <filter id="Path_6" x="16.88" y="0" width="54.284" height="65.869" filterUnits="userSpaceOnUse">
      <feOffset dx="12" dy="12" input="SourceAlpha"/>
      <feGaussianBlur stdDeviation="6" result="blur"/>
      <feFlood flood-opacity="0.161"/>
      <feComposite operator="in" in2="blur"/>
      <feComposite in="SourceGraphic"/>
    </filter>
    <filter id="Path_8" x="16.898" y="0.13" width="51.574" height="65.805" filterUnits="userSpaceOnUse">
      <feOffset dx="12" dy="12" input="SourceAlpha"/>
      <feGaussianBlur stdDeviation="6" result="blur-2"/>
      <feFlood flood-color="#e3dfdf" flood-opacity="0.161"/>
      <feComposite operator="in" in2="blur-2"/>
      <feComposite in="SourceGraphic"/>
    </filter>
    <filter id="Path_10" x="0" y="0.3" width="52.916" height="65.492" filterUnits="userSpaceOnUse">
      <feOffset dx="12" dy="12" input="SourceAlpha"/>
      <feGaussianBlur stdDeviation="6" result="blur-3"/>
      <feFlood flood-opacity="0.161"/>
      <feComposite operator="in" in2="blur-3"/>
      <feComposite in="SourceGraphic"/>
    </filter>
    <filter id="Path_11" x="1.839" y="0.361" width="51.076" height="65.635" filterUnits="userSpaceOnUse">
      <feOffset dx="12" dy="12" input="SourceAlpha"/>
      <feGaussianBlur stdDeviation="6" result="blur-4"/>
      <feFlood flood-color="#e3dfdf" flood-opacity="0.161"/>
      <feComposite operator="in" in2="blur-4"/>
      <feComposite in="SourceGraphic"/>
    </filter>
    <filter id="Create" x="1.446" y="14.946" width="20.204" height="21.132" filterUnits="userSpaceOnUse">
      <feOffset dy="3" input="SourceAlpha"/>
      <feGaussianBlur stdDeviation="3" result="blur-5"/>
      <feFlood flood-opacity="0.161"/>
      <feComposite operator="in" in2="blur-5"/>
      <feComposite in="SourceGraphic"/>
    </filter>
    <filter id="Innovate" x="5.127" y="14.026" width="20.274" height="22.13" filterUnits="userSpaceOnUse">
      <feOffset dy="3" input="SourceAlpha"/>
      <feGaussianBlur stdDeviation="3" result="blur-6"/>
      <feFlood flood-opacity="0.161"/>
      <feComposite operator="in" in2="blur-6"/>
      <feComposite in="SourceGraphic"/>
    </filter>
    <filter id="Execute_" x="26.367" y="13.885" width="22.269" height="22.269" filterUnits="userSpaceOnUse">
      <feOffset dy="3" input="SourceAlpha"/>
      <feGaussianBlur stdDeviation="3" result="blur-7"/>
      <feFlood flood-opacity="0.161"/>
      <feComposite operator="in" in2="blur-7"/>
      <feComposite in="SourceGraphic"/>
    </filter>
  </defs>
  <g id="website-logo" transform="translate(6.066 5.875)">
    <g id="logoicon" transform="translate(0 0)">
      <g id="R" transform="translate(16.816 0.121)">
        <g transform="matrix(1, 0, 0, 1, -22.88, -6)" filter="url(#Path_6)">
          <path id="Path_6-2" data-name="Path 6" d="M13.769,0S8.215,9.188,8.163,14.565s8.622,7.081,8.622,7.081a4.752,4.752,0,0,0-1.779,3.119A9.378,9.378,0,0,0,16.4,29.027S-.028,22.627,0,14.591,13.769,0,13.769,0Z" transform="translate(41.16 34.99) rotate(177)" fill="#32749d"/>
        </g>
        <g transform="matrix(1, 0, 0, 1, -22.88, -6)" filter="url(#Path_8)" style="mix-blend-mode: luminosity;isolation: isolate">
          <path id="Path_8-2" data-name="Path 8" d="M13.77,0S6.876,9.054,7.013,14.424s7.054,7.29,7.054,7.29a4.63,4.63,0,0,0-1.752,3.047c-.134,1.858,1.364,4.345,1.364,4.345S-.028,22.635,0,14.6,13.77,0,13.77,0Z" transform="translate(38.47 35.2) rotate(177)" fill="#606060"/>
        </g>
      </g>
      <g id="L" transform="translate(-0.064 0.423)">
        <g transform="matrix(1, 0, 0, 1, -6, -6.3)" filter="url(#Path_10)">
          <path id="Path_10-2" data-name="Path 10" d="M2.281,0s5.5,9.216,5.543,14.611S0,21.577,0,21.577a6.462,6.462,0,0,1,1.512,3.259A8.661,8.661,0,0,1,.479,28.954S15.935,22.692,15.919,14.63,2.281,0,2.281,0Z" transform="translate(21.91 35.79) rotate(-178)" fill="#ed5757"/>
        </g>
        <g transform="matrix(1, 0, 0, 1, -6, -6.3)" filter="url(#Path_11)" style="mix-blend-mode: luminosity;isolation: isolate">
          <path id="Path_11-2" data-name="Path 11" d="M.433,0s5.5,9.214,5.543,14.608S0,21.787,0,21.787A6.333,6.333,0,0,1,1.524,25.16a8.962,8.962,0,0,1-1.038,4s13.6-6.474,13.584-14.535S.433,0,.433,0Z" transform="translate(21.9 36) rotate(-178)" fill="#606060"/>
        </g>
        <g transform="matrix(1, 0, 0, 1, -6, -6.3)" filter="url(#Create)" style="mix-blend-mode: luminosity;isolation: isolate">
          <text id="Create-2" data-name="Create" transform="matrix(0.07, -1, 1, 0.07, 11.44, 24.01)" fill="#707070" font-size="1" font-family="KhmerMN, Khmer MN" opacity="0.071"><tspan x="0" y="0">Create</tspan></text>
        </g>
        <g transform="matrix(1, 0, 0, 1, -6, -6.3)" filter="url(#Innovate)" style="mix-blend-mode: luminosity;isolation: isolate">
          <text id="Innovate-2" data-name="Innovate" transform="matrix(0.07, -1, 1, 0.07, 15.12, 24.09)" fill="#707070" font-size="1" font-family="KhmerMN, Khmer MN" opacity="0.069"><tspan x="0" y="0">Innovate</tspan></text>
        </g>
        <g transform="matrix(1, 0, 0, 1, -6, -6.3)" filter="url(#Execute_)" style="mix-blend-mode: luminosity;isolation: isolate">
          <text id="Execute_2" data-name="Execute
" transform="matrix(0.07, -1, 1, 0.07, 36.36, 23.95)" fill="#707070" font-size="1" font-family="KhmerMN, Khmer MN" opacity="0.069"><tspan x="0" y="0">Execute</tspan><tspan x="0" y="2"></tspan></text>
        </g>
      </g>
    </g>
  </g>
</svg>
