<svg xmlns="http://www.w3.org/2000/svg" width="29.366" height="29.366" viewBox="0 0 29.366 29.366">
  <path id="facebook" d="M27.7,1H3.67A2.67,2.67,0,0,0,1,3.67V27.7a2.67,2.67,0,0,0,2.67,2.67H13.681a.667.667,0,0,0,.667-.667V20.355a.667.667,0,0,0-.667-.667H12.346a.667.667,0,0,1-.667-.667v-4a.667.667,0,0,1,.667-.667h1.335a.667.667,0,0,0,.667-.667V12.346a6.007,6.007,0,0,1,6.007-6.007h4a.667.667,0,0,1,.667.667v4a.667.667,0,0,1-.667.667h-4a.667.667,0,0,0-.667.667v1.335a.667.667,0,0,0,.667.667h4a.667.667,0,0,1,.654.774l-.667,4a.667.667,0,0,1-.654.561H20.355a.667.667,0,0,0-.667.667V29.7a.667.667,0,0,0,.667.667H27.7a2.67,2.67,0,0,0,2.67-2.67V3.67A2.67,2.67,0,0,0,27.7,1Z" transform="translate(-1 -1)" fill="#fbfbfb"/>
</svg>
