<svg xmlns="http://www.w3.org/2000/svg" width="52" height="52" viewBox="0 0 52 52">
  <path id="github" d="M32,6a26,26,0,0,0-6.045,51.286c-.592-.141-1.179-.3-1.755-.479V50.85a7.935,7.935,0,0,1-2.275.325c-3.637,0-5.148-3.245-5.525-4.875a5.063,5.063,0,0,0-1.469-2.509c-.767-.684-1.126-.686-1.131-.92-.01-.491.658-.471.975-.471,1.625,0,2.857,1.729,3.429,2.623,1.417,2.207,2.938,2.577,3.721,2.577a5.733,5.733,0,0,0,2.4-.426A7.7,7.7,0,0,1,26.8,42.4C20.7,41.181,16.4,37.684,16.4,32a11.6,11.6,0,0,1,3.133-7.792A10.554,10.554,0,0,1,19,20.625a11.75,11.75,0,0,1,.65-4.225,11.561,11.561,0,0,1,7.2,3.338,18.3,18.3,0,0,1,10.29,0,11.561,11.561,0,0,1,7.2-3.338A11.684,11.684,0,0,1,45,20.625a12.529,12.529,0,0,1-.432,3.7A11.565,11.565,0,0,1,47.6,32c0,5.684-4.3,9.181-10.4,10.4a7.706,7.706,0,0,1,2.6,5.85v8.557c-.576.181-1.162.338-1.755.479A26,26,0,0,0,32,6Zm1.813,51.93c-.6.042-1.2.07-1.813.07C32.61,58,33.213,57.971,33.813,57.93Zm3.973-.584a25.943,25.943,0,0,1-3.575.554A26.1,26.1,0,0,0,37.786,57.346ZM32,58c-.61,0-1.214-.028-1.813-.07C30.787,57.971,31.39,58,32,58Zm-2.212-.1a25.929,25.929,0,0,1-3.574-.554A26.105,26.105,0,0,0,29.788,57.9Z" transform="translate(-6 -6)" fill="#fbfbfb"/>
</svg>
