<svg xmlns="http://www.w3.org/2000/svg" width="47.046" height="47.046" viewBox="0 0 47.046 47.046">
  <path id="linkedin" d="M30.548,7.025A23.523,23.523,0,1,0,54.071,30.548,23.523,23.523,0,0,0,30.548,7.025Zm-6.276,34.9H19.107V25.235h5.165ZM21.665,23.049a3.079,3.079,0,1,1,3.054-3.079A3.067,3.067,0,0,1,21.665,23.049ZM43.627,41.92h-5.14V33.162c0-2.4-.912-3.743-2.812-3.743-2.067,0-3.147,1.4-3.147,3.743V41.92H27.574V25.235h4.954v2.247a5.819,5.819,0,0,1,5.028-2.756c3.538,0,6.071,2.16,6.071,6.63Z" transform="translate(-7.025 -7.025)" fill="#fbfbfb"/>
</svg>
