<svg xmlns="http://www.w3.org/2000/svg" width="36.059" height="31.551" viewBox="0 0 36.059 31.551">
  <path id="twitter" d="M12.17,31.551A21.951,21.951,0,0,1,.6,28.307a1.126,1.126,0,0,1,.715-2.084,12.774,12.774,0,0,0,7.416-1.378A10.178,10.178,0,0,1,3.078,19.3a1.129,1.129,0,0,1,.677-1.508,9.085,9.085,0,0,1-2.97-6.677,1.125,1.125,0,0,1,.66-1.026A1.166,1.166,0,0,1,2.089,10,8.739,8.739,0,0,1,2.4,2.119,1.131,1.131,0,0,1,3.3,1.543a1.09,1.09,0,0,1,.978.449A18.493,18.493,0,0,0,16.794,9.133c-.112-2.256.359-5.843,3.244-7.639A8.5,8.5,0,0,1,24.694,0a7.549,7.549,0,0,1,5.352,2.192A15.451,15.451,0,0,0,33.4.766a1.127,1.127,0,0,1,1.766,1.177,7.006,7.006,0,0,1-.7,1.681A1.126,1.126,0,0,1,35.951,5.2a15.216,15.216,0,0,1-3.292,3.7,22.351,22.351,0,0,1-5.853,15.826,19.606,19.606,0,0,1-14.6,6.825H12.17Z" transform="translate(-0.05)" fill="#fbfbfb"/>
</svg>
